SplineFontDB: 1.0
FontName: ArundinaSans
FullName: Arundina Sans
FamilyName: Arundina Sans
Weight: Book
Copyright: Copyright (c) 2003 by Bitstream, Inc. All Rights Reserved.\nCopyright (c) 2007 by Software Industry Promotion Agency (Public Organization). All Rights Reserved.
Version: 1.20
ItalicAngle: 0
UnderlinePosition: -75
UnderlineWidth: 50
Ascent: 800
Descent: 200
Order2: 1
XUID: [1021 375 425136265 761299]
FSType: 4
OS2Version: 2
OS2_WeightWidthSlopeOnly: 0
OS2_UseTypoMetrics: 1
CreationTime: 1131303360
ModificationTime: 1171885001
PfmFamily: 33
TTFWeight: 400
TTFWidth: 5
LineGap: 12
VLineGap: 0
Panose: 2 11 3 0 2 2 2 2 2 4
OS2TypoAscent: 0
OS2TypoAOffset: 1
OS2TypoDescent: -200
OS2TypoDOffset: 1
OS2TypoLinegap: 0
OS2WinAscent: -185
OS2WinAOffset: 1
OS2WinDescent: 61
OS2WinDOffset: 1
HheadAscent: -185
HheadAOffset: 1
HheadDescent: -61
HheadDOffset: 1
OS2SubXSize: 700
OS2SubYSize: 650
OS2SubXOff: 0
OS2SubYOff: 140
OS2SupXSize: 700
OS2SupYSize: 650
OS2SupXOff: 0
OS2SupYOff: 477
OS2StrikeYSize: 40
OS2StrikeYPos: 250
OS2FamilyClass: 2050
OS2Vendor: 'BLWK'
ScriptLang: 2
 1 latn 1 dflt 
 0 
ChainSub: coverage 0 0 'liga' 0 0 0 1
 1 1 0
  Coverage: 7 uni0E47
  BCoverage: 12 uni0E2C.alt1
 1
  SeqLookup: 0 'L019'
EndFPST
ChainSub: coverage 0 0 'liga' 0 0 0 1
 1 0 1
  Coverage: 7 uni0E2C
  FCoverage: 39 uni0E34 uni0E35 uni0E36 uni0E37 uni0E47
 1
  SeqLookup: 0 'L019'
EndFPST
ChainSub: coverage 0 0 'liga' 0 0 0 1
 1 0 1
  Coverage: 15 uni0E0E uni0E0F
  FCoverage: 38 uni0E38.alt1 uni0E39.alt1 uni0E3A.alt1
 1
  SeqLookup: 0 'L019'
EndFPST
ChainSub: coverage 0 0 'liga' 0 0 0 1
 1 1 0
  Coverage: 5 a b c
  BCoverage: 23 uni0E1B uni0E1D uni0E1F
 1
  SeqLookup: 0 'L019'
EndFPST
ChainSub: coverage 0 0 'liga' 0 0 0 1
 1 0 1
  Coverage: 5 a b c
  FCoverage: 64 uni0E48.alt1 uni0E49.alt1 uni0E4A.alt1 uni0E4B.alt1 uni0E4C.alt1
 1
  SeqLookup: 0 'L019'
EndFPST
ChainSub: coverage 0 0 'liga' 0 0 0 1
 1 1 0
  Coverage: 64 uni0E48.alt2 uni0E49.alt2 uni0E4A.alt2 uni0E4B.alt2 uni0E4C.alt2

StartChar: .notdef
Encoding: 65536 -1 0
Width: 364
Flags: W
Fore
31 426 m 1,0,-1
 333 426 l 1,1,-1
 333 -107 l 1,2,-1
 31 -107 l 1,3,-1
 31 426 l 1,0,-1
299 -73 m 1,4,-1
 299 392 l 1,5,-1
 65 392 l 1,6,-1
 65 -73 l 1,7,-1
 299 -73 l 1,4,-1
EndSplineSet
EndChar
StartChar: exclam
Encoding: 33 33 4
Width: 232
Flags: W
Fore
144 0 m 1,0,-1
 87 0 l 1,1,-1
 87 71 l 1,2,-1
 144 71 l 1,3,-1
 144 0 l 1,0,-1
144 236 m 1,4,-1
 139 135 l 1,5,-1
 93 135 l 1,6,-1
 87 236 l 1,7,-1
 87 420 l 1,8,-1
 144 420 l 1,9,-1
 144 236 l 1,4,-1
EndSplineSet
EndChar
StartChar: quotedbl
Encoding: 34 34 5
Width: 266
Flags: W
Fore
56 264 m 1,0,-1
 56 420 l 1,1,-1
 104 420 l 1,2,-1
 104 264 l 1,3,-1
 56 264 l 1,0,-1
162 264 m 1,4,-1
 162 420 l 1,5,-1
 210 420 l 1,6,-1
 210 264 l 1,7,-1
 162 264 l 1,4,-1
EndSplineSet
EndChar
StartChar: numbersign
Encoding: 35 35 6
Width: 483
Flags: W
Fore
190 160 m 1,0,-1
 272 160 l 1,1,-1
 295 254 l 1,2,-1
 213 254 l 1,3,-1
 190 160 l 1,0,-1
306 298 m 1,4,-1
 335 414 l 1,5,-1
 380 414 l 1,6,-1
 351 298 l 1,7,-1
 439 298 l 1,8,-1
 439 254 l 1,9,-1
 340 254 l 1,10,-1
 317 160 l 1,11,-1
 407 160 l 1,12,-1
 407 116 l 1,13,-1
 306 116 l 1,14,-1
 277 0 l 1,15,-1
 232 0 l 1,16,-1
 261 116 l 1,17,-1
 178 116 l 1,18,-1
 149 0 l 1,19,-1
 104 0 l 1,20,-1
 133 116 l 1,21,-1
 44 116 l 1,22,-1
 44 160 l 1,23,-1
 144 160 l 1,24,-1
 168 254 l 1,25,-1
 76 254 l 1,26,-1
 76 298 l 1,27,-1
 178 298 l 1,28,-1
 207 414 l 1,29,-1
 252 414 l 1,30,-1
 224 298 l 1,31,-1
 306 298 l 1,4,-1
EndSplineSet
EndChar
StartChar: dollar
Encoding: 36 36 7
Width: 367
Flags: W
Fore
167 0 m 1,0,1
 137 0 137 0 107.5 6.5 c 128,-1,2
 78 13 78 13 47 26 c 1,3,-1
 47 76 l 1,4,5
 76 59 76 59 105.5 49.5 c 128,-1,6
 135 40 135 40 167 40 c 1,7,-1
 167 169 l 1,8,9
 104 178 104 178 75.5 202.5 c 128,-1,10
 47 227 47 227 47 269 c 0,11,12
 47 315 47 315 78 341.5 c 128,-1,13
 109 368 109 368 167 372 c 1,14,-1
 167 438 l 1,15,-1
 195 438 l 1,16,-1
 195 373 l 1,17,18
 221 372 221 372 245.5 368 c 128,-1,19
 270 364 270 364 294 355 c 1,20,-1
 294 306 l 1,21,22
 243 331 243 331 195 332 c 1,23,-1
 195 212 l 1,24,25
 259 202 259 202 289 177 c 128,-1,26
 319 152 319 152 319 107 c 0,27,28
 319 59 319 59 287 32 c 128,-1,29
 255 5 255 5 195 0 c 1,30,-1
 195 -85 l 1,31,-1
 167 -85 l 1,32,-1
 167 0 l 1,0,1
167 333 m 1,33,34
 100 326 100 326 100 274 c 0,35,36
 100 250 100 250 116 236 c 128,-1,37
 132 222 132 222 167 216 c 1,38,-1
 167 333 l 1,39,-1
 167 333 l 1,33,34
195 41 m 1,40,41
 267 49 267 49 267 102 c 0,42,43
 267 127 267 127 250 141.5 c 128,-1,44
 233 156 233 156 195 163 c 1,45,-1
 195 41 l 1,46,-1
 195 41 l 1,40,41
EndSplineSet
EndChar
StartChar: percent
Encoding: 37 37 8
Width: 548
Flags: W
Fore
419 185 m 0,0,1
 394 185 394 185 380.5 164 c 128,-1,2
 367 143 367 143 367 106 c 256,3,4
 367 69 367 69 380.5 48.5 c 128,-1,5
 394 28 394 28 419 28 c 0,6,7
 443 28 443 28 457.5 48.5 c 128,-1,8
 472 69 472 69 472 106 c 256,9,10
 472 143 472 143 457.5 164 c 128,-1,11
 443 185 443 185 419 185 c 0,0,1
419 220 m 256,12,13
 464 220 464 220 490 190 c 128,-1,14
 516 160 516 160 516 106 c 0,15,16
 516 54 516 54 490 23 c 128,-1,17
 464 -8 464 -8 419 -8 c 256,18,19
 374 -8 374 -8 348 23 c 128,-1,20
 322 54 322 54 322 106 c 0,21,22
 322 160 322 160 348 190 c 128,-1,23
 374 220 374 220 419 220 c 256,12,13
129 392 m 0,24,25
 105 392 105 392 90.5 371 c 128,-1,26
 76 350 76 350 76 314 c 0,27,28
 76 277 76 277 90 256 c 128,-1,29
 104 235 104 235 129 235 c 0,30,31
 153 235 153 235 167 256 c 128,-1,32
 181 277 181 277 181 314 c 0,33,34
 181 350 181 350 166.5 371 c 128,-1,35
 152 392 152 392 129 392 c 0,24,25
165 -8 m 1,36,-1
 121 -8 l 1,37,-1
 383 428 l 1,38,-1
 428 428 l 1,39,-1
 165 -8 l 1,36,-1
129 428 m 256,40,41
 174 428 174 428 200.5 398 c 128,-1,42
 227 368 227 368 227 314 c 256,43,44
 227 260 227 260 200.5 229.5 c 128,-1,45
 174 199 174 199 129 199 c 256,46,47
 84 199 84 199 58 229.5 c 128,-1,48
 32 260 32 260 32 314 c 0,49,50
 32 366 32 366 58 397 c 128,-1,51
 84 428 84 428 129 428 c 256,40,41
EndSplineSet
EndChar
StartChar: ampersand
Encoding: 38 38 9
Width: 450
Flags: W
Fore
140 227 m 1,0,1
 114 203 114 203 102.5 180.5 c 128,-1,2
 91 158 91 158 91 133 c 0,3,4
 91 91 91 91 120.5 64 c 128,-1,5
 150 37 150 37 196 37 c 0,6,7
 247 37 247 37 289 73 c 1,8,-1
 140 227 l 1,9,-1
 140 227 l 1,0,1
322 111 m 1,10,11
 340 136 340 136 349 165 c 128,-1,12
 358 194 358 194 361 226 c 1,13,-1
 412 226 l 1,14,15
 406 150 406 150 353 80 c 1,16,-1
 432 0 l 1,17,-1
 362 0 l 1,18,-1
 321 41 l 1,19,20
 263 -8 263 -8 191 -8 c 0,21,22
 123 -8 123 -8 79 30 c 0,23,24
 36 69 36 69 36 130 c 0,25,26
 36 201 36 201 111 258 c 1,27,28
 98 275 98 275 91 292.5 c 128,-1,29
 84 310 84 310 84 327 c 0,30,31
 84 373 84 373 115.5 400.5 c 128,-1,32
 147 428 147 428 199 428 c 0,33,34
 242 428 242 428 293 408 c 1,35,-1
 293 356 l 1,36,37
 244 384 244 384 204 384 c 0,38,39
 174 384 174 384 156 368 c 128,-1,40
 138 352 138 352 138 328 c 0,41,42
 138 313 138 313 146.5 298.5 c 128,-1,43
 155 284 155 284 180 258 c 2,44,-1
 322 111 l 1,45,-1
 322 111 l 1,10,11
EndSplineSet
EndChar
StartChar: quotesingle
Encoding: 39 39 10
Width: 159
Flags: W
Fore
56 264 m 1,0,-1
 56 420 l 1,1,-1
 104 420 l 1,2,-1
 104 264 l 1,3,-1
 56 264 l 1,0,-1
EndSplineSet
EndChar
StartChar: parenleft
Encoding: 40 40 11
Width: 225
Flags: W
Fore
179 438 m 1,0,1
 141 372 141 372 123 309.5 c 128,-1,2
 105 247 105 247 105 181 c 256,3,4
 105 115 105 115 123 52.5 c 128,-1,5
 141 -10 141 -10 179 -76 c 1,6,-1
 134 -76 l 1,7,8
 92 -10 92 -10 70.5 54 c 128,-1,9
 49 118 49 118 49 181 c 0,10,11
 49 305 49 305 134 438 c 1,12,-1
 179 438 l 1,13,-1
 179 438 l 1,0,1
EndSplineSet
EndChar
StartChar: parenright
Encoding: 41 41 12
Width: 225
Flags: W
Fore
91 438 m 1,0,1
 175 305 175 305 175 181 c 0,2,3
 175 56 175 56 91 -76 c 1,4,-1
 46 -76 l 1,5,6
 83 -10 83 -10 102 52.5 c 128,-1,7
 121 115 121 115 121 181 c 256,8,9
 121 247 121 247 102 309.5 c 128,-1,10
 83 372 83 372 46 438 c 1,11,-1
 91 438 l 1,12,-1
 91 438 l 1,0,1
EndSplineSet
EndChar
StartChar: asterisk
Encoding: 42 42 13
Width: 288
Flags: W
Fore
271 241 m 1,0,-1
 255 214 l 1,1,-1
 161 271 l 1,2,-1
 161 165 l 1,3,-1
 129 165 l 1,4,-1
 129 271 l 1,5,-1
 34 214 l 1,6,-1
 18 241 l 1,7,-1
 118 297 l 1,8,-1
 18 351 l 1,9,-1
 34 379 l 1,10,-1
 129 322 l 1,11,-1
 129 428 l 1,12,-1
 161 428 l 1,13,-1
 161 322 l 1,14,-1
 255 379 l 1,15,-1
 271 351 l 1,16,-1
 170 297 l 1,17,-1
 271 241 l 1,0,-1
EndSplineSet
EndChar
StartChar: plus
Encoding: 43 43 14
Width: 483
Flags: W
Fore
422 205 m 1,0,-1
 422 157 l 1,1,-1
 266 157 l 1,2,-1
 266 0 l 1,3,-1
 217 0 l 1,4,-1
 217 157 l 1,5,-1
 62 157 l 1,6,-1
 62 205 l 1,7,-1
 217 205 l 1,8,-1
 217 362 l 1,9,-1
 266 362 l 1,10,-1
 266 205 l 1,11,-1
 422 205 l 1,0,-1
EndSplineSet
EndChar
StartChar: comma
Encoding: 44 44 15
Width: 183
Flags: W
Fore
128 23 m 1,0,-1
 81 -67 l 1,1,-1
 44 -67 l 1,2,-1
 67 23 l 1,3,-1
 67 71 l 1,4,-1
 128 71 l 1,5,-1
 128 23 l 1,0,-1
EndSplineSet
EndChar
StartChar: hyphen
Encoding: 45 45 16
Width: 208
Flags: W
Fore
180 135 m 1,0,-1
 28 135 l 1,1,-1
 28 181 l 1,2,-1
 180 181 l 1,3,-1
 180 135 l 1,0,-1
EndSplineSet
EndChar
StartChar: period
Encoding: 46 46 17
Width: 183
Flags: W
Fore
122 0 m 1,0,-1
 62 0 l 1,1,-1
 62 71 l 1,2,-1
 122 71 l 1,3,-1
 122 0 l 1,0,-1
EndSplineSet
EndChar
StartChar: slash
Encoding: 47 47 18
Width: 194
Flags: W
Fore
47 -54 m 1,0,-1
 0 -54 l 1,1,-1
 146 420 l 1,2,-1
 194 420 l 1,3,-1
 47 -54 l 1,0,-1
EndSplineSet
EndChar
StartChar: zero
Encoding: 48 48 19
Width: 367
Flags: W
Fore
183 383 m 0,0,1
 95 383 95 383 95 210 c 256,2,3
 95 37 95 37 183 37 c 0,4,5
 272 37 272 37 272 210 c 256,6,7
 272 383 272 383 183 383 c 0,0,1
183 428 m 256,8,9
 255 428 255 428 292 372 c 128,-1,10
 329 316 329 316 329 210 c 256,11,12
 329 104 329 104 292 48 c 128,-1,13
 255 -8 255 -8 183 -8 c 256,14,15
 111 -8 111 -8 74.5 48 c 128,-1,16
 38 104 38 104 38 210 c 256,17,18
 38 316 38 316 74.5 372 c 128,-1,19
 111 428 111 428 183 428 c 256,8,9
EndSplineSet
EndChar
StartChar: one
Encoding: 49 49 20
Width: 367
Flags: W
Fore
165 369 m 1,0,-1
 64 348 l 1,1,-1
 64 401 l 1,2,-1
 164 420 l 1,3,-1
 220 420 l 1,4,-1
 220 47 l 1,5,-1
 314 47 l 1,6,-1
 314 0 l 1,7,-1
 71 0 l 1,8,-1
 71 47 l 1,9,-1
 165 47 l 1,10,-1
 165 369 l 1,0,-1
EndSplineSet
EndChar
StartChar: two
Encoding: 50 50 21
Width: 367
Flags: W
Fore
309 0 m 1,0,-1
 42 0 l 1,1,-1
 42 47 l 1,2,3
 58 64 58 64 80 86.5 c 128,-1,4
 102 109 102 109 130 137 c 0,5,6
 158 166 158 166 175.5 184.5 c 128,-1,7
 193 203 193 203 201 211 c 0,8,9
 229 241 229 241 239.5 262 c 128,-1,10
 250 283 250 283 250 304 c 0,11,12
 250 338 250 338 226.5 359 c 128,-1,13
 203 380 203 380 165 380 c 0,14,15
 112 380 112 380 45 343 c 1,16,-1
 45 401 l 1,17,18
 79 414 79 414 109 421 c 128,-1,19
 139 428 139 428 164 428 c 0,20,21
 230 428 230 428 268.5 395.5 c 128,-1,22
 307 363 307 363 307 308 c 0,23,24
 307 282 307 282 297 259 c 128,-1,25
 287 236 287 236 262 204 c 0,26,27
 255 196 255 196 217 157.5 c 128,-1,28
 179 119 179 119 110 47 c 1,29,-1
 309 47 l 1,30,-1
 309 0 l 1,0,-1
EndSplineSet
EndChar
StartChar: three
Encoding: 51 51 22
Width: 367
Flags: W
Fore
234 227 m 1,0,1
 276 217 276 217 298.5 190 c 128,-1,2
 321 163 321 163 321 123 c 0,3,4
 321 60 321 60 278.5 26 c 128,-1,5
 236 -8 236 -8 157 -8 c 0,6,7
 130 -8 130 -8 102 -3 c 128,-1,8
 74 2 74 2 43 12 c 1,9,-1
 43 67 l 1,10,11
 67 54 67 54 95.5 47 c 128,-1,12
 124 40 124 40 155 40 c 0,13,14
 264 40 264 40 264 123 c 0,15,16
 264 160 264 160 238 180.5 c 128,-1,17
 212 201 212 201 166 201 c 2,18,-1
 116 201 l 1,19,-1
 116 248 l 1,20,-1
 168 248 l 2,21,22
 254 248 254 248 254 313 c 0,23,24
 254 345 254 345 231 362.5 c 128,-1,25
 208 380 208 380 166 380 c 0,26,27
 142 380 142 380 115.5 375 c 128,-1,28
 89 370 89 370 57 359 c 1,29,-1
 57 410 l 1,30,31
 122 428 122 428 171 428 c 0,32,33
 237 428 237 428 274 399 c 128,-1,34
 311 370 311 370 311 319 c 0,35,36
 311 284 311 284 291 260 c 128,-1,37
 271 236 271 236 234 227 c 1,0,1
EndSplineSet
EndChar
StartChar: four
Encoding: 52 52 23
Width: 367
Flags: W
Fore
217 146 m 1,0,-1
 217 371 l 1,1,-1
 74 146 l 1,2,-1
 217 146 l 1,0,-1
275 146 m 1,3,-1
 335 146 l 1,4,-1
 335 99 l 1,5,-1
 275 99 l 1,6,-1
 275 0 l 1,7,-1
 217 0 l 1,8,-1
 217 99 l 1,9,-1
 28 99 l 1,10,-1
 28 153 l 1,11,-1
 203 420 l 1,12,-1
 275 420 l 1,13,-1
 275 146 l 1,3,-1
EndSplineSet
EndChar
StartChar: five
Encoding: 53 53 24
Width: 367
Flags: W
Fore
285 373 m 1,0,-1
 114 373 l 1,1,-1
 114 270 l 1,2,3
 143 278 143 278 164 278 c 0,4,5
 236 278 236 278 276 239.5 c 128,-1,6
 316 201 316 201 316 135 c 0,7,8
 316 66 316 66 274 29 c 128,-1,9
 232 -8 232 -8 156 -8 c 0,10,11
 104 -8 104 -8 44 10 c 1,12,-1
 44 67 l 1,13,14
 70 54 70 54 97 47 c 128,-1,15
 124 40 124 40 153 40 c 0,16,17
 204 40 204 40 232 65 c 128,-1,18
 260 90 260 90 260 135 c 256,19,20
 260 180 260 180 232 205.5 c 128,-1,21
 204 231 204 231 153 231 c 0,22,23
 131 231 131 231 108 225 c 128,-1,24
 85 219 85 219 63 209 c 1,25,-1
 63 420 l 1,26,-1
 285 420 l 1,27,-1
 285 373 l 1,0,-1
EndSplineSet
EndChar
StartChar: six
Encoding: 54 54 25
Width: 367
Flags: W
Fore
191 233 m 0,0,1
 151 233 151 233 129 206.5 c 128,-1,2
 107 180 107 180 107 135 c 256,3,4
 107 90 107 90 129 63.5 c 128,-1,5
 151 37 151 37 191 37 c 0,6,7
 229 37 229 37 251.5 63.5 c 128,-1,8
 274 90 274 90 274 135 c 256,9,10
 274 180 274 180 251.5 206.5 c 128,-1,11
 229 233 229 233 191 233 c 0,0,1
303 359 m 1,12,13
 282 370 282 370 260 375 c 128,-1,14
 238 380 238 380 216 380 c 0,15,16
 105 380 105 380 97 228 c 1,17,18
 113 252 113 252 138.5 265 c 128,-1,19
 164 278 164 278 194 278 c 0,20,21
 258 278 258 278 294.5 239.5 c 128,-1,22
 331 201 331 201 331 135 c 256,23,24
 331 69 331 69 292.5 30.5 c 128,-1,25
 254 -8 254 -8 191 -8 c 0,26,27
 116 -8 116 -8 78 48 c 128,-1,28
 40 104 40 104 40 210 c 0,29,30
 40 260 40 260 52.5 300 c 128,-1,31
 65 340 65 340 87.5 368.5 c 128,-1,32
 110 397 110 397 142.5 412.5 c 128,-1,33
 175 428 175 428 214 428 c 0,34,35
 236 428 236 428 257.5 423.5 c 128,-1,36
 279 419 279 419 303 411 c 1,37,-1
 303 359 l 1,38,-1
 303 359 l 1,12,13
EndSplineSet
EndChar
StartChar: seven
Encoding: 55 55 26
Width: 367
Flags: W
Fore
318 397 m 1,0,-1
 165 0 l 1,1,-1
 106 0 l 1,2,-1
 249 373 l 1,3,-1
 47 373 l 1,4,-1
 47 420 l 1,5,-1
 318 420 l 1,6,-1
 318 397 l 1,0,-1
EndSplineSet
EndChar
StartChar: eight
Encoding: 56 56 27
Width: 367
Flags: W
Fore
183 200 m 0,0,1
 143 200 143 200 120 178.5 c 128,-1,2
 97 157 97 157 97 118 c 0,3,4
 97 80 97 80 120 58.5 c 128,-1,5
 143 37 143 37 183 37 c 0,6,7
 225 37 225 37 248 58.5 c 128,-1,8
 271 80 271 80 271 118 c 0,9,10
 271 157 271 157 248 178.5 c 128,-1,11
 225 200 225 200 183 200 c 0,0,1
127 224 m 1,12,13
 90 233 90 233 69 258 c 128,-1,14
 48 283 48 283 48 319 c 0,15,16
 48 370 48 370 84 399 c 128,-1,17
 120 428 120 428 183 428 c 256,18,19
 246 428 246 428 282 399 c 128,-1,20
 318 370 318 370 318 319 c 0,21,22
 318 283 318 283 297.5 258 c 128,-1,23
 277 233 277 233 240 224 c 1,24,25
 282 214 282 214 305 187 c 128,-1,26
 328 160 328 160 328 118 c 0,27,28
 328 58 328 58 290.5 25 c 128,-1,29
 253 -8 253 -8 183 -8 c 256,30,31
 113 -8 113 -8 76 25 c 128,-1,32
 39 58 39 58 39 118 c 0,33,34
 39 160 39 160 62 187 c 128,-1,35
 85 214 85 214 127 224 c 1,12,13
106 314 m 0,36,37
 106 281 106 281 126 262.5 c 128,-1,38
 146 244 146 244 183 244 c 0,39,40
 219 244 219 244 240.5 262.5 c 128,-1,41
 262 281 262 281 262 314 c 0,42,43
 262 346 262 346 240.5 364.5 c 128,-1,44
 219 383 219 383 183 383 c 0,45,46
 146 383 146 383 126 364.5 c 128,-1,47
 106 346 106 346 106 314 c 0,36,37
EndSplineSet
EndChar
StartChar: nine
Encoding: 57 57 28
Width: 367
Flags: W
Fore
64 61 m 1,0,1
 85 50 85 50 107 45 c 128,-1,2
 129 40 129 40 150 40 c 0,3,4
 207 40 207 40 236.5 77.5 c 128,-1,5
 266 115 266 115 270 193 c 1,6,7
 253 169 253 169 228 155.5 c 128,-1,8
 203 142 203 142 173 142 c 0,9,10
 109 142 109 142 72.5 180 c 128,-1,11
 36 218 36 218 36 285 c 0,12,13
 36 351 36 351 74.5 389.5 c 128,-1,14
 113 428 113 428 176 428 c 0,15,16
 249 428 249 428 288 372 c 128,-1,17
 327 316 327 316 327 210 c 0,18,19
 327 161 327 161 314.5 120.5 c 128,-1,20
 302 80 302 80 279.5 51.5 c 128,-1,21
 257 23 257 23 224.5 7.5 c 128,-1,22
 192 -8 192 -8 152 -8 c 0,23,24
 108 -8 108 -8 64 8 c 1,25,-1
 64 61 l 1,26,-1
 64 61 l 1,0,1
176 187 m 256,27,28
 214 187 214 187 237 213 c 128,-1,29
 260 239 260 239 260 285 c 256,30,31
 260 331 260 331 237 357 c 128,-1,32
 214 383 214 383 176 383 c 256,33,34
 138 383 138 383 116 357 c 128,-1,35
 94 331 94 331 94 285 c 256,36,37
 94 239 94 239 116 213 c 128,-1,38
 138 187 138 187 176 187 c 256,27,28
EndSplineSet
EndChar
StartChar: colon
Encoding: 58 58 29
Width: 194
Flags: W
Fore
128 0 m 1,0,-1
 67 0 l 1,1,-1
 67 71 l 1,2,-1
 128 71 l 1,3,-1
 128 0 l 1,0,-1
128 227 m 1,4,-1
 67 227 l 1,5,-1
 67 299 l 1,6,-1
 128 299 l 1,7,-1
 128 227 l 1,4,-1
EndSplineSet
EndChar
StartChar: semicolon
Encoding: 59 59 30
Width: 194
Flags: W
Fore
128 227 m 1,0,-1
 67 227 l 1,1,-1
 67 299 l 1,2,-1
 128 299 l 1,3,-1
 128 227 l 1,0,-1
128 23 m 1,4,-1
 81 -67 l 1,5,-1
 44 -67 l 1,6,-1
 67 23 l 1,7,-1
 67 71 l 1,8,-1
 128 71 l 1,9,-1
 128 23 l 1,4,-1
EndSplineSet
EndChar
StartChar: less
Encoding: 60 60 31
Width: 483
Flags: W
Fore
422 78 m 1,0,-1
 422 27 l 1,1,-1
 62 158 l 1,2,-1
 62 204 l 1,3,-1
 422 335 l 1,4,-1
 422 283 l 1,5,-1
 132 180 l 1,6,-1
 422 78 l 1,0,-1
EndSplineSet
EndChar
StartChar: equal
Encoding: 61 61 32
Width: 483
Flags: W
Fore
422 214 m 1,0,-1
 62 214 l 1,1,-1
 62 262 l 1,2,-1
 422 262 l 1,3,-1
 422 214 l 1,0,-1
422 99 m 1,4,-1
 62 99 l 1,5,-1
 62 147 l 1,6,-1
 422 147 l 1,7,-1
 422 99 l 1,4,-1
EndSplineSet
EndChar
StartChar: greater
Encoding: 62 62 33
Width: 483
Flags: W
Fore
422 204 m 1,0,-1
 422 158 l 1,1,-1
 62 27 l 1,2,-1
 62 78 l 1,3,-1
 351 180 l 1,4,-1
 62 283 l 1,5,-1
 62 335 l 1,6,-1
 422 204 l 1,0,-1
EndSplineSet
EndChar
StartChar: question
Encoding: 63 63 34
Width: 306
Flags: W
Fore
168 0 m 1,0,-1
 110 0 l 1,1,-1
 110 71 l 1,2,-1
 168 71 l 1,3,-1
 168 0 l 1,0,-1
111 157 m 2,4,5
 111 184 111 184 119.5 202.5 c 128,-1,6
 128 221 128 221 152 245 c 2,7,-1
 178 271 l 2,8,9
 209 299 209 299 209 325 c 256,10,11
 209 351 209 351 190.5 366.5 c 128,-1,12
 172 382 172 382 141 382 c 0,13,14
 119 382 119 382 94 372.5 c 128,-1,15
 69 363 69 363 41 343 c 1,16,-1
 41 397 l 1,17,18
 96 428 96 428 151 428 c 0,19,20
 203 428 203 428 234.5 401 c 128,-1,21
 266 374 266 374 266 329 c 0,22,23
 266 307 266 307 255.5 288 c 128,-1,24
 245 269 245 269 220 244 c 2,25,-1
 196 220 l 2,26,27
 182 207 182 207 176.5 200 c 128,-1,28
 171 193 171 193 169 185 c 0,29,30
 168 179 168 179 167 171 c 128,-1,31
 166 163 166 163 166 147 c 2,32,-1
 166 113 l 1,33,-1
 111 113 l 1,34,-1
 111 157 l 2,4,5
EndSplineSet
EndChar
StartChar: at
Encoding: 64 64 35
Width: 577
Flags: W
Fore
214 151 m 0,0,1
 214 111 214 111 234 88 c 128,-1,2
 254 65 254 65 289 65 c 256,3,4
 324 65 324 65 344.5 88 c 128,-1,5
 365 111 365 111 365 151 c 256,6,7
 365 191 365 191 344 214 c 128,-1,8
 323 237 323 237 289 237 c 256,9,10
 255 237 255 237 234.5 215 c 128,-1,11
 214 193 214 193 214 151 c 0,0,1
368 67 m 1,12,13
 335 25 335 25 279 25 c 0,14,15
 231 25 231 25 200.5 59.5 c 128,-1,16
 170 94 170 94 170 151 c 256,17,18
 170 208 170 208 200.5 243 c 128,-1,19
 231 278 231 278 279 278 c 0,20,21
 335 278 335 278 368 236 c 1,22,-1
 368 273 l 1,23,-1
 408 273 l 1,24,-1
 408 65 l 1,25,26
 450 71 450 71 472.5 102 c 128,-1,27
 495 133 495 133 495 184 c 0,28,29
 495 214 495 214 486.5 240.5 c 128,-1,30
 478 267 478 267 460 289 c 0,31,32
 431 327 431 327 388.5 346.5 c 128,-1,33
 346 366 346 366 298 366 c 0,34,35
 228 366 228 366 172 330 c 0,36,37
 127 301 127 301 102.5 254 c 128,-1,38
 78 207 78 207 78 152 c 0,39,40
 78 62 78 62 141 0 c 0,41,42
 203 -60 203 -60 293 -60 c 0,43,44
 329 -60 329 -60 364 -48 c 128,-1,45
 399 -36 399 -36 428 -12 c 1,46,-1
 453 -43 l 1,47,48
 418 -71 418 -71 376.5 -85.5 c 128,-1,49
 335 -100 335 -100 293 -100 c 0,50,51
 185 -100 185 -100 111 -28 c 0,52,53
 76 7 76 7 57 53.5 c 128,-1,54
 38 100 38 100 38 152 c 256,55,56
 38 204 38 204 57 251 c 128,-1,57
 76 298 76 298 111 333 c 0,58,59
 148 368 148 368 195.5 387.5 c 128,-1,60
 243 407 243 407 297 407 c 0,61,62
 357 407 357 407 407.5 382 c 128,-1,63
 458 357 458 357 493 312 c 0,64,65
 515 284 515 284 526 251.5 c 128,-1,66
 537 219 537 219 537 185 c 0,67,68
 537 110 537 110 492 67.5 c 128,-1,69
 447 25 447 25 368 24 c 1,70,-1
 368 67 l 1,71,-1
 368 67 l 1,12,13
EndSplineSet
EndChar
StartChar: A
Encoding: 65 65 36
Width: 394
Flags: W
Fore
275 156 m 1,0,-1
 197 365 l 1,1,-1
 121 156 l 1,2,-1
 275 156 l 1,0,-1
389 0 m 1,3,-1
 331 0 l 1,4,-1
 293 107 l 1,5,-1
 103 107 l 1,6,-1
 65 0 l 1,7,-1
 4 0 l 1,8,-1
 165 420 l 1,9,-1
 230 420 l 1,10,-1
 389 0 l 1,3,-1
EndSplineSet
KernsSLIFO: 57 -50 0 0
EndChar
StartChar: B
Encoding: 66 66 37
Width: 396
Flags: W
Fore
205 46 m 2,0,1
 295 46 295 46 295 124 c 0,2,3
 295 201 295 201 205 201 c 2,4,-1
 113 201 l 1,5,-1
 113 46 l 1,6,-1
 205 46 l 2,0,1
198 247 m 2,7,8
 280 247 280 247 280 310 c 0,9,10
 280 374 280 374 198 374 c 2,11,-1
 113 374 l 1,12,-1
 113 247 l 1,13,-1
 198 247 l 2,7,8
202 420 m 1,14,15
 268 420 268 420 303 393.5 c 128,-1,16
 338 367 338 367 338 316 c 0,17,18
 338 278 338 278 319.5 255.5 c 128,-1,19
 301 233 301 233 267 227 c 1,20,21
 309 217 309 217 332 189.5 c 128,-1,22
 355 162 355 162 355 117 c 0,23,24
 355 62 355 62 316.5 31 c 128,-1,25
 278 0 278 0 208 0 c 2,26,-1
 57 0 l 1,27,-1
 57 420 l 1,28,-1
 202 420 l 1,29,-1
 202 420 l 1,14,15
EndSplineSet
EndChar
StartChar: C
Encoding: 67 67 38
Width: 403
Flags: W
Fore
372 328 m 1,0,1
 314 381 314 381 241 381 c 0,2,3
 169 381 169 381 131 338 c 128,-1,4
 93 295 93 295 93 210 c 256,5,6
 93 125 93 125 131 82 c 128,-1,7
 169 39 169 39 241 39 c 0,8,9
 314 39 314 39 372 92 c 1,10,-1
 372 32 l 1,11,12
 314 -8 314 -8 238 -8 c 0,13,14
 141 -8 141 -8 86.5 49.5 c 128,-1,15
 32 107 32 107 32 210 c 256,16,17
 32 313 32 313 86.5 370.5 c 128,-1,18
 141 428 141 428 238 428 c 0,19,20
 314 428 314 428 372 388 c 1,21,-1
 372 328 l 1,22,-1
 372 328 l 1,0,1
EndSplineSet
EndChar
StartChar: D
Encoding: 68 68 39
Width: 444
Flags: W
Fore
182 46 m 2,0,1
 270 46 270 46 310 86 c 128,-1,2
 350 126 350 126 350 211 c 256,3,4
 350 296 350 296 310 335 c 128,-1,5
 270 374 270 374 182 374 c 2,6,-1
 113 374 l 1,7,-1
 113 46 l 1,8,-1
 182 46 l 2,0,1
173 420 m 1,9,10
 297 420 297 420 353.5 370 c 128,-1,11
 410 320 410 320 410 211 c 256,12,13
 410 102 410 102 353.5 51 c 128,-1,14
 297 0 297 0 173 0 c 2,15,-1
 57 0 l 1,16,-1
 57 420 l 1,17,-1
 173 420 l 1,18,-1
 173 420 l 1,9,10
EndSplineSet
EndChar
StartChar: E
Encoding: 69 69 40
Width: 365
Flags: W
Fore
322 373 m 1,0,-1
 113 373 l 1,1,-1
 113 248 l 1,2,-1
 314 248 l 1,3,-1
 314 200 l 1,4,-1
 113 200 l 1,5,-1
 113 47 l 1,6,-1
 328 47 l 1,7,-1
 328 0 l 1,8,-1
 57 0 l 1,9,-1
 57 420 l 1,10,-1
 322 420 l 1,11,-1
 322 373 l 1,0,-1
EndSplineSet
EndChar
StartChar: F
Encoding: 70 70 41
Width: 332
Flags: W
Fore
299 373 m 1,0,-1
 113 373 l 1,1,-1
 113 248 l 1,2,-1
 280 248 l 1,3,-1
 280 201 l 1,4,-1
 113 201 l 1,5,-1
 113 0 l 1,6,-1
 57 0 l 1,7,-1
 57 420 l 1,8,-1
 299 420 l 1,9,-1
 299 373 l 1,0,-1
EndSplineSet
EndChar
StartChar: G
Encoding: 71 71 42
Width: 447
Flags: W
Fore
250 173 m 1,0,-1
 250 219 l 1,1,-1
 400 219 l 1,2,-1
 400 39 l 1,3,4
 367 15 367 15 327 3.5 c 128,-1,5
 287 -8 287 -8 242 -8 c 0,6,7
 142 -8 142 -8 87 49.5 c 128,-1,8
 32 107 32 107 32 210 c 256,9,10
 32 313 32 313 87 370.5 c 128,-1,11
 142 428 142 428 242 428 c 0,12,13
 327 428 327 428 388 388 c 1,14,-1
 388 328 l 1,15,16
 326 381 326 381 247 381 c 0,17,18
 93 381 93 381 93 210 c 256,19,20
 93 39 93 39 247 39 c 0,21,22
 277 39 277 39 300.5 43.5 c 128,-1,23
 324 48 324 48 343 60 c 1,24,-1
 343 173 l 1,25,-1
 250 173 l 1,0,-1
EndSplineSet
EndChar
StartChar: H
Encoding: 72 72 43
Width: 434
Flags: W
Fore
113 248 m 1,0,-1
 320 248 l 1,1,-1
 320 420 l 1,2,-1
 377 420 l 1,3,-1
 377 0 l 1,4,-1
 320 0 l 1,5,-1
 320 200 l 1,6,-1
 113 200 l 1,7,-1
 113 0 l 1,8,-1
 57 0 l 1,9,-1
 57 420 l 1,10,-1
 113 420 l 1,11,-1
 113 248 l 1,0,-1
EndSplineSet
EndChar
StartChar: I
Encoding: 73 73 44
Width: 170
Flags: W
Fore
113 0 m 1,0,-1
 57 0 l 1,1,-1
 57 420 l 1,2,-1
 113 420 l 1,3,-1
 113 0 l 1,0,-1
EndSplineSet
EndChar
StartChar: J
Encoding: 74 74 45
Width: 170
Flags: W
Fore
113 29 m 2,0,1
 113 -46 113 -46 84.5 -80.5 c 128,-1,2
 56 -115 56 -115 -8 -115 c 2,3,-1
 -30 -115 l 1,4,-1
 -30 -67 l 1,5,-1
 -12 -67 l 2,6,7
 26 -67 26 -67 41.5 -46 c 128,-1,8
 57 -25 57 -25 57 29 c 2,9,-1
 57 420 l 1,10,-1
 113 420 l 1,11,-1
 113 29 l 2,0,1
EndSplineSet
EndChar
StartChar: K
Encoding: 75 75 46
Width: 378
Flags: W
Fore
113 243 m 1,0,-1
 302 420 l 1,1,-1
 375 420 l 1,2,-1
 167 225 l 1,3,-1
 390 0 l 1,4,-1
 315 0 l 1,5,-1
 113 203 l 1,6,-1
 113 0 l 1,7,-1
 57 0 l 1,8,-1
 57 420 l 1,9,-1
 113 420 l 1,10,-1
 113 243 l 1,0,-1
EndSplineSet
EndChar
StartChar: L
Encoding: 76 76 47
Width: 321
Flags: W
Fore
113 47 m 1,0,-1
 318 47 l 1,1,-1
 318 0 l 1,2,-1
 57 0 l 1,3,-1
 57 420 l 1,4,-1
 113 420 l 1,5,-1
 113 47 l 1,0,-1
EndSplineSet
EndChar
StartChar: M
Encoding: 77 77 48
Width: 497
Flags: W
Fore
248 134 m 1,0,-1
 356 420 l 1,1,-1
 442 420 l 1,2,-1
 442 0 l 1,3,-1
 386 0 l 1,4,-1
 386 369 l 1,5,-1
 278 81 l 1,6,-1
 220 81 l 1,7,-1
 111 369 l 1,8,-1
 111 0 l 1,9,-1
 57 0 l 1,10,-1
 57 420 l 1,11,-1
 141 420 l 1,12,-1
 248 134 l 1,0,-1
EndSplineSet
EndChar
StartChar: N
Encoding: 78 78 49
Width: 432
Flags: W
Fore
320 69 m 1,0,-1
 320 420 l 1,1,-1
 375 420 l 1,2,-1
 375 0 l 1,3,-1
 299 0 l 1,4,-1
 111 351 l 1,5,-1
 111 0 l 1,6,-1
 57 0 l 1,7,-1
 57 420 l 1,8,-1
 133 420 l 1,9,-1
 320 69 l 1,0,-1
EndSplineSet
EndChar
StartChar: O
Encoding: 79 79 50
Width: 454
Flags: W
Fore
228 382 m 0,0,1
 165 382 165 382 129 335.5 c 128,-1,2
 93 289 93 289 93 210 c 0,3,4
 93 129 93 129 129 83.5 c 128,-1,5
 165 38 165 38 228 38 c 0,6,7
 289 38 289 38 325.5 83.5 c 128,-1,8
 362 129 362 129 362 210 c 0,9,10
 362 289 362 289 325.5 335.5 c 128,-1,11
 289 382 289 382 228 382 c 0,0,1
228 428 m 0,12,13
 272 428 272 428 307.5 412.5 c 128,-1,14
 343 397 343 397 368.5 368.5 c 128,-1,15
 394 340 394 340 407.5 300 c 128,-1,16
 421 260 421 260 421 210 c 0,17,18
 421 161 421 161 407.5 120.5 c 128,-1,19
 394 80 394 80 368.5 51.5 c 128,-1,20
 343 23 343 23 307.5 7.5 c 128,-1,21
 272 -8 272 -8 228 -8 c 0,22,23
 139 -8 139 -8 85 51 c 0,24,25
 32 110 32 110 32 210 c 0,26,27
 32 309 32 309 85 368 c 0,28,29
 139 428 139 428 228 428 c 0,12,13
EndSplineSet
EndChar
StartChar: P
Encoding: 80 80 51
Width: 348
Flags: W
Fore
185 215 m 2,0,1
 225 215 225 215 246.5 236.5 c 128,-1,2
 268 258 268 258 268 295 c 0,3,4
 268 333 268 333 246.5 353.5 c 128,-1,5
 225 374 225 374 185 374 c 2,6,-1
 113 374 l 1,7,-1
 113 215 l 1,8,-1
 185 215 l 2,0,1
185 420 m 1,9,10
 255 420 255 420 291.5 388 c 128,-1,11
 328 356 328 356 328 295 c 0,12,13
 328 232 328 232 291.5 200.5 c 128,-1,14
 255 169 255 169 185 169 c 2,15,-1
 113 169 l 1,16,-1
 113 0 l 1,17,-1
 57 0 l 1,18,-1
 57 420 l 1,19,-1
 185 420 l 1,20,-1
 185 420 l 1,9,10
EndSplineSet
EndChar
StartChar: Q
Encoding: 81 81 52
Width: 454
Flags: W
Fore
228 382 m 0,0,1
 165 382 165 382 129 335.5 c 128,-1,2
 93 289 93 289 93 210 c 0,3,4
 93 129 93 129 129 83.5 c 128,-1,5
 165 38 165 38 228 38 c 0,6,7
 289 38 289 38 325.5 83.5 c 128,-1,8
 362 129 362 129 362 210 c 0,9,10
 362 289 362 289 325.5 335.5 c 128,-1,11
 289 382 289 382 228 382 c 0,0,1
313 -74 m 1,12,-1
 251 -7 l 1,13,14
 241 -7 241 -7 236.5 -7.5 c 128,-1,15
 232 -8 232 -8 228 -8 c 0,16,17
 139 -8 139 -8 85 51 c 0,18,19
 32 110 32 110 32 210 c 0,20,21
 32 309 32 309 85 368 c 0,22,23
 139 428 139 428 228 428 c 0,24,25
 272 428 272 428 307.5 412.5 c 128,-1,26
 343 397 343 397 368.5 368.5 c 128,-1,27
 394 340 394 340 407.5 300 c 128,-1,28
 421 260 421 260 421 210 c 0,29,30
 421 137 421 137 392.5 84.5 c 128,-1,31
 364 32 364 32 307 7 c 1,32,-1
 382 -74 l 1,33,-1
 313 -74 l 1,12,-1
EndSplineSet
EndChar
StartChar: R
Encoding: 82 82 53
Width: 401
Flags: W
Fore
256 197 m 1,0,1
 292 186 292 186 327 114 c 2,2,-1
 384 0 l 1,3,-1
 322 0 l 1,4,-1
 269 107 l 2,5,6
 259 128 259 128 249.5 142 c 128,-1,7
 240 156 240 156 229 163.5 c 128,-1,8
 218 171 218 171 205 174 c 128,-1,9
 192 177 192 177 175 177 c 2,10,-1
 113 177 l 1,11,-1
 113 0 l 1,12,-1
 57 0 l 1,13,-1
 57 420 l 1,14,-1
 185 420 l 2,15,16
 328 420 328 420 328 300 c 0,17,18
 328 260 328 260 309.5 233.5 c 128,-1,19
 291 207 291 207 256 197 c 1,0,1
185 225 m 2,20,21
 268 225 268 225 268 300 c 0,22,23
 268 374 268 374 185 374 c 2,24,-1
 113 374 l 1,25,-1
 113 225 l 1,26,-1
 185 225 l 2,20,21
EndSplineSet
EndChar
StartChar: S
Encoding: 83 83 54
Width: 366
Flags: W
Fore
309 351 m 1,0,1
 246 382 246 382 193 382 c 0,2,3
 145 382 145 382 120 364 c 128,-1,4
 95 346 95 346 95 313 c 0,5,6
 95 284 95 284 112 270 c 128,-1,7
 129 256 129 256 175 247 c 2,8,-1
 210 240 l 2,9,10
 274 229 274 229 304 198.5 c 128,-1,11
 334 168 334 168 334 116 c 0,12,13
 334 55 334 55 293 23.5 c 128,-1,14
 252 -8 252 -8 173 -8 c 0,15,16
 143 -8 143 -8 109.5 -1.5 c 128,-1,17
 76 5 76 5 40 19 c 1,18,-1
 40 77 l 1,19,20
 74 58 74 58 107.5 48 c 128,-1,21
 141 38 141 38 173 38 c 0,22,23
 221 38 221 38 248 57 c 128,-1,24
 275 76 275 76 275 111 c 0,25,26
 275 143 275 143 255.5 160 c 128,-1,27
 236 177 236 177 194 186 c 2,28,-1
 159 194 l 2,29,30
 95 206 95 206 66.5 233 c 128,-1,31
 38 260 38 260 38 308 c 0,32,33
 38 365 38 365 77 396.5 c 128,-1,34
 116 428 116 428 185 428 c 0,35,36
 215 428 215 428 246 422.5 c 128,-1,37
 277 417 277 417 309 407 c 1,38,-1
 309 351 l 1,39,-1
 309 351 l 1,0,1
EndSplineSet
EndChar
StartChar: T
Encoding: 84 84 55
Width: 352
Flags: W
Fore
354 373 m 1,0,-1
 205 373 l 1,1,-1
 205 0 l 1,2,-1
 147 0 l 1,3,-1
 147 373 l 1,4,-1
 -1 373 l 1,5,-1
 -1 420 l 1,6,-1
 354 420 l 1,7,-1
 354 373 l 1,0,-1
EndSplineSet
EndChar
StartChar: U
Encoding: 85 85 56
Width: 422
Flags: W
Fore
107 165 m 2,0,1
 107 98 107 98 132 68 c 128,-1,2
 157 38 157 38 211 38 c 0,3,4
 266 38 266 38 290.5 68 c 128,-1,5
 315 98 315 98 315 165 c 2,6,-1
 315 420 l 1,7,-1
 372 420 l 1,8,-1
 372 158 l 2,9,10
 372 76 372 76 331 34 c 128,-1,11
 290 -8 290 -8 211 -8 c 256,12,13
 132 -8 132 -8 91 34 c 128,-1,14
 50 76 50 76 50 158 c 2,15,-1
 50 420 l 1,16,-1
 107 420 l 1,17,-1
 107 165 l 2,0,1
EndSplineSet
EndChar
StartChar: V
Encoding: 86 86 57
Width: 394
Flags: W
Fore
64 420 m 1,0,-1
 197 66 l 1,1,-1
 331 420 l 1,2,-1
 389 420 l 1,3,-1
 230 0 l 1,4,-1
 165 0 l 1,5,-1
 4 420 l 1,6,-1
 64 420 l 1,0,-1
EndSplineSet
KernsSLIFO: 36 -50 0 0
EndChar
StartChar: W
Encoding: 87 87 58
Width: 571
Flags: W
Fore
165 65 m 1,0,-1
 253 420 l 1,1,-1
 317 420 l 1,2,-1
 406 65 l 1,3,-1
 493 420 l 1,4,-1
 551 420 l 1,5,-1
 446 0 l 1,6,-1
 374 0 l 1,7,-1
 285 365 l 1,8,-1
 196 0 l 1,9,-1
 125 0 l 1,10,-1
 20 420 l 1,11,-1
 76 420 l 1,12,-1
 165 65 l 1,0,-1
EndSplineSet
EndChar
StartChar: X
Encoding: 88 88 59
Width: 396
Flags: W
Fore
202 264 m 1,0,-1
 307 420 l 1,1,-1
 368 420 l 1,2,-1
 233 218 l 1,3,-1
 377 0 l 1,4,-1
 316 0 l 1,5,-1
 198 179 l 1,6,-1
 78 0 l 1,7,-1
 18 0 l 1,8,-1
 168 225 l 1,9,-1
 36 420 l 1,10,-1
 98 420 l 1,11,-1
 202 264 l 1,0,-1
EndSplineSet
EndChar
StartChar: Y
Encoding: 89 89 60
Width: 352
Flags: W
Fore
176 247 m 1,0,-1
 293 420 l 1,1,-1
 353 420 l 1,2,-1
 205 200 l 1,3,-1
 205 0 l 1,4,-1
 147 0 l 1,5,-1
 147 200 l 1,6,-1
 -1 420 l 1,7,-1
 60 420 l 1,8,-1
 176 247 l 1,0,-1
EndSplineSet
EndChar
StartChar: Z
Encoding: 90 90 61
Width: 396
Flags: W
Fore
363 377 m 1,0,-1
 97 47 l 1,1,-1
 369 47 l 1,2,-1
 369 0 l 1,3,-1
 26 0 l 1,4,-1
 26 43 l 1,5,-1
 291 373 l 1,6,-1
 32 373 l 1,7,-1
 32 420 l 1,8,-1
 363 420 l 1,9,-1
 363 377 l 1,0,-1
EndSplineSet
EndChar
StartChar: bracketleft
Encoding: 91 91 62
Width: 225
Flags: W
Fore
169 398 m 1,0,-1
 102 398 l 1,1,-1
 102 -36 l 1,2,-1
 169 -36 l 1,3,-1
 169 -76 l 1,4,-1
 49 -76 l 1,5,-1
 49 438 l 1,6,-1
 169 438 l 1,7,-1
 169 398 l 1,0,-1
EndSplineSet
EndChar
StartChar: backslash
Encoding: 92 92 63
Width: 194
Flags: W
Fore
146 -54 m 1,0,-1
 0 420 l 1,1,-1
 47 420 l 1,2,-1
 194 -54 l 1,3,-1
 146 -54 l 1,0,-1
EndSplineSet
EndChar
StartChar: bracketright
Encoding: 93 93 64
Width: 225
Flags: W
Fore
56 -76 m 1,0,-1
 56 -36 l 1,1,-1
 124 -36 l 1,2,-1
 124 398 l 1,3,-1
 56 398 l 1,4,-1
 56 438 l 1,5,-1
 175 438 l 1,6,-1
 175 -76 l 1,7,-1
 56 -76 l 1,0,-1
EndSplineSet
EndChar
StartChar: asciicircum
Encoding: 94 94 65
Width: 483
Flags: W
Fore
366 264 m 1,0,-1
 241 375 l 1,1,-1
 117 264 l 1,2,-1
 62 264 l 1,3,-1
 214 420 l 1,4,-1
 269 420 l 1,5,-1
 422 264 l 1,6,-1
 366 264 l 1,0,-1
EndSplineSet
EndChar
StartChar: underscore
Encoding: 95 95 66
Width: 288
Flags: W
Fore
-5 -136 m 1,0,-1
 -5 -96 l 1,1,-1
 295 -96 l 1,2,-1
 295 -136 l 1,3,-1
 -5 -136 l 1,0,-1
EndSplineSet
EndChar
StartChar: grave
Encoding: 96 96 67
Width: 288
Flags: W
Fore
140 356 m 1,0,-1
 47 461 l 1,1,-1
 104 461 l 1,2,-1
 182 356 l 1,3,-1
 140 356 l 1,0,-1
EndSplineSet
EndChar
StartChar: a
Encoding: 97 97 68
Width: 353
Flags: W
Fore
198 159 m 1,0,1
 135 159 135 159 111 144.5 c 128,-1,2
 87 130 87 130 87 95 c 0,3,4
 87 67 87 67 105 51 c 128,-1,5
 123 35 123 35 153 35 c 0,6,7
 198 35 198 35 223.5 65.5 c 128,-1,8
 249 96 249 96 249 147 c 2,9,-1
 249 159 l 1,10,-1
 198 159 l 1,11,-1
 198 159 l 1,0,1
249 0 m 1,12,-1
 249 47 l 1,13,14
 215 -8 215 -8 140 -8 c 0,15,16
 92 -8 92 -8 63.5 19 c 128,-1,17
 35 46 35 46 35 92 c 0,18,19
 35 199 35 199 176 199 c 2,20,-1
 249 199 l 1,21,-1
 249 204 l 2,22,23
 249 240 249 240 225.5 259.5 c 128,-1,24
 202 279 202 279 160 279 c 0,25,26
 105 279 105 279 58 253 c 1,27,-1
 58 301 l 1,28,29
 85 312 85 312 112.5 317 c 128,-1,30
 140 322 140 322 165 322 c 0,31,32
 301 322 301 322 301 180 c 2,33,-1
 301 0 l 1,34,-1
 249 0 l 1,12,-1
EndSplineSet
Substitution: 0 65534 'L019' uni0E38
Substitution: 0 65534 'L019' uni0E38
EndChar
StartChar: b
Encoding: 98 98 69
Width: 366
Flags: W
Fore
280 158 m 0,0,1
 280 215 280 215 257.5 247 c 128,-1,2
 235 279 235 279 193 279 c 256,3,4
 151 279 151 279 128 247 c 128,-1,5
 105 215 105 215 105 158 c 0,6,7
 105 100 105 100 128 67.5 c 128,-1,8
 151 35 151 35 193 35 c 256,9,10
 235 35 235 35 257.5 67.5 c 128,-1,11
 280 100 280 100 280 158 c 0,0,1
105 268 m 1,12,13
 137 322 137 322 205 322 c 0,14,15
 263 322 263 322 299 277.5 c 128,-1,16
 335 233 335 233 335 158 c 256,17,18
 335 83 335 83 299 37.5 c 128,-1,19
 263 -8 263 -8 205 -8 c 0,20,21
 136 -8 136 -8 105 47 c 1,22,-1
 105 0 l 1,23,-1
 53 0 l 1,24,-1
 53 438 l 1,25,-1
 105 438 l 1,26,-1
 105 268 l 1,27,-1
 105 268 l 1,12,13
EndSplineSet
Substitution: 0 65534 'L019' uni0E39
Substitution: 0 65534 'L019' uni0E39
EndChar
StartChar: c
Encoding: 99 99 70
Width: 317
Flags: W
Fore
281 255 m 1,0,1
 239 279 239 279 193 279 c 0,2,3
 142 279 142 279 114.5 247 c 128,-1,4
 87 215 87 215 87 158 c 0,5,6
 87 100 87 100 114.5 68 c 128,-1,7
 142 36 142 36 193 36 c 0,8,9
 215 36 215 36 237.5 41.5 c 128,-1,10
 260 47 260 47 281 60 c 1,11,-1
 281 12 l 1,12,13
 236 -8 236 -8 187 -8 c 0,14,15
 115 -8 115 -8 73.5 36 c 128,-1,16
 32 80 32 80 32 158 c 256,17,18
 32 236 32 236 74 279 c 128,-1,19
 116 322 116 322 191 322 c 0,20,21
 242 322 242 322 281 303 c 1,22,-1
 281 255 l 1,23,-1
 281 255 l 1,0,1
EndSplineSet
Substitution: 0 65534 'L019' uni0E3A
Substitution: 0 65534 'L019' uni0E3A
EndChar
StartChar: d
Encoding: 100 100 71
Width: 366
Flags: W
Fore
314 438 m 1,0,-1
 314 0 l 1,1,-1
 262 0 l 1,2,-1
 262 47 l 1,3,4
 245 20 245 20 220.5 6 c 128,-1,5
 196 -8 196 -8 161 -8 c 0,6,7
 104 -8 104 -8 68 37.5 c 128,-1,8
 32 83 32 83 32 158 c 256,9,10
 32 233 32 233 68 277.5 c 128,-1,11
 104 322 104 322 161 322 c 0,12,13
 196 322 196 322 220.5 309 c 128,-1,14
 245 296 245 296 262 268 c 1,15,-1
 262 438 l 1,16,-1
 314 438 l 1,0,-1
85 158 m 0,17,18
 85 100 85 100 108 67.5 c 128,-1,19
 131 35 131 35 173 35 c 256,20,21
 215 35 215 35 238.5 67.5 c 128,-1,22
 262 100 262 100 262 158 c 0,23,24
 262 215 262 215 238.5 247 c 128,-1,25
 215 279 215 279 173 279 c 256,26,27
 131 279 131 279 108 247 c 128,-1,28
 85 215 85 215 85 158 c 0,17,18
EndSplineSet
EndChar
StartChar: e
Encoding: 101 101 72
Width: 355
Flags: W
Fore
85 145 m 1,0,1
 95 36 95 36 199 36 c 0,2,3
 257 36 257 36 312 65 c 1,4,-1
 312 16 l 1,5,6
 257 -8 257 -8 196 -8 c 0,7,8
 121 -8 121 -8 76.5 35.5 c 128,-1,9
 32 79 32 79 32 155 c 0,10,11
 32 233 32 233 73 277.5 c 128,-1,12
 114 322 114 322 186 322 c 0,13,14
 250 322 250 322 287 281.5 c 128,-1,15
 324 241 324 241 324 171 c 2,16,-1
 324 145 l 1,17,-1
 85 145 l 1,0,1
273 186 m 1,18,19
 272 229 272 229 249 254 c 128,-1,20
 226 279 226 279 187 279 c 0,21,22
 144 279 144 279 118 255 c 128,-1,23
 92 231 92 231 88 185 c 1,24,-1
 273 186 l 1,25,-1
 273 186 l 1,18,19
EndSplineSet
EndChar
StartChar: f
Encoding: 102 102 73
Width: 203
Flags: W
Fore
165 396 m 2,0,1
 137 396 137 396 125.5 384.5 c 128,-1,2
 114 373 114 373 114 343 c 2,3,-1
 114 315 l 1,4,-1
 200 315 l 1,5,-1
 200 275 l 1,6,-1
 114 275 l 1,7,-1
 114 0 l 1,8,-1
 63 0 l 1,9,-1
 63 275 l 1,10,-1
 13 275 l 1,11,-1
 13 315 l 1,12,-1
 63 315 l 1,13,-1
 63 338 l 2,14,15
 63 390 63 390 87 414 c 128,-1,16
 111 438 111 438 165 438 c 2,17,-1
 214 438 l 1,18,-1
 214 396 l 1,19,-1
 165 396 l 2,0,1
EndSplineSet
EndChar
StartChar: g
Encoding: 103 103 74
Width: 366
Flags: W
Fore
262 162 m 0,0,1
 262 217 262 217 238.5 248 c 128,-1,2
 215 279 215 279 173 279 c 256,3,4
 131 279 131 279 108 248 c 128,-1,5
 85 217 85 217 85 162 c 0,6,7
 85 105 85 105 108 74 c 128,-1,8
 131 43 131 43 173 43 c 256,9,10
 215 43 215 43 238.5 74 c 128,-1,11
 262 105 262 105 262 162 c 0,0,1
314 39 m 1,12,13
 314 -121 314 -121 169 -121 c 0,14,15
 141 -121 141 -121 117 -116 c 128,-1,16
 93 -111 93 -111 70 -104 c 1,17,-1
 70 -53 l 1,18,19
 93 -65 93 -65 115 -71 c 128,-1,20
 137 -77 137 -77 161 -77 c 0,21,22
 262 -77 262 -77 262 30 c 2,23,-1
 262 56 l 1,24,25
 230 0 230 0 161 0 c 0,26,27
 103 0 103 0 67.5 44.5 c 128,-1,28
 32 89 32 89 32 162 c 256,29,30
 32 235 32 235 67.5 278.5 c 128,-1,31
 103 322 103 322 161 322 c 0,32,33
 231 322 231 322 262 268 c 1,34,-1
 262 315 l 1,35,-1
 314 315 l 1,36,-1
 314 39 l 1,37,-1
 314 39 l 1,12,13
EndSplineSet
EndChar
StartChar: h
Encoding: 104 104 75
Width: 366
Flags: W
Fore
265 0 m 1,0,-1
 265 188 l 2,1,2
 265 278 265 278 195 278 c 0,3,4
 152 278 152 278 128.5 252 c 128,-1,5
 105 226 105 226 105 178 c 2,6,-1
 105 0 l 1,7,-1
 53 0 l 1,8,-1
 53 438 l 1,9,-1
 105 438 l 1,10,-1
 105 267 l 1,11,12
 142 322 142 322 206 322 c 0,13,14
 261 322 261 322 288.5 288.5 c 128,-1,15
 316 255 316 255 316 191 c 2,16,-1
 316 0 l 1,17,-1
 265 0 l 1,0,-1
EndSplineSet
EndChar
StartChar: i
Encoding: 105 105 76
Width: 161
Flags: W
Fore
106 0 m 1,0,-1
 55 0 l 1,1,-1
 55 315 l 1,2,-1
 106 315 l 1,3,-1
 106 0 l 1,0,-1
106 373 m 1,4,-1
 55 373 l 1,5,-1
 55 438 l 1,6,-1
 106 438 l 1,7,-1
 106 373 l 1,4,-1
EndSplineSet
EndChar
StartChar: j
Encoding: 106 106 77
Width: 161
Flags: W
Fore
106 -5 m 2,0,1
 106 -66 106 -66 83.5 -93.5 c 128,-1,2
 61 -121 61 -121 9 -121 c 2,3,-1
 -10 -121 l 1,4,-1
 -10 -76 l 1,5,-1
 3 -76 l 2,6,7
 33 -76 33 -76 44 -62 c 128,-1,8
 55 -48 55 -48 55 -5 c 2,9,-1
 55 315 l 1,10,-1
 106 315 l 1,11,-1
 106 -5 l 2,0,1
106 373 m 1,12,-1
 55 373 l 1,13,-1
 55 438 l 1,14,-1
 106 438 l 1,15,-1
 106 373 l 1,12,-1
EndSplineSet
EndChar
StartChar: k
Encoding: 107 107 78
Width: 334
Flags: W
Fore
105 179 m 1,0,-1
 259 315 l 1,1,-1
 325 315 l 1,2,-1
 158 168 l 1,3,-1
 333 0 l 1,4,-1
 265 0 l 1,5,-1
 105 153 l 1,6,-1
 105 0 l 1,7,-1
 53 0 l 1,8,-1
 53 438 l 1,9,-1
 105 438 l 1,10,-1
 105 179 l 1,0,-1
EndSplineSet
EndChar
StartChar: l
Encoding: 108 108 79
Width: 161
Flags: W
Fore
106 0 m 1,0,-1
 55 0 l 1,1,-1
 55 438 l 1,2,-1
 106 438 l 1,3,-1
 106 0 l 1,0,-1
EndSplineSet
EndChar
StartChar: m
Encoding: 109 109 80
Width: 561
Flags: W
Fore
300 255 m 1,0,1
 337 322 337 322 410 322 c 0,2,3
 459 322 459 322 486 288 c 128,-1,4
 513 254 513 254 513 191 c 2,5,-1
 513 0 l 1,6,-1
 460 0 l 1,7,-1
 460 188 l 2,8,9
 460 278 460 278 396 278 c 0,10,11
 354 278 354 278 331.5 252 c 128,-1,12
 309 226 309 226 309 178 c 2,13,-1
 309 0 l 1,14,-1
 256 0 l 1,15,-1
 256 188 l 2,16,17
 256 236 256 236 240.5 257 c 128,-1,18
 225 278 225 278 192 278 c 0,19,20
 150 278 150 278 127.5 252 c 128,-1,21
 105 226 105 226 105 178 c 2,22,-1
 105 0 l 1,23,-1
 53 0 l 1,24,-1
 53 315 l 1,25,-1
 105 315 l 1,26,-1
 105 267 l 1,27,28
 123 296 123 296 147.5 309 c 128,-1,29
 172 322 172 322 206 322 c 0,30,31
 276 322 276 322 300 255 c 1,0,1
EndSplineSet
EndChar
StartChar: n
Encoding: 110 110 81
Width: 366
Flags: W
Fore
265 0 m 1,0,-1
 265 188 l 2,1,2
 265 278 265 278 195 278 c 0,3,4
 152 278 152 278 128.5 252 c 128,-1,5
 105 226 105 226 105 178 c 2,6,-1
 105 0 l 1,7,-1
 53 0 l 1,8,-1
 53 315 l 1,9,-1
 105 315 l 1,10,-1
 105 267 l 1,11,12
 142 322 142 322 206 322 c 0,13,14
 261 322 261 322 288.5 288.5 c 128,-1,15
 316 255 316 255 316 191 c 2,16,-1
 316 0 l 1,17,-1
 265 0 l 1,0,-1
EndSplineSet
EndChar
StartChar: o
Encoding: 111 111 82
Width: 353
Flags: W
Fore
176 279 m 256,0,1
 134 279 134 279 110.5 247 c 128,-1,2
 87 215 87 215 87 158 c 256,3,4
 87 101 87 101 110.5 68.5 c 128,-1,5
 134 36 134 36 176 36 c 256,6,7
 218 36 218 36 242.5 68.5 c 128,-1,8
 267 101 267 101 267 158 c 0,9,10
 267 213 267 213 242.5 246 c 128,-1,11
 218 279 218 279 176 279 c 256,0,1
176 322 m 256,12,13
 245 322 245 322 283 279 c 128,-1,14
 321 236 321 236 321 158 c 256,15,16
 321 80 321 80 283 36 c 128,-1,17
 245 -8 245 -8 176 -8 c 256,18,19
 107 -8 107 -8 69.5 36 c 128,-1,20
 32 80 32 80 32 158 c 256,21,22
 32 236 32 236 69.5 279 c 128,-1,23
 107 322 107 322 176 322 c 256,12,13
EndSplineSet
EndChar
StartChar: p
Encoding: 112 112 83
Width: 366
Flags: W
Fore
53 -121 m 1,0,-1
 53 315 l 1,1,-1
 105 315 l 1,2,-1
 105 268 l 1,3,4
 137 322 137 322 205 322 c 0,5,6
 263 322 263 322 299 277.5 c 128,-1,7
 335 233 335 233 335 158 c 256,8,9
 335 83 335 83 299 37.5 c 128,-1,10
 263 -8 263 -8 205 -8 c 0,11,12
 136 -8 136 -8 105 47 c 1,13,-1
 105 -121 l 1,14,-1
 53 -121 l 1,0,-1
280 158 m 0,15,16
 280 215 280 215 257.5 247 c 128,-1,17
 235 279 235 279 193 279 c 256,18,19
 151 279 151 279 128 247 c 128,-1,20
 105 215 105 215 105 158 c 0,21,22
 105 100 105 100 128 67.5 c 128,-1,23
 151 35 151 35 193 35 c 256,24,25
 235 35 235 35 257.5 67.5 c 128,-1,26
 280 100 280 100 280 158 c 0,15,16
EndSplineSet
EndChar
StartChar: q
Encoding: 113 113 84
Width: 366
Flags: W
Fore
85 158 m 0,0,1
 85 100 85 100 108 67.5 c 128,-1,2
 131 35 131 35 173 35 c 256,3,4
 215 35 215 35 238.5 67.5 c 128,-1,5
 262 100 262 100 262 158 c 0,6,7
 262 215 262 215 238.5 247 c 128,-1,8
 215 279 215 279 173 279 c 256,9,10
 131 279 131 279 108 247 c 128,-1,11
 85 215 85 215 85 158 c 0,0,1
262 47 m 1,12,13
 245 20 245 20 220.5 6 c 128,-1,14
 196 -8 196 -8 161 -8 c 0,15,16
 104 -8 104 -8 68 37.5 c 128,-1,17
 32 83 32 83 32 158 c 256,18,19
 32 233 32 233 68 277.5 c 128,-1,20
 104 322 104 322 161 322 c 0,21,22
 196 322 196 322 220.5 309 c 128,-1,23
 245 296 245 296 262 268 c 1,24,-1
 262 315 l 1,25,-1
 314 315 l 1,26,-1
 314 -121 l 1,27,-1
 262 -121 l 1,28,-1
 262 47 l 1,29,-1
 262 47 l 1,12,13
EndSplineSet
EndChar
StartChar: r
Encoding: 114 114 85
Width: 237
Flags: W
Fore
237 267 m 1,0,1
 221 277 221 277 196 277 c 0,2,3
 151 277 151 277 128 248.5 c 128,-1,4
 105 220 105 220 105 166 c 2,5,-1
 105 0 l 1,6,-1
 53 0 l 1,7,-1
 53 315 l 1,8,-1
 105 315 l 1,9,-1
 105 267 l 1,10,11
 121 296 121 296 147 309 c 128,-1,12
 173 322 173 322 211 322 c 0,13,14
 216 322 216 322 222.5 322 c 128,-1,15
 229 322 229 322 237 320 c 1,16,-1
 237 267 l 1,17,-1
 237 267 l 1,0,1
EndSplineSet
EndChar
StartChar: s
Encoding: 115 115 86
Width: 301
Flags: W
Fore
255 258 m 1,0,1
 234 269 234 269 210 274 c 128,-1,2
 186 279 186 279 161 279 c 0,3,4
 83 279 83 279 83 233 c 0,5,6
 83 214 83 214 97 204 c 128,-1,7
 111 194 111 194 152 184 c 2,8,-1
 171 180 l 2,9,10
 226 169 226 169 249.5 147.5 c 128,-1,11
 273 126 273 126 273 87 c 0,12,13
 273 42 273 42 238 17 c 128,-1,14
 203 -8 203 -8 142 -8 c 0,15,16
 89 -8 89 -8 31 11 c 1,17,-1
 31 65 l 1,18,19
 90 35 90 35 143 35 c 0,20,21
 179 35 179 35 199 48 c 128,-1,22
 219 61 219 61 219 83 c 0,23,24
 219 94 219 94 216 101.5 c 128,-1,25
 213 109 213 109 205 115 c 128,-1,26
 197 121 197 121 181.5 126.5 c 128,-1,27
 166 132 166 132 142 137 c 2,28,-1
 125 141 l 2,29,30
 76 151 76 151 55 172.5 c 128,-1,31
 34 194 34 194 34 231 c 0,32,33
 34 276 34 276 65.5 299 c 128,-1,34
 97 322 97 322 155 322 c 0,35,36
 183 322 183 322 208.5 318.5 c 128,-1,37
 234 315 234 315 255 306 c 1,38,-1
 255 258 l 1,39,-1
 255 258 l 1,0,1
EndSplineSet
EndChar
StartChar: t
Encoding: 116 116 87
Width: 227
Flags: W
Fore
212 315 m 1,0,-1
 212 275 l 1,1,-1
 106 275 l 1,2,-1
 106 104 l 2,3,4
 106 65 106 65 116.5 54 c 128,-1,5
 127 43 127 43 159 43 c 2,6,-1
 212 43 l 1,7,-1
 212 0 l 1,8,-1
 159 0 l 2,9,10
 99 0 99 0 76.5 22 c 128,-1,11
 54 44 54 44 54 104 c 2,12,-1
 54 275 l 1,13,-1
 15 275 l 1,14,-1
 15 315 l 1,15,-1
 54 315 l 1,16,-1
 54 405 l 1,17,-1
 106 405 l 1,18,-1
 106 315 l 1,19,-1
 212 315 l 1,0,-1
EndSplineSet
EndChar
StartChar: u
Encoding: 117 117 88
Width: 366
Flags: W
Fore
101 315 m 1,0,-1
 101 127 l 2,1,2
 101 37 101 37 171 37 c 0,3,4
 213 37 213 37 237.5 64 c 128,-1,5
 262 91 262 91 262 137 c 2,6,-1
 262 315 l 1,7,-1
 313 315 l 1,8,-1
 313 0 l 1,9,-1
 262 0 l 1,10,-1
 262 48 l 1,11,12
 242 20 242 20 217.5 6 c 128,-1,13
 193 -8 193 -8 160 -8 c 0,14,15
 48 -8 48 -8 48 125 c 2,16,-1
 48 315 l 1,17,-1
 101 315 l 1,0,-1
EndSplineSet
EndChar
StartChar: v
Encoding: 118 118 89
Width: 342
Flags: W
Fore
171 50 m 1,0,-1
 269 315 l 1,1,-1
 324 315 l 1,2,-1
 206 0 l 1,3,-1
 135 0 l 1,4,-1
 18 315 l 1,5,-1
 72 315 l 1,6,-1
 171 50 l 1,0,-1
EndSplineSet
EndChar
StartChar: w
Encoding: 119 119 90
Width: 472
Flags: W
Fore
141 69 m 1,0,-1
 205 315 l 1,1,-1
 267 315 l 1,2,-1
 332 69 l 1,3,-1
 396 315 l 1,4,-1
 448 315 l 1,5,-1
 365 0 l 1,6,-1
 304 0 l 1,7,-1
 236 259 l 1,8,-1
 168 0 l 1,9,-1
 107 0 l 1,10,-1
 24 315 l 1,11,-1
 76 315 l 1,12,-1
 141 69 l 1,0,-1
EndSplineSet
EndChar
StartChar: x
Encoding: 120 120 91
Width: 342
Flags: W
Fore
322 0 m 1,0,-1
 262 0 l 1,1,-1
 170 124 l 1,2,-1
 78 0 l 1,3,-1
 16 0 l 1,4,-1
 139 165 l 1,5,-1
 27 315 l 1,6,-1
 88 315 l 1,7,-1
 172 203 l 1,8,-1
 255 315 l 1,9,-1
 316 315 l 1,10,-1
 203 162 l 1,11,-1
 322 0 l 1,0,-1
EndSplineSet
EndChar
StartChar: y
Encoding: 121 121 92
Width: 342
Flags: W
Fore
185 -29 m 1,0,1
 175 -57 175 -57 165 -75 c 128,-1,2
 155 -93 155 -93 143.5 -103 c 128,-1,3
 132 -113 132 -113 118 -117 c 128,-1,4
 104 -121 104 -121 87 -121 c 2,5,-1
 45 -121 l 1,6,-1
 45 -76 l 1,7,-1
 76 -76 l 2,8,9
 87 -76 87 -76 95.5 -74.5 c 128,-1,10
 104 -73 104 -73 110.5 -67 c 128,-1,11
 117 -61 117 -61 123 -50 c 128,-1,12
 129 -39 129 -39 135 -19 c 2,13,-1
 145 5 l 1,14,-1
 18 315 l 1,15,-1
 72 315 l 1,16,-1
 171 69 l 1,17,-1
 269 315 l 1,18,-1
 324 315 l 1,19,-1
 185 -29 l 1,20,-1
 185 -29 l 1,0,1
EndSplineSet
EndChar
StartChar: z
Encoding: 122 122 93
Width: 303
Flags: W
Fore
278 268 m 1,0,-1
 83 41 l 1,1,-1
 278 41 l 1,2,-1
 278 0 l 1,3,-1
 25 0 l 1,4,-1
 25 47 l 1,5,-1
 219 274 l 1,6,-1
 32 274 l 1,7,-1
 32 315 l 1,8,-1
 278 315 l 1,9,-1
 278 268 l 1,0,-1
EndSplineSet
EndChar
StartChar: braceleft
Encoding: 123 123 94
Width: 367
Flags: W
Fore
278 -94 m 2,0,1
 207 -94 207 -94 183 -73 c 0,2,3
 160 -53 160 -53 160 10 c 2,4,-1
 160 77 l 2,5,6
 160 119 160 119 144.5 135.5 c 128,-1,7
 129 152 129 152 90 152 c 2,8,-1
 72 152 l 1,9,-1
 72 193 l 1,10,-1
 90 193 l 2,11,12
 130 193 130 193 145 209 c 128,-1,13
 160 225 160 225 160 267 c 2,14,-1
 160 335 l 2,15,16
 160 397 160 397 183 417 c 0,17,18
 207 438 207 438 278 438 c 2,19,-1
 295 438 l 1,20,-1
 295 398 l 1,21,-1
 276 398 l 2,22,23
 256 398 256 398 243.5 395.5 c 128,-1,24
 231 393 231 393 224 385.5 c 128,-1,25
 217 378 217 378 214.5 366 c 128,-1,26
 212 354 212 354 212 334 c 2,27,-1
 212 264 l 2,28,29
 212 219 212 219 199 199 c 128,-1,30
 186 179 186 179 156 172 c 1,31,32
 186 165 186 165 199 145.5 c 128,-1,33
 212 126 212 126 212 81 c 2,34,-1
 212 11 l 2,35,36
 212 -9 212 -9 214.5 -21.5 c 128,-1,37
 217 -34 217 -34 224 -41.5 c 128,-1,38
 231 -49 231 -49 243.5 -51.5 c 128,-1,39
 256 -54 256 -54 276 -54 c 2,40,-1
 295 -54 l 1,41,-1
 295 -94 l 1,42,-1
 278 -94 l 2,0,1
EndSplineSet
EndChar
StartChar: bar
Encoding: 124 124 95
Width: 194
Flags: W
Fore
73 -136 m 1,0,-1
 73 441 l 1,1,-1
 122 441 l 1,2,-1
 122 -136 l 1,3,-1
 73 -136 l 1,0,-1
EndSplineSet
EndChar
StartChar: braceright
Encoding: 125 125 96
Width: 367
Flags: W
Fore
92 -54 m 1,0,1
 131 -54 131 -54 143.5 -41.5 c 128,-1,2
 156 -29 156 -29 156 11 c 2,3,-1
 156 81 l 2,4,5
 156 126 156 126 168 145.5 c 128,-1,6
 180 165 180 165 212 172 c 1,7,8
 180 179 180 179 168 199 c 128,-1,9
 156 219 156 219 156 264 c 2,10,-1
 156 334 l 2,11,12
 156 354 156 354 153.5 366.5 c 128,-1,13
 151 379 151 379 143.5 386 c 128,-1,14
 136 393 136 393 124 395.5 c 128,-1,15
 112 398 112 398 92 398 c 2,16,-1
 72 398 l 1,17,-1
 72 438 l 1,18,-1
 90 438 l 2,19,20
 161 438 161 438 183 417 c 0,21,22
 207 398 207 398 207 335 c 2,23,-1
 207 267 l 2,24,25
 207 225 207 225 222 209 c 128,-1,26
 237 193 237 193 278 193 c 2,27,-1
 295 193 l 1,28,-1
 295 152 l 1,29,-1
 278 152 l 2,30,31
 236 152 236 152 221.5 135.5 c 128,-1,32
 207 119 207 119 207 77 c 2,33,-1
 207 10 l 2,34,35
 207 -54 207 -54 183 -73 c 0,36,37
 161 -94 161 -94 90 -94 c 2,38,-1
 72 -94 l 1,39,-1
 72 -54 l 1,40,-1
 92 -54 l 1,41,-1
 92 -54 l 1,0,1
EndSplineSet
EndChar
StartChar: asciitilde
Encoding: 126 126 97
Width: 483
Flags: W
Fore
422 180 m 1,0,1
 392 158 392 158 367 148.5 c 128,-1,2
 342 139 342 139 315 139 c 0,3,4
 286 139 286 139 243 156 c 1,5,6
 242 157 242 157 238 157 c 1,7,8
 238 158 238 158 237 158 c 256,9,10
 236 158 236 158 235 158.5 c 128,-1,11
 234 159 234 159 232 159 c 1,12,13
 186 176 186 176 162 176 c 0,14,15
 137 176 137 176 113 165.5 c 128,-1,16
 89 155 89 155 62 132 c 1,17,-1
 62 181 l 1,18,19
 91 204 91 204 116 214 c 128,-1,20
 141 224 141 224 169 224 c 0,21,22
 199 224 199 224 241 206 c 1,23,24
 242 205 242 205 245 205 c 1,25,26
 246 204 246 204 247 204 c 0,27,28
 249 204 249 204 251 203 c 0,29,30
 295 185 295 185 321 185 c 0,31,32
 345 185 345 185 369 195.5 c 128,-1,33
 393 206 393 206 422 231 c 1,34,-1
 422 180 l 1,35,-1
 422 180 l 1,0,1
EndSplineSet
EndChar
StartChar: Adieresis
Encoding: 196 196 98
Width: 394
Flags: W
Fore
275 156 m 1,0,-1
 197 365 l 1,1,-1
 121 156 l 1,2,-1
 275 156 l 1,0,-1
389 0 m 1,3,-1
 331 0 l 1,4,-1
 293 107 l 1,5,-1
 103 107 l 1,6,-1
 65 0 l 1,7,-1
 4 0 l 1,8,-1
 165 420 l 1,9,-1
 230 420 l 1,10,-1
 389 0 l 1,3,-1
281 470 m 1,11,-1
 224 470 l 1,12,-1
 224 526 l 1,13,-1
 281 526 l 1,14,-1
 281 470 l 1,11,-1
170 470 m 1,15,-1
 114 470 l 1,16,-1
 114 526 l 1,17,-1
 170 526 l 1,18,-1
 170 470 l 1,15,-1
EndSplineSet
EndChar
StartChar: Aring
Encoding: 197 197 99
Width: 394
Flags: W
Fore
240 458 m 256,0,1
 240 476 240 476 227 488.5 c 128,-1,2
 214 501 214 501 197 501 c 0,3,4
 179 501 179 501 167 488.5 c 128,-1,5
 155 476 155 476 155 458 c 256,6,7
 155 440 155 440 167 427.5 c 128,-1,8
 179 415 179 415 197 415 c 0,9,10
 214 415 214 415 227 427.5 c 128,-1,11
 240 440 240 440 240 458 c 256,0,1
274 156 m 1,12,-1
 197 365 l 1,13,-1
 121 156 l 1,14,-1
 274 156 l 1,12,-1
155 393 m 1,15,16
 121 415 121 415 121 458 c 0,17,18
 121 490 121 490 143 513 c 128,-1,19
 165 536 165 536 197 536 c 0,20,21
 230 536 230 536 252.5 513 c 128,-1,22
 275 490 275 490 275 458 c 0,23,24
 275 416 275 416 240 393 c 1,25,-1
 389 0 l 1,26,-1
 331 0 l 1,27,-1
 293 107 l 1,28,-1
 103 107 l 1,29,-1
 65 0 l 1,30,-1
 4 0 l 1,31,-1
 155 393 l 1,32,-1
 155 393 l 1,15,16
EndSplineSet
EndChar
StartChar: Ccedilla
Encoding: 199 199 100
Width: 403
Flags: W
Fore
372 328 m 1,0,1
 314 381 314 381 241 381 c 0,2,3
 169 381 169 381 131 338 c 128,-1,4
 93 295 93 295 93 210 c 256,5,6
 93 125 93 125 131 82 c 128,-1,7
 169 39 169 39 241 39 c 0,8,9
 314 39 314 39 372 92 c 1,10,-1
 372 32 l 1,11,12
 314 -8 314 -8 238 -8 c 0,13,14
 141 -8 141 -8 86.5 49.5 c 128,-1,15
 32 107 32 107 32 210 c 256,16,17
 32 313 32 313 86.5 370.5 c 128,-1,18
 141 428 141 428 238 428 c 0,19,20
 314 428 314 428 372 388 c 1,21,-1
 372 328 l 1,22,-1
 372 328 l 1,0,1
253 0 m 1,23,24
 268 -18 268 -18 276 -32.5 c 128,-1,25
 284 -47 284 -47 284 -61 c 0,26,27
 284 -111 284 -111 217 -111 c 0,28,29
 203 -111 203 -111 191 -109 c 128,-1,30
 167 -105 l 1,31,-1
 167 -67 l 1,32,33
 177 -72 177 -72 187 -74 c 128,-1,34
 197 -76 197 -76 211 -76 c 0,35,36
 244 -76 244 -76 244 -50 c 0,37,38
 244 -34 244 -34 219 0 c 1,39,-1
 253 0 l 1,40,-1
 253 0 l 1,23,24
EndSplineSet
EndChar
StartChar: Eacute
Encoding: 201 201 101
Width: 365
Flags: W
Fore
322 373 m 1,0,-1
 113 373 l 1,1,-1
 113 248 l 1,2,-1
 314 248 l 1,3,-1
 314 200 l 1,4,-1
 113 200 l 1,5,-1
 113 47 l 1,6,-1
 328 47 l 1,7,-1
 328 0 l 1,8,-1
 57 0 l 1,9,-1
 57 420 l 1,10,-1
 322 420 l 1,11,-1
 322 373 l 1,0,-1
191 460 m 1,12,-1
 149 460 l 1,13,-1
 204 535 l 1,14,-1
 256 535 l 1,15,-1
 191 460 l 1,12,-1
EndSplineSet
EndChar
StartChar: Ntilde
Encoding: 209 209 102
Width: 432
Flags: W
Fore
320 69 m 1,0,-1
 320 420 l 1,1,-1
 375 420 l 1,2,-1
 375 0 l 1,3,-1
 299 0 l 1,4,-1
 111 351 l 1,5,-1
 111 0 l 1,6,-1
 57 0 l 1,7,-1
 57 420 l 1,8,-1
 133 420 l 1,9,-1
 320 69 l 1,0,-1
199 491 m 1,10,11
 186 497 186 497 178 497 c 0,12,13
 158 497 158 497 158 471 c 2,14,-1
 158 470 l 1,15,-1
 123 470 l 1,16,17
 123 497 123 497 137 514 c 128,-1,18
 151 531 151 531 176 531 c 0,19,20
 185 531 185 531 194 528.5 c 128,-1,21
 203 526 203 526 216 519 c 2,22,-1
 233 511 l 1,23,24
 243 504 243 504 252 504 c 0,25,26
 273 504 273 504 273 529 c 2,27,-1
 273 531 l 1,28,-1
 308 531 l 1,29,30
 307 503 307 503 293 486.5 c 128,-1,31
 279 470 279 470 255 470 c 0,32,33
 245 470 245 470 237 472 c 128,-1,34
 229 474 229 474 214 482 c 2,35,-1
 199 491 l 1,36,-1
 199 491 l 1,10,11
EndSplineSet
EndChar
StartChar: Odieresis
Encoding: 214 214 103
Width: 454
Flags: W
Fore
228 382 m 0,0,1
 165 382 165 382 129 335.5 c 128,-1,2
 93 289 93 289 93 210 c 0,3,4
 93 129 93 129 129 83.5 c 128,-1,5
 165 38 165 38 228 38 c 0,6,7
 289 38 289 38 325.5 83.5 c 128,-1,8
 362 129 362 129 362 210 c 0,9,10
 362 289 362 289 325.5 335.5 c 128,-1,11
 289 382 289 382 228 382 c 0,0,1
228 428 m 0,12,13
 272 428 272 428 307.5 412.5 c 128,-1,14
 343 397 343 397 368.5 368.5 c 128,-1,15
 394 340 394 340 407.5 300 c 128,-1,16
 421 260 421 260 421 210 c 0,17,18
 421 161 421 161 407.5 120.5 c 128,-1,19
 394 80 394 80 368.5 51.5 c 128,-1,20
 343 23 343 23 307.5 7.5 c 128,-1,21
 272 -8 272 -8 228 -8 c 0,22,23
 139 -8 139 -8 85 51 c 0,24,25
 32 110 32 110 32 210 c 0,26,27
 32 309 32 309 85 368 c 0,28,29
 139 428 139 428 228 428 c 0,12,13
311 470 m 1,30,-1
 254 470 l 1,31,-1
 254 526 l 1,32,-1
 311 526 l 1,33,-1
 311 470 l 1,30,-1
200 470 m 1,34,-1
 144 470 l 1,35,-1
 144 526 l 1,36,-1
 200 526 l 1,37,-1
 200 470 l 1,34,-1
EndSplineSet
EndChar
StartChar: Udieresis
Encoding: 220 220 104
Width: 422
Flags: W
Fore
107 165 m 2,0,1
 107 98 107 98 132 68 c 128,-1,2
 157 38 157 38 211 38 c 0,3,4
 266 38 266 38 290.5 68 c 128,-1,5
 315 98 315 98 315 165 c 2,6,-1
 315 420 l 1,7,-1
 372 420 l 1,8,-1
 372 158 l 2,9,10
 372 76 372 76 331 34 c 128,-1,11
 290 -8 290 -8 211 -8 c 256,12,13
 132 -8 132 -8 91 34 c 128,-1,14
 50 76 50 76 50 158 c 2,15,-1
 50 420 l 1,16,-1
 107 420 l 1,17,-1
 107 165 l 2,0,1
295 470 m 1,18,-1
 238 470 l 1,19,-1
 238 526 l 1,20,-1
 295 526 l 1,21,-1
 295 470 l 1,18,-1
184 470 m 1,22,-1
 128 470 l 1,23,-1
 128 526 l 1,24,-1
 184 526 l 1,25,-1
 184 470 l 1,22,-1
EndSplineSet
EndChar
StartChar: aacute
Encoding: 225 225 105
Width: 353
Flags: W
Fore
198 159 m 1,0,1
 135 159 135 159 111 144.5 c 128,-1,2
 87 130 87 130 87 95 c 0,3,4
 87 67 87 67 105 51 c 128,-1,5
 123 35 123 35 153 35 c 0,6,7
 198 35 198 35 223.5 65.5 c 128,-1,8
 249 96 249 96 249 147 c 2,9,-1
 249 159 l 1,10,-1
 198 159 l 1,11,-1
 198 159 l 1,0,1
249 0 m 1,12,-1
 249 47 l 1,13,14
 215 -8 215 -8 140 -8 c 0,15,16
 92 -8 92 -8 63.5 19 c 128,-1,17
 35 46 35 46 35 92 c 0,18,19
 35 199 35 199 176 199 c 2,20,-1
 249 199 l 1,21,-1
 249 204 l 2,22,23
 249 240 249 240 225.5 259.5 c 128,-1,24
 202 279 202 279 160 279 c 0,25,26
 105 279 105 279 58 253 c 1,27,-1
 58 301 l 1,28,29
 85 312 85 312 112.5 317 c 128,-1,30
 140 322 140 322 165 322 c 0,31,32
 301 322 301 322 301 180 c 2,33,-1
 301 0 l 1,34,-1
 249 0 l 1,12,-1
170 355 m 1,35,-1
 128 355 l 1,36,-1
 206 461 l 1,37,-1
 262 461 l 1,38,-1
 170 355 l 1,35,-1
EndSplineSet
EndChar
StartChar: agrave
Encoding: 224 224 106
Width: 353
Flags: W
Fore
198 159 m 1,0,1
 135 159 135 159 111 144.5 c 128,-1,2
 87 130 87 130 87 95 c 0,3,4
 87 67 87 67 105 51 c 128,-1,5
 123 35 123 35 153 35 c 0,6,7
 198 35 198 35 223.5 65.5 c 128,-1,8
 249 96 249 96 249 147 c 2,9,-1
 249 159 l 1,10,-1
 198 159 l 1,11,-1
 198 159 l 1,0,1
249 0 m 1,12,-1
 249 47 l 1,13,14
 215 -8 215 -8 140 -8 c 0,15,16
 92 -8 92 -8 63.5 19 c 128,-1,17
 35 46 35 46 35 92 c 0,18,19
 35 199 35 199 176 199 c 2,20,-1
 249 199 l 1,21,-1
 249 204 l 2,22,23
 249 240 249 240 225.5 259.5 c 128,-1,24
 202 279 202 279 160 279 c 0,25,26
 105 279 105 279 58 253 c 1,27,-1
 58 301 l 1,28,29
 85 312 85 312 112.5 317 c 128,-1,30
 140 322 140 322 165 322 c 0,31,32
 301 322 301 322 301 180 c 2,33,-1
 301 0 l 1,34,-1
 249 0 l 1,12,-1
163 356 m 1,35,-1
 70 461 l 1,36,-1
 127 461 l 1,37,-1
 205 356 l 1,38,-1
 163 356 l 1,35,-1
EndSplineSet
EndChar
StartChar: acircumflex
Encoding: 226 226 107
Width: 353
Flags: W
Fore
198 159 m 1,0,1
 135 159 135 159 111 144.5 c 128,-1,2
 87 130 87 130 87 95 c 0,3,4
 87 67 87 67 105 51 c 128,-1,5
 123 35 123 35 153 35 c 0,6,7
 198 35 198 35 223.5 65.5 c 128,-1,8
 249 96 249 96 249 147 c 2,9,-1
 249 159 l 1,10,-1
 198 159 l 1,11,-1
 198 159 l 1,0,1
249 0 m 1,12,-1
 249 47 l 1,13,14
 215 -8 215 -8 140 -8 c 0,15,16
 92 -8 92 -8 63.5 19 c 128,-1,17
 35 46 35 46 35 92 c 0,18,19
 35 199 35 199 176 199 c 2,20,-1
 249 199 l 1,21,-1
 249 204 l 2,22,23
 249 240 249 240 225.5 259.5 c 128,-1,24
 202 279 202 279 160 279 c 0,25,26
 105 279 105 279 58 253 c 1,27,-1
 58 301 l 1,28,29
 85 312 85 312 112.5 317 c 128,-1,30
 140 322 140 322 165 322 c 0,31,32
 301 322 301 322 301 180 c 2,33,-1
 301 0 l 1,34,-1
 249 0 l 1,12,-1
257 355 m 1,35,-1
 218 355 l 1,36,-1
 167 424 l 1,37,-1
 117 355 l 1,38,-1
 78 355 l 1,39,-1
 147 461 l 1,40,-1
 188 461 l 1,41,-1
 257 355 l 1,35,-1
EndSplineSet
EndChar
StartChar: adieresis
Encoding: 228 228 108
Width: 353
Flags: W
Fore
198 159 m 1,0,1
 135 159 135 159 111 144.5 c 128,-1,2
 87 130 87 130 87 95 c 0,3,4
 87 67 87 67 105 51 c 128,-1,5
 123 35 123 35 153 35 c 0,6,7
 198 35 198 35 223.5 65.5 c 128,-1,8
 249 96 249 96 249 147 c 2,9,-1
 249 159 l 1,10,-1
 198 159 l 1,11,-1
 198 159 l 1,0,1
249 0 m 1,12,-1
 249 47 l 1,13,14
 215 -8 215 -8 140 -8 c 0,15,16
 92 -8 92 -8 63.5 19 c 128,-1,17
 35 46 35 46 35 92 c 0,18,19
 35 199 35 199 176 199 c 2,20,-1
 249 199 l 1,21,-1
 249 204 l 2,22,23
 249 240 249 240 225.5 259.5 c 128,-1,24
 202 279 202 279 160 279 c 0,25,26
 105 279 105 279 58 253 c 1,27,-1
 58 301 l 1,28,29
 85 312 85 312 112.5 317 c 128,-1,30
 140 322 140 322 165 322 c 0,31,32
 301 322 301 322 301 180 c 2,33,-1
 301 0 l 1,34,-1
 249 0 l 1,12,-1
251 380 m 1,35,-1
 194 380 l 1,36,-1
 194 437 l 1,37,-1
 251 437 l 1,38,-1
 251 380 l 1,35,-1
140 380 m 1,39,-1
 84 380 l 1,40,-1
 84 437 l 1,41,-1
 140 437 l 1,42,-1
 140 380 l 1,39,-1
EndSplineSet
EndChar
StartChar: atilde
Encoding: 227 227 109
Width: 353
Flags: W
Fore
198 159 m 1,0,1
 135 159 135 159 111 144.5 c 128,-1,2
 87 130 87 130 87 95 c 0,3,4
 87 67 87 67 105 51 c 128,-1,5
 123 35 123 35 153 35 c 0,6,7
 198 35 198 35 223.5 65.5 c 128,-1,8
 249 96 249 96 249 147 c 2,9,-1
 249 159 l 1,10,-1
 198 159 l 1,11,-1
 198 159 l 1,0,1
249 0 m 1,12,-1
 249 47 l 1,13,14
 215 -8 215 -8 140 -8 c 0,15,16
 92 -8 92 -8 63.5 19 c 128,-1,17
 35 46 35 46 35 92 c 0,18,19
 35 199 35 199 176 199 c 2,20,-1
 249 199 l 1,21,-1
 249 204 l 2,22,23
 249 240 249 240 225.5 259.5 c 128,-1,24
 202 279 202 279 160 279 c 0,25,26
 105 279 105 279 58 253 c 1,27,-1
 58 301 l 1,28,29
 85 312 85 312 112.5 317 c 128,-1,30
 140 322 140 322 165 322 c 0,31,32
 301 322 301 322 301 180 c 2,33,-1
 301 0 l 1,34,-1
 249 0 l 1,12,-1
151 402 m 1,35,36
 138 412 138 412 130 412 c 0,37,38
 110 412 110 412 110 369 c 1,39,-1
 75 369 l 1,40,41
 75 448 75 448 129 448 c 0,42,43
 149 448 149 448 168 431 c 2,44,-1
 185 415 l 2,45,46
 195 405 195 405 203 405 c 0,47,48
 215 405 215 405 219.5 415 c 128,-1,49
 224 425 224 425 225 448 c 1,50,-1
 260 448 l 1,51,52
 259 369 259 369 205 369 c 0,53,54
 185 369 185 369 166 386 c 2,55,-1
 151 402 l 1,56,-1
 151 402 l 1,35,36
EndSplineSet
EndChar
StartChar: aring
Encoding: 229 229 110
Width: 353
Flags: W
Fore
198 159 m 1,0,1
 135 159 135 159 111 144.5 c 128,-1,2
 87 130 87 130 87 95 c 0,3,4
 87 67 87 67 105 51 c 128,-1,5
 123 35 123 35 153 35 c 0,6,7
 198 35 198 35 223.5 65.5 c 128,-1,8
 249 96 249 96 249 147 c 2,9,-1
 249 159 l 1,10,-1
 198 159 l 1,11,-1
 198 159 l 1,0,1
249 0 m 1,12,-1
 249 47 l 1,13,14
 215 -8 215 -8 140 -8 c 0,15,16
 92 -8 92 -8 63.5 19 c 128,-1,17
 35 46 35 46 35 92 c 0,18,19
 35 199 35 199 176 199 c 2,20,-1
 249 199 l 1,21,-1
 249 204 l 2,22,23
 249 240 249 240 225.5 259.5 c 128,-1,24
 202 279 202 279 160 279 c 0,25,26
 105 279 105 279 58 253 c 1,27,-1
 58 301 l 1,28,29
 85 312 85 312 112.5 317 c 128,-1,30
 140 322 140 322 165 322 c 0,31,32
 301 322 301 322 301 180 c 2,33,-1
 301 0 l 1,34,-1
 249 0 l 1,12,-1
210 430 m 0,35,36
 210 447 210 447 198 459.5 c 128,-1,37
 186 472 186 472 167 472 c 0,38,39
 149 472 149 472 137 459.5 c 128,-1,40
 125 447 125 447 125 430 c 0,41,42
 125 411 125 411 137 398.5 c 128,-1,43
 149 386 149 386 167 386 c 0,44,45
 186 386 186 386 198 398.5 c 128,-1,46
 210 411 210 411 210 430 c 0,35,36
244 430 m 0,47,48
 244 397 244 397 221.5 374 c 128,-1,49
 199 351 199 351 167 351 c 0,50,51
 134 351 134 351 112 374 c 128,-1,52
 90 397 90 397 90 430 c 0,53,54
 90 461 90 461 112 484 c 128,-1,55
 134 507 134 507 167 507 c 0,56,57
 183 507 183 507 197 500.5 c 128,-1,58
 211 494 211 494 221.5 483.5 c 128,-1,59
 232 473 232 473 238 459 c 128,-1,60
 244 445 244 445 244 430 c 0,47,48
EndSplineSet
EndChar
StartChar: ccedilla
Encoding: 231 231 111
Width: 317
Flags: W
Fore
281 255 m 1,0,1
 239 279 239 279 193 279 c 0,2,3
 142 279 142 279 114.5 247 c 128,-1,4
 87 215 87 215 87 158 c 0,5,6
 87 100 87 100 114.5 68 c 128,-1,7
 142 36 142 36 193 36 c 0,8,9
 215 36 215 36 237.5 41.5 c 128,-1,10
 260 47 260 47 281 60 c 1,11,-1
 281 12 l 1,12,13
 236 -8 236 -8 187 -8 c 0,14,15
 115 -8 115 -8 73.5 36 c 128,-1,16
 32 80 32 80 32 158 c 256,17,18
 32 236 32 236 74 279 c 128,-1,19
 116 322 116 322 191 322 c 0,20,21
 242 322 242 322 281 303 c 1,22,-1
 281 255 l 1,23,-1
 281 255 l 1,0,1
208 0 m 1,24,25
 223 -18 223 -18 231 -32.5 c 128,-1,26
 239 -47 239 -47 239 -61 c 0,27,28
 239 -111 239 -111 172 -111 c 0,29,30
 158 -111 158 -111 146 -109 c 128,-1,31
 122 -105 l 1,32,-1
 122 -67 l 1,33,34
 132 -72 132 -72 142 -74 c 128,-1,35
 152 -76 152 -76 166 -76 c 0,36,37
 199 -76 199 -76 199 -50 c 0,38,39
 199 -34 199 -34 174 0 c 1,40,-1
 208 0 l 1,41,-1
 208 0 l 1,24,25
EndSplineSet
EndChar
StartChar: eacute
Encoding: 233 233 112
Width: 355
Flags: W
Fore
85 145 m 1,0,1
 95 36 95 36 199 36 c 0,2,3
 257 36 257 36 312 65 c 1,4,-1
 312 16 l 1,5,6
 257 -8 257 -8 196 -8 c 0,7,8
 121 -8 121 -8 76.5 35.5 c 128,-1,9
 32 79 32 79 32 155 c 0,10,11
 32 233 32 233 73 277.5 c 128,-1,12
 114 322 114 322 186 322 c 0,13,14
 250 322 250 322 287 281.5 c 128,-1,15
 324 241 324 241 324 171 c 2,16,-1
 324 145 l 1,17,-1
 85 145 l 1,0,1
273 186 m 1,18,19
 272 229 272 229 249 254 c 128,-1,20
 226 279 226 279 187 279 c 0,21,22
 144 279 144 279 118 255 c 128,-1,23
 92 231 92 231 88 185 c 1,24,-1
 273 186 l 1,25,-1
 273 186 l 1,18,19
186 355 m 1,26,-1
 144 355 l 1,27,-1
 222 461 l 1,28,-1
 278 461 l 1,29,-1
 186 355 l 1,26,-1
EndSplineSet
EndChar
StartChar: egrave
Encoding: 232 232 113
Width: 355
Flags: W
Fore
85 145 m 1,0,1
 95 36 95 36 199 36 c 0,2,3
 257 36 257 36 312 65 c 1,4,-1
 312 16 l 1,5,6
 257 -8 257 -8 196 -8 c 0,7,8
 121 -8 121 -8 76.5 35.5 c 128,-1,9
 32 79 32 79 32 155 c 0,10,11
 32 233 32 233 73 277.5 c 128,-1,12
 114 322 114 322 186 322 c 0,13,14
 250 322 250 322 287 281.5 c 128,-1,15
 324 241 324 241 324 171 c 2,16,-1
 324 145 l 1,17,-1
 85 145 l 1,0,1
273 186 m 1,18,19
 272 229 272 229 249 254 c 128,-1,20
 226 279 226 279 187 279 c 0,21,22
 144 279 144 279 118 255 c 128,-1,23
 92 231 92 231 88 185 c 1,24,-1
 273 186 l 1,25,-1
 273 186 l 1,18,19
179 356 m 1,26,-1
 86 461 l 1,27,-1
 143 461 l 1,28,-1
 221 356 l 1,29,-1
 179 356 l 1,26,-1
EndSplineSet
EndChar
StartChar: ecircumflex
Encoding: 234 234 114
Width: 355
Flags: W
Fore
85 145 m 1,0,1
 95 36 95 36 199 36 c 0,2,3
 257 36 257 36 312 65 c 1,4,-1
 312 16 l 1,5,6
 257 -8 257 -8 196 -8 c 0,7,8
 121 -8 121 -8 76.5 35.5 c 128,-1,9
 32 79 32 79 32 155 c 0,10,11
 32 233 32 233 73 277.5 c 128,-1,12
 114 322 114 322 186 322 c 0,13,14
 250 322 250 322 287 281.5 c 128,-1,15
 324 241 324 241 324 171 c 2,16,-1
 324 145 l 1,17,-1
 85 145 l 1,0,1
273 186 m 1,18,19
 272 229 272 229 249 254 c 128,-1,20
 226 279 226 279 187 279 c 0,21,22
 144 279 144 279 118 255 c 128,-1,23
 92 231 92 231 88 185 c 1,24,-1
 273 186 l 1,25,-1
 273 186 l 1,18,19
273 355 m 1,26,-1
 234 355 l 1,27,-1
 183 424 l 1,28,-1
 133 355 l 1,29,-1
 94 355 l 1,30,-1
 163 461 l 1,31,-1
 204 461 l 1,32,-1
 273 355 l 1,26,-1
EndSplineSet
EndChar
StartChar: edieresis
Encoding: 235 235 115
Width: 355
Flags: W
Fore
85 145 m 1,0,1
 95 36 95 36 199 36 c 0,2,3
 257 36 257 36 312 65 c 1,4,-1
 312 16 l 1,5,6
 257 -8 257 -8 196 -8 c 0,7,8
 121 -8 121 -8 76.5 35.5 c 128,-1,9
 32 79 32 79 32 155 c 0,10,11
 32 233 32 233 73 277.5 c 128,-1,12
 114 322 114 322 186 322 c 0,13,14
 250 322 250 322 287 281.5 c 128,-1,15
 324 241 324 241 324 171 c 2,16,-1
 324 145 l 1,17,-1
 85 145 l 1,0,1
273 186 m 1,18,19
 272 229 272 229 249 254 c 128,-1,20
 226 279 226 279 187 279 c 0,21,22
 144 279 144 279 118 255 c 128,-1,23
 92 231 92 231 88 185 c 1,24,-1
 273 186 l 1,25,-1
 273 186 l 1,18,19
267 380 m 1,26,-1
 210 380 l 1,27,-1
 210 437 l 1,28,-1
 267 437 l 1,29,-1
 267 380 l 1,26,-1
156 380 m 1,30,-1
 100 380 l 1,31,-1
 100 437 l 1,32,-1
 156 437 l 1,33,-1
 156 380 l 1,30,-1
EndSplineSet
EndChar
StartChar: iacute
Encoding: 237 237 116
Width: 161
Flags: W
Fore
106 0 m 1,0,-1
 55 0 l 1,1,-1
 55 315 l 1,2,-1
 106 315 l 1,3,-1
 106 0 l 1,0,-1
87 355 m 1,4,-1
 45 355 l 1,5,-1
 123 461 l 1,6,-1
 179 461 l 1,7,-1
 87 355 l 1,4,-1
EndSplineSet
EndChar
StartChar: igrave
Encoding: 236 236 117
Width: 161
Flags: W
Fore
106 0 m 1,0,-1
 55 0 l 1,1,-1
 55 315 l 1,2,-1
 106 315 l 1,3,-1
 106 0 l 1,0,-1
80 356 m 1,4,-1
 -13 461 l 1,5,-1
 44 461 l 1,6,-1
 122 356 l 1,7,-1
 80 356 l 1,4,-1
EndSplineSet
EndChar
StartChar: icircumflex
Encoding: 238 238 118
Width: 161
Flags: W
Fore
106 0 m 1,0,-1
 55 0 l 1,1,-1
 55 315 l 1,2,-1
 106 315 l 1,3,-1
 106 0 l 1,0,-1
174 355 m 1,4,-1
 135 355 l 1,5,-1
 84 424 l 1,6,-1
 34 355 l 1,7,-1
 -5 355 l 1,8,-1
 64 461 l 1,9,-1
 105 461 l 1,10,-1
 174 355 l 1,4,-1
EndSplineSet
EndChar
StartChar: idieresis
Encoding: 239 239 119
Width: 161
Flags: W
Fore
106 0 m 1,0,-1
 55 0 l 1,1,-1
 55 315 l 1,2,-1
 106 315 l 1,3,-1
 106 0 l 1,0,-1
168 380 m 1,4,-1
 111 380 l 1,5,-1
 111 437 l 1,6,-1
 168 437 l 1,7,-1
 168 380 l 1,4,-1
57 380 m 1,8,-1
 1 380 l 1,9,-1
 1 437 l 1,10,-1
 57 437 l 1,11,-1
 57 380 l 1,8,-1
EndSplineSet
EndChar
StartChar: ntilde
Encoding: 241 241 120
Width: 366
Flags: W
Fore
265 0 m 1,0,-1
 265 188 l 2,1,2
 265 278 265 278 195 278 c 0,3,4
 152 278 152 278 128.5 252 c 128,-1,5
 105 226 105 226 105 178 c 2,6,-1
 105 0 l 1,7,-1
 53 0 l 1,8,-1
 53 315 l 1,9,-1
 105 315 l 1,10,-1
 105 267 l 1,11,12
 142 322 142 322 206 322 c 0,13,14
 261 322 261 322 288.5 288.5 c 128,-1,15
 316 255 316 255 316 191 c 2,16,-1
 316 0 l 1,17,-1
 265 0 l 1,0,-1
171 402 m 1,18,19
 158 412 158 412 150 412 c 0,20,21
 130 412 130 412 130 369 c 1,22,-1
 95 369 l 1,23,24
 95 448 95 448 149 448 c 0,25,26
 169 448 169 448 188 431 c 2,27,-1
 205 415 l 2,28,29
 215 405 215 405 223 405 c 0,30,31
 235 405 235 405 239.5 415 c 128,-1,32
 244 425 244 425 245 448 c 1,33,-1
 280 448 l 1,34,35
 279 369 279 369 225 369 c 0,36,37
 205 369 205 369 186 386 c 2,38,-1
 171 402 l 1,39,-1
 171 402 l 1,18,19
EndSplineSet
EndChar
StartChar: oacute
Encoding: 243 243 121
Width: 353
Flags: W
Fore
176 279 m 256,0,1
 134 279 134 279 110.5 247 c 128,-1,2
 87 215 87 215 87 158 c 256,3,4
 87 101 87 101 110.5 68.5 c 128,-1,5
 134 36 134 36 176 36 c 256,6,7
 218 36 218 36 242.5 68.5 c 128,-1,8
 267 101 267 101 267 158 c 0,9,10
 267 213 267 213 242.5 246 c 128,-1,11
 218 279 218 279 176 279 c 256,0,1
176 322 m 256,12,13
 245 322 245 322 283 279 c 128,-1,14
 321 236 321 236 321 158 c 256,15,16
 321 80 321 80 283 36 c 128,-1,17
 245 -8 245 -8 176 -8 c 256,18,19
 107 -8 107 -8 69.5 36 c 128,-1,20
 32 80 32 80 32 158 c 256,21,22
 32 236 32 236 69.5 279 c 128,-1,23
 107 322 107 322 176 322 c 256,12,13
179 355 m 1,24,-1
 137 355 l 1,25,-1
 215 461 l 1,26,-1
 271 461 l 1,27,-1
 179 355 l 1,24,-1
EndSplineSet
EndChar
StartChar: ograve
Encoding: 242 242 122
Width: 353
Flags: W
Fore
176 279 m 256,0,1
 134 279 134 279 110.5 247 c 128,-1,2
 87 215 87 215 87 158 c 256,3,4
 87 101 87 101 110.5 68.5 c 128,-1,5
 134 36 134 36 176 36 c 256,6,7
 218 36 218 36 242.5 68.5 c 128,-1,8
 267 101 267 101 267 158 c 0,9,10
 267 213 267 213 242.5 246 c 128,-1,11
 218 279 218 279 176 279 c 256,0,1
176 322 m 256,12,13
 245 322 245 322 283 279 c 128,-1,14
 321 236 321 236 321 158 c 256,15,16
 321 80 321 80 283 36 c 128,-1,17
 245 -8 245 -8 176 -8 c 256,18,19
 107 -8 107 -8 69.5 36 c 128,-1,20
 32 80 32 80 32 158 c 256,21,22
 32 236 32 236 69.5 279 c 128,-1,23
 107 322 107 322 176 322 c 256,12,13
172 356 m 1,24,-1
 79 461 l 1,25,-1
 136 461 l 1,26,-1
 214 356 l 1,27,-1
 172 356 l 1,24,-1
EndSplineSet
EndChar
StartChar: ocircumflex
Encoding: 244 244 123
Width: 353
Flags: W
Fore
176 279 m 256,0,1
 134 279 134 279 110.5 247 c 128,-1,2
 87 215 87 215 87 158 c 256,3,4
 87 101 87 101 110.5 68.5 c 128,-1,5
 134 36 134 36 176 36 c 256,6,7
 218 36 218 36 242.5 68.5 c 128,-1,8
 267 101 267 101 267 158 c 0,9,10
 267 213 267 213 242.5 246 c 128,-1,11
 218 279 218 279 176 279 c 256,0,1
176 322 m 256,12,13
 245 322 245 322 283 279 c 128,-1,14
 321 236 321 236 321 158 c 256,15,16
 321 80 321 80 283 36 c 128,-1,17
 245 -8 245 -8 176 -8 c 256,18,19
 107 -8 107 -8 69.5 36 c 128,-1,20
 32 80 32 80 32 158 c 256,21,22
 32 236 32 236 69.5 279 c 128,-1,23
 107 322 107 322 176 322 c 256,12,13
266 355 m 1,24,-1
 227 355 l 1,25,-1
 176 424 l 1,26,-1
 126 355 l 1,27,-1
 87 355 l 1,28,-1
 156 461 l 1,29,-1
 197 461 l 1,30,-1
 266 355 l 1,24,-1
EndSplineSet
EndChar
StartChar: odieresis
Encoding: 246 246 124
Width: 353
Flags: W
Fore
176 279 m 256,0,1
 134 279 134 279 110.5 247 c 128,-1,2
 87 215 87 215 87 158 c 256,3,4
 87 101 87 101 110.5 68.5 c 128,-1,5
 134 36 134 36 176 36 c 256,6,7
 218 36 218 36 242.5 68.5 c 128,-1,8
 267 101 267 101 267 158 c 0,9,10
 267 213 267 213 242.5 246 c 128,-1,11
 218 279 218 279 176 279 c 256,0,1
176 322 m 256,12,13
 245 322 245 322 283 279 c 128,-1,14
 321 236 321 236 321 158 c 256,15,16
 321 80 321 80 283 36 c 128,-1,17
 245 -8 245 -8 176 -8 c 256,18,19
 107 -8 107 -8 69.5 36 c 128,-1,20
 32 80 32 80 32 158 c 256,21,22
 32 236 32 236 69.5 279 c 128,-1,23
 107 322 107 322 176 322 c 256,12,13
260 380 m 1,24,-1
 203 380 l 1,25,-1
 203 437 l 1,26,-1
 260 437 l 1,27,-1
 260 380 l 1,24,-1
149 380 m 1,28,-1
 93 380 l 1,29,-1
 93 437 l 1,30,-1
 149 437 l 1,31,-1
 149 380 l 1,28,-1
EndSplineSet
EndChar
StartChar: otilde
Encoding: 245 245 125
Width: 353
Flags: W
Fore
176 279 m 256,0,1
 134 279 134 279 110.5 247 c 128,-1,2
 87 215 87 215 87 158 c 256,3,4
 87 101 87 101 110.5 68.5 c 128,-1,5
 134 36 134 36 176 36 c 256,6,7
 218 36 218 36 242.5 68.5 c 128,-1,8
 267 101 267 101 267 158 c 0,9,10
 267 213 267 213 242.5 246 c 128,-1,11
 218 279 218 279 176 279 c 256,0,1
176 322 m 256,12,13
 245 322 245 322 283 279 c 128,-1,14
 321 236 321 236 321 158 c 256,15,16
 321 80 321 80 283 36 c 128,-1,17
 245 -8 245 -8 176 -8 c 256,18,19
 107 -8 107 -8 69.5 36 c 128,-1,20
 32 80 32 80 32 158 c 256,21,22
 32 236 32 236 69.5 279 c 128,-1,23
 107 322 107 322 176 322 c 256,12,13
160 402 m 1,24,25
 147 412 147 412 139 412 c 0,26,27
 119 412 119 412 119 369 c 1,28,-1
 84 369 l 1,29,30
 84 448 84 448 138 448 c 0,31,32
 158 448 158 448 177 431 c 2,33,-1
 194 415 l 2,34,35
 204 405 204 405 212 405 c 0,36,37
 224 405 224 405 228.5 415 c 128,-1,38
 233 425 233 425 234 448 c 1,39,-1
 269 448 l 1,40,41
 268 369 268 369 214 369 c 0,42,43
 194 369 194 369 175 386 c 2,44,-1
 160 402 l 1,45,-1
 160 402 l 1,24,25
EndSplineSet
EndChar
StartChar: uacute
Encoding: 250 250 126
Width: 366
Flags: W
Fore
101 315 m 1,0,-1
 101 127 l 2,1,2
 101 37 101 37 171 37 c 0,3,4
 213 37 213 37 237.5 64 c 128,-1,5
 262 91 262 91 262 137 c 2,6,-1
 262 315 l 1,7,-1
 313 315 l 1,8,-1
 313 0 l 1,9,-1
 262 0 l 1,10,-1
 262 48 l 1,11,12
 242 20 242 20 217.5 6 c 128,-1,13
 193 -8 193 -8 160 -8 c 0,14,15
 48 -8 48 -8 48 125 c 2,16,-1
 48 315 l 1,17,-1
 101 315 l 1,0,-1
182 355 m 1,18,-1
 140 355 l 1,19,-1
 218 461 l 1,20,-1
 274 461 l 1,21,-1
 182 355 l 1,18,-1
EndSplineSet
EndChar
StartChar: ugrave
Encoding: 249 249 127
Width: 366
Flags: W
Fore
101 315 m 1,0,-1
 101 127 l 2,1,2
 101 37 101 37 171 37 c 0,3,4
 213 37 213 37 237.5 64 c 128,-1,5
 262 91 262 91 262 137 c 2,6,-1
 262 315 l 1,7,-1
 313 315 l 1,8,-1
 313 0 l 1,9,-1
 262 0 l 1,10,-1
 262 48 l 1,11,12
 242 20 242 20 217.5 6 c 128,-1,13
 193 -8 193 -8 160 -8 c 0,14,15
 48 -8 48 -8 48 125 c 2,16,-1
 48 315 l 1,17,-1
 101 315 l 1,0,-1
175 356 m 1,18,-1
 82 461 l 1,19,-1
 139 461 l 1,20,-1
 217 356 l 1,21,-1
 175 356 l 1,18,-1
EndSplineSet
EndChar
StartChar: ucircumflex
Encoding: 251 251 128
Width: 366
Flags: W
Fore
101 315 m 1,0,-1
 101 127 l 2,1,2
 101 37 101 37 171 37 c 0,3,4
 213 37 213 37 237.5 64 c 128,-1,5
 262 91 262 91 262 137 c 2,6,-1
 262 315 l 1,7,-1
 313 315 l 1,8,-1
 313 0 l 1,9,-1
 262 0 l 1,10,-1
 262 48 l 1,11,12
 242 20 242 20 217.5 6 c 128,-1,13
 193 -8 193 -8 160 -8 c 0,14,15
 48 -8 48 -8 48 125 c 2,16,-1
 48 315 l 1,17,-1
 101 315 l 1,0,-1
269 355 m 1,18,-1
 230 355 l 1,19,-1
 179 424 l 1,20,-1
 129 355 l 1,21,-1
 90 355 l 1,22,-1
 159 461 l 1,23,-1
 200 461 l 1,24,-1
 269 355 l 1,18,-1
EndSplineSet
EndChar
StartChar: udieresis
Encoding: 252 252 129
Width: 366
Flags: W
Fore
101 315 m 1,0,-1
 101 127 l 2,1,2
 101 37 101 37 171 37 c 0,3,4
 213 37 213 37 237.5 64 c 128,-1,5
 262 91 262 91 262 137 c 2,6,-1
 262 315 l 1,7,-1
 313 315 l 1,8,-1
 313 0 l 1,9,-1
 262 0 l 1,10,-1
 262 48 l 1,11,12
 242 20 242 20 217.5 6 c 128,-1,13
 193 -8 193 -8 160 -8 c 0,14,15
 48 -8 48 -8 48 125 c 2,16,-1
 48 315 l 1,17,-1
 101 315 l 1,0,-1
263 380 m 1,18,-1
 206 380 l 1,19,-1
 206 437 l 1,20,-1
 263 437 l 1,21,-1
 263 380 l 1,18,-1
152 380 m 1,22,-1
 96 380 l 1,23,-1
 96 437 l 1,24,-1
 152 437 l 1,25,-1
 152 380 l 1,22,-1
EndSplineSet
EndChar
StartChar: dagger
Encoding: 8224 8224 130
Width: 288
Flags: W
Fore
169 302 m 1,0,-1
 273 302 l 1,1,-1
 273 259 l 1,2,-1
 169 259 l 1,3,-1
 169 -56 l 1,4,-1
 119 -56 l 1,5,-1
 119 259 l 1,6,-1
 16 259 l 1,7,-1
 16 302 l 1,8,-1
 119 302 l 1,9,-1
 119 420 l 1,10,-1
 169 420 l 1,11,-1
 169 302 l 1,0,-1
EndSplineSet
EndChar
StartChar: degree
Encoding: 176 176 131
Width: 288
Flags: W
Fore
144 391 m 0,0,1
 122 391 122 391 106.5 376 c 128,-1,2
 91 361 91 361 91 338 c 0,3,4
 91 316 91 316 106.5 300.5 c 128,-1,5
 122 285 122 285 144 285 c 0,6,7
 167 285 167 285 182.5 300.5 c 128,-1,8
 198 316 198 316 198 338 c 0,9,10
 198 361 198 361 182.5 376 c 128,-1,11
 167 391 167 391 144 391 c 0,0,1
144 428 m 0,12,13
 182 428 182 428 208 402 c 0,14,15
 220 388 220 388 227 372 c 128,-1,16
 234 356 234 356 234 338 c 0,17,18
 234 301 234 301 207.5 275 c 128,-1,19
 181 249 181 249 144 249 c 0,20,21
 106 249 106 249 80.5 274.5 c 128,-1,22
 55 300 55 300 55 338 c 0,23,24
 55 357 55 357 62 373.5 c 128,-1,25
 69 390 69 390 81 402 c 128,-1,26
 93 414 93 414 109.5 421 c 128,-1,27
 126 428 126 428 144 428 c 0,12,13
EndSplineSet
EndChar
StartChar: cent
Encoding: 162 162 132
Width: 367
Flags: W
Fore
192 278 m 1,0,1
 149 273 149 273 126.5 241 c 128,-1,2
 104 209 104 209 104 158 c 0,3,4
 104 48 104 48 192 37 c 1,5,-1
 192 278 l 1,6,-1
 192 278 l 1,0,1
299 255 m 1,7,8
 278 267 278 267 258.5 272.5 c 128,-1,9
 239 278 239 278 219 279 c 1,10,-1
 219 36 l 1,11,12
 239 37 239 37 258.5 42.5 c 128,-1,13
 278 48 278 48 299 60 c 1,14,-1
 299 12 l 1,15,16
 280 3 280 3 260.5 -1.5 c 128,-1,17
 241 -6 241 -6 219 -8 c 1,18,-1
 219 -88 l 1,19,-1
 192 -88 l 1,20,-1
 192 -7 l 1,21,22
 123 -1 123 -1 85.5 42 c 128,-1,23
 48 85 48 85 48 158 c 256,24,25
 48 231 48 231 85.5 273.5 c 128,-1,26
 123 316 123 316 192 322 c 1,27,-1
 192 404 l 1,28,-1
 219 404 l 1,29,-1
 219 322 l 1,30,31
 261 320 261 320 299 303 c 1,32,-1
 299 255 l 1,33,-1
 299 255 l 1,7,8
EndSplineSet
EndChar
StartChar: sterling
Encoding: 163 163 133
Width: 367
Flags: W
Fore
310 361 m 1,0,1
 289 372 289 372 269.5 377.5 c 128,-1,2
 250 383 250 383 234 383 c 0,3,4
 192 383 192 383 175.5 361.5 c 128,-1,5
 159 340 159 340 159 279 c 2,6,-1
 159 219 l 1,7,-1
 269 219 l 1,8,-1
 269 179 l 1,9,-1
 159 179 l 1,10,-1
 159 47 l 1,11,-1
 316 47 l 1,12,-1
 316 0 l 1,13,-1
 36 0 l 1,14,-1
 36 47 l 1,15,-1
 103 47 l 1,16,-1
 103 179 l 1,17,-1
 46 179 l 1,18,-1
 46 219 l 1,19,-1
 103 219 l 1,20,-1
 103 286 l 2,21,22
 103 359 103 359 133 393.5 c 128,-1,23
 163 428 163 428 229 428 c 0,24,25
 245 428 245 428 266.5 423.5 c 128,-1,26
 288 419 288 419 310 411 c 1,27,-1
 310 361 l 1,28,-1
 310 361 l 1,0,1
EndSplineSet
EndChar
StartChar: section
Encoding: 167 167 134
Width: 288
Flags: W
Fore
107 264 m 1,0,1
 89 250 89 250 80 238 c 128,-1,2
 71 226 71 226 71 212 c 0,3,4
 71 191 71 191 90 172 c 0,5,6
 100 162 100 162 123 148 c 128,-1,7
 146 134 146 134 181 115 c 1,8,9
 199 129 199 129 207.5 141 c 128,-1,10
 216 153 216 153 216 167 c 0,11,12
 216 187 216 187 196 207 c 0,13,14
 186 217 186 217 164 231 c 128,-1,15
 142 245 142 245 107 264 c 1,0,1
234 366 m 1,16,17
 210 377 210 377 190 382 c 128,-1,18
 170 387 170 387 153 387 c 0,19,20
 127 387 127 387 112 376 c 128,-1,21
 97 365 97 365 97 345 c 0,22,23
 97 320 97 320 155 287 c 0,24,25
 159 285 159 285 161.5 283.5 c 128,-1,26
 164 282 164 282 166 280 c 2,27,28
 228 245 228 245 243 225 c 1,29,30
 262 206 262 206 262 175 c 0,31,32
 262 124 262 124 210 96 c 1,33,34
 228 81 228 81 235.5 65.5 c 128,-1,35
 243 50 243 50 243 32 c 0,36,37
 243 -7 243 -7 214.5 -31 c 128,-1,38
 186 -55 186 -55 137 -55 c 0,39,40
 116 -55 116 -55 94.5 -50.5 c 128,-1,41
 73 -46 73 -46 48 -39 c 1,42,-1
 48 7 l 1,43,44
 73 -3 73 -3 93.5 -8.5 c 128,-1,45
 114 -14 114 -14 131 -14 c 0,46,47
 192 -14 192 -14 192 31 c 0,48,49
 192 60 192 60 129 94 c 2,50,-1
 123 98 l 2,51,52
 62 132 62 132 44 153 c 0,53,54
 26 176 26 176 26 204 c 0,55,56
 26 230 26 230 39.5 250 c 128,-1,57
 53 270 53 270 78 283 c 1,58,59
 62 296 62 296 53 312 c 128,-1,60
 44 328 44 328 44 346 c 0,61,62
 44 383 44 383 72.5 405.5 c 128,-1,63
 101 428 101 428 147 428 c 0,64,65
 190 428 190 428 234 412 c 1,66,-1
 234 366 l 1,67,-1
 234 366 l 1,16,17
EndSplineSet
EndChar
StartChar: bullet
Encoding: 8226 8226 135
Width: 340
Flags: W
Fore
87 214 m 256,0,1
 87 249 87 249 111 273.5 c 128,-1,2
 135 298 135 298 171 298 c 0,3,4
 206 298 206 298 230 273.5 c 128,-1,5
 254 249 254 249 254 214 c 256,6,7
 254 179 254 179 229.5 155 c 128,-1,8
 205 131 205 131 170 131 c 256,9,10
 135 131 135 131 111 155 c 128,-1,11
 87 179 87 179 87 214 c 256,0,1
EndSplineSet
EndChar
StartChar: paragraph
Encoding: 182 182 136
Width: 367
Flags: W
Fore
304 -56 m 1,0,-1
 265 -56 l 1,1,-1
 265 386 l 1,2,-1
 211 386 l 1,3,-1
 211 -56 l 1,4,-1
 171 -56 l 1,5,-1
 171 182 l 1,6,7
 110 187 110 187 77 218.5 c 128,-1,8
 44 250 44 250 44 302 c 0,9,10
 44 356 44 356 80.5 388 c 128,-1,11
 117 420 117 420 178 420 c 2,12,-1
 304 420 l 1,13,-1
 304 -56 l 1,0,-1
EndSplineSet
EndChar
StartChar: germandbls
Encoding: 223 223 137
Width: 364
Flags: W
Fore
53 320 m 1,0,1
 53 377 53 377 85.5 407.5 c 128,-1,2
 118 438 118 438 181 438 c 0,3,4
 300 438 300 438 302 310 c 1,5,6
 260 308 260 308 236 291.5 c 128,-1,7
 212 275 212 275 212 248 c 0,8,9
 212 223 212 223 247 200 c 2,10,-1
 263 190 l 2,11,12
 309 160 309 160 323 140 c 256,13,14
 337 120 337 120 337 92 c 0,15,16
 337 43 337 43 305.5 17.5 c 128,-1,17
 274 -8 274 -8 214 -8 c 0,18,19
 196 -8 196 -8 177 -4.5 c 128,-1,20
 158 -1 158 -1 137 5 c 1,21,-1
 137 52 l 1,22,23
 182 35 182 35 217 35 c 0,24,25
 283 35 283 35 283 88 c 0,26,27
 283 105 283 105 275 117 c 128,-1,28
 267 129 267 129 239 146 c 2,29,-1
 213 162 l 2,30,31
 186 178 186 178 174 197 c 128,-1,32
 162 216 162 216 162 242 c 0,33,34
 162 278 162 278 185 302.5 c 128,-1,35
 208 327 208 327 251 335 c 1,36,37
 245 396 245 396 180 396 c 0,38,39
 143 396 143 396 124 376 c 128,-1,40
 105 356 105 356 105 319 c 2,41,-1
 105 0 l 1,42,-1
 53 0 l 1,43,-1
 53 320 l 1,44,-1
 53 320 l 1,0,1
EndSplineSet
EndChar
StartChar: registered
Encoding: 174 174 138
Width: 577
Flags: W
Fore
288 389 m 0,0,1
 214 389 214 389 162 337 c 0,2,3
 107 282 107 282 107 209 c 0,4,5
 107 134 107 134 162 82 c 0,6,7
 215 29 215 29 288 29 c 0,8,9
 360 29 360 29 416 82 c 0,10,11
 469 135 469 135 469 209 c 0,12,13
 469 281 469 281 416 337 c 0,14,15
 364 389 364 389 288 389 c 0,0,1
288 418 m 0,16,17
 376 418 376 418 436 356 c 0,18,19
 496 296 496 296 496 209 c 256,20,21
 496 122 496 122 436 62 c 0,22,23
 376 0 376 0 288 0 c 0,24,25
 203 0 203 0 141 62 c 256,26,27
 79 124 79 124 79 209 c 256,28,29
 79 294 79 294 141 356 c 256,30,31
 203 418 203 418 288 418 c 0,16,17
246 224 m 1,32,-1
 280 224 l 2,33,34
 312 224 312 224 324.5 232.5 c 128,-1,35
 337 241 337 241 337 263 c 0,36,37
 337 283 337 283 324 292.5 c 128,-1,38
 311 302 311 302 280 302 c 2,39,-1
 246 302 l 1,40,-1
 246 224 l 1,32,-1
282 331 m 1,41,42
 333 331 333 331 357 314.5 c 128,-1,43
 381 298 381 298 381 263 c 0,44,45
 381 239 381 239 366 223 c 128,-1,46
 351 207 351 207 324 203 c 1,47,48
 332 200 332 200 341 189 c 128,-1,49
 350 178 350 178 364 158 c 2,50,-1
 402 95 l 1,51,-1
 353 95 l 1,52,-1
 317 153 l 2,53,54
 301 181 301 181 290.5 188.5 c 128,-1,55
 280 196 280 196 265 196 c 2,56,-1
 246 196 l 1,57,-1
 246 95 l 1,58,-1
 203 95 l 1,59,-1
 203 331 l 1,60,-1
 282 331 l 1,61,-1
 282 331 l 1,41,42
EndSplineSet
EndChar
StartChar: copyright
Encoding: 169 169 139
Width: 577
Flags: W
Fore
288 418 m 0,0,1
 376 418 376 418 436 356 c 0,2,3
 496 296 496 296 496 209 c 256,4,5
 496 122 496 122 436 62 c 0,6,7
 376 0 376 0 288 0 c 0,8,9
 203 0 203 0 141 62 c 256,10,11
 79 124 79 124 79 209 c 256,12,13
 79 294 79 294 141 356 c 256,14,15
 203 418 203 418 288 418 c 0,0,1
288 389 m 0,16,17
 214 389 214 389 162 337 c 0,18,19
 107 282 107 282 107 209 c 0,20,21
 107 134 107 134 162 82 c 0,22,23
 215 29 215 29 288 29 c 0,24,25
 360 29 360 29 416 82 c 0,26,27
 469 135 469 135 469 209 c 0,28,29
 469 281 469 281 416 337 c 0,30,31
 364 389 364 389 288 389 c 0,16,17
373 283 m 1,32,33
 354 294 354 294 335.5 298 c 128,-1,34
 317 302 317 302 299 302 c 0,35,36
 257 302 257 302 233.5 278 c 128,-1,37
 210 254 210 254 210 209 c 256,38,39
 210 164 210 164 233.5 139 c 128,-1,40
 257 114 257 114 302 114 c 0,41,42
 320 114 320 114 337 119 c 128,-1,43
 354 124 354 124 373 133 c 1,44,-1
 373 98 l 1,45,46
 330 81 330 81 296 81 c 0,47,48
 235 81 235 81 199.5 115 c 128,-1,49
 164 149 164 149 164 209 c 256,50,51
 164 269 164 269 199.5 302.5 c 128,-1,52
 235 336 235 336 296 336 c 0,53,54
 338 336 338 336 373 320 c 1,55,-1
 373 283 l 1,56,-1
 373 283 l 1,32,33
EndSplineSet
EndChar
StartChar: trademark
Encoding: 8482 8482 140
Width: 577
Flags: W
Fore
405 420 m 1,0,-1
 452 420 l 1,1,-1
 452 258 l 1,2,-1
 420 258 l 1,3,-1
 420 393 l 1,4,-1
 366 309 l 1,5,-1
 350 309 l 1,6,-1
 293 393 l 1,7,-1
 293 258 l 1,8,-1
 261 258 l 1,9,-1
 261 420 l 1,10,-1
 309 420 l 1,11,-1
 358 348 l 1,12,-1
 405 420 l 1,0,-1
172 393 m 1,13,-1
 172 258 l 1,14,-1
 140 258 l 1,15,-1
 140 393 l 1,16,-1
 83 393 l 1,17,-1
 83 420 l 1,18,-1
 229 420 l 1,19,-1
 229 393 l 1,20,-1
 172 393 l 1,13,-1
EndSplineSet
EndChar
StartChar: acute
Encoding: 180 180 141
Width: 288
Flags: W
Fore
147 355 m 1,0,-1
 105 355 l 1,1,-1
 183 461 l 1,2,-1
 239 461 l 1,3,-1
 147 355 l 1,0,-1
EndSplineSet
EndChar
StartChar: dieresis
Encoding: 168 168 142
Width: 288
Flags: W
Fore
228 380 m 1,0,-1
 171 380 l 1,1,-1
 171 437 l 1,2,-1
 228 437 l 1,3,-1
 228 380 l 1,0,-1
117 380 m 1,4,-1
 61 380 l 1,5,-1
 61 437 l 1,6,-1
 117 437 l 1,7,-1
 117 380 l 1,4,-1
EndSplineSet
EndChar
StartChar: notequal
Encoding: 8800 8800 143
Width: 483
Flags: W
Fore
350 350 m 1,0,-1
 386 322 l 1,1,-1
 337 262 l 1,2,-1
 422 262 l 1,3,-1
 422 214 l 1,4,-1
 299 214 l 1,5,-1
 243 147 l 1,6,-1
 422 147 l 1,7,-1
 422 99 l 1,8,-1
 204 99 l 1,9,-1
 132 11 l 1,10,-1
 97 40 l 1,11,-1
 145 99 l 1,12,-1
 62 99 l 1,13,-1
 62 147 l 1,14,-1
 184 147 l 1,15,-1
 239 214 l 1,16,-1
 62 214 l 1,17,-1
 62 262 l 1,18,-1
 279 262 l 1,19,-1
 350 350 l 1,0,-1
EndSplineSet
EndChar
StartChar: AE
Encoding: 198 198 144
Width: 561
Flags: W
Fore
311 373 m 1,0,-1
 311 248 l 1,1,-1
 511 248 l 1,2,-1
 511 200 l 1,3,-1
 311 200 l 1,4,-1
 311 47 l 1,5,-1
 525 47 l 1,6,-1
 525 0 l 1,7,-1
 254 0 l 1,8,-1
 254 107 l 1,9,-1
 105 107 l 1,10,-1
 60 0 l 1,11,-1
 2 0 l 1,12,-1
 178 420 l 1,13,-1
 519 420 l 1,14,-1
 519 373 l 1,15,-1
 311 373 l 1,0,-1
254 156 m 1,16,-1
 254 376 l 1,17,-1
 217 376 l 1,18,-1
 125 156 l 1,19,-1
 254 156 l 1,16,-1
EndSplineSet
EndChar
StartChar: Oslash
Encoding: 216 216 145
Width: 454
Flags: W
Fore
138 75 m 1,0,1
 175 38 175 38 228 38 c 0,2,3
 289 38 289 38 325.5 83.5 c 128,-1,4
 362 129 362 129 362 210 c 0,5,6
 362 241 362 241 356 267.5 c 128,-1,7
 350 294 350 294 340 313 c 1,8,-1
 138 75 l 1,9,-1
 138 75 l 1,0,1
316 345 m 1,10,11
 300 364 300 364 277 373 c 128,-1,12
 254 382 254 382 228 382 c 0,13,14
 165 382 165 382 129 335.5 c 128,-1,15
 93 289 93 289 93 210 c 0,16,17
 93 178 93 178 98.5 152 c 128,-1,18
 104 126 104 126 114 106 c 1,19,-1
 316 345 l 1,20,-1
 316 345 l 1,10,11
76 62 m 1,21,22
 55 91 55 91 43.5 128 c 128,-1,23
 32 165 32 165 32 210 c 0,24,25
 32 309 32 309 85 368 c 0,26,27
 139 428 139 428 228 428 c 0,28,29
 301 428 301 428 350 385 c 1,30,-1
 397 439 l 1,31,-1
 425 414 l 1,32,-1
 377 358 l 1,33,34
 400 330 400 330 410.5 292.5 c 128,-1,35
 421 255 421 255 421 210 c 0,36,37
 421 161 421 161 407.5 120.5 c 128,-1,38
 394 80 394 80 368.5 51.5 c 128,-1,39
 343 23 343 23 307.5 7.5 c 128,-1,40
 272 -8 272 -8 228 -8 c 0,41,42
 154 -8 154 -8 104 34 c 1,43,-1
 58 -20 l 1,44,-1
 29 5 l 1,45,-1
 76 62 l 1,46,-1
 76 62 l 1,21,22
EndSplineSet
EndChar
StartChar: infinity
Encoding: 8734 8734 146
Width: 480
Flags: W
Fore
258 158 m 1,0,1
 287 107 287 107 333 107 c 0,2,3
 362 107 362 107 380 126 c 128,-1,4
 398 145 398 145 398 175 c 0,5,6
 398 203 398 203 381.5 222 c 128,-1,7
 365 241 365 241 339 241 c 0,8,9
 316 241 316 241 297.5 222 c 128,-1,10
 279 203 279 203 258 158 c 1,0,1
224 187 m 1,11,12
 195 237 195 237 148 237 c 0,13,14
 119 237 119 237 101 218.5 c 128,-1,15
 83 200 83 200 83 170 c 0,16,17
 83 142 83 142 99.5 123 c 128,-1,18
 116 104 116 104 142 104 c 0,19,20
 165 104 165 104 184 123 c 128,-1,21
 203 142 203 142 224 187 c 1,11,12
243 136 m 1,22,23
 224 98 224 98 201.5 80.5 c 128,-1,24
 179 63 179 63 152 63 c 0,25,26
 113 63 113 63 88 94.5 c 128,-1,27
 63 126 63 126 63 172 c 0,28,29
 63 221 63 221 86 251.5 c 128,-1,30
 109 282 109 282 147 282 c 0,31,32
 174 282 174 282 195 264 c 128,-1,33
 216 246 216 246 237 208 c 1,34,35
 275 283 275 283 328 283 c 0,36,37
 347 283 347 283 363.5 274.5 c 128,-1,38
 380 266 380 266 392.5 251 c 128,-1,39
 405 236 405 236 412 216 c 128,-1,40
 419 196 419 196 419 173 c 0,41,42
 419 124 419 124 395.5 94 c 128,-1,43
 372 64 372 64 334 64 c 0,44,45
 308 64 308 64 287 80.5 c 128,-1,46
 266 97 266 97 243 136 c 1,22,23
EndSplineSet
EndChar
StartChar: plusminus
Encoding: 177 177 147
Width: 483
Flags: W
Fore
422 252 m 1,0,-1
 422 205 l 1,1,-1
 266 205 l 1,2,-1
 266 96 l 1,3,-1
 217 96 l 1,4,-1
 217 205 l 1,5,-1
 62 205 l 1,6,-1
 62 252 l 1,7,-1
 217 252 l 1,8,-1
 217 362 l 1,9,-1
 266 362 l 1,10,-1
 266 252 l 1,11,-1
 422 252 l 1,0,-1
422 0 m 1,12,-1
 62 0 l 1,13,-1
 62 47 l 1,14,-1
 422 47 l 1,15,-1
 422 0 l 1,12,-1
EndSplineSet
EndChar
StartChar: lessequal
Encoding: 8804 8804 148
Width: 483
Flags: W
Fore
422 131 m 1,0,-1
 422 81 l 1,1,-1
 62 184 l 1,2,-1
 62 233 l 1,3,-1
 422 336 l 1,4,-1
 422 286 l 1,5,-1
 151 208 l 1,6,-1
 422 131 l 1,0,-1
422 0 m 1,7,-1
 62 0 l 1,8,-1
 62 47 l 1,9,-1
 422 47 l 1,10,-1
 422 0 l 1,7,-1
EndSplineSet
EndChar
StartChar: greaterequal
Encoding: 8805 8805 149
Width: 483
Flags: W
Fore
422 233 m 1,0,-1
 422 184 l 1,1,-1
 62 81 l 1,2,-1
 62 131 l 1,3,-1
 332 208 l 1,4,-1
 62 286 l 1,5,-1
 62 336 l 1,6,-1
 422 233 l 1,0,-1
62 0 m 1,7,-1
 62 47 l 1,8,-1
 422 47 l 1,9,-1
 422 0 l 1,10,-1
 62 0 l 1,7,-1
EndSplineSet
EndChar
StartChar: yen
Encoding: 165 165 150
Width: 367
Flags: W
Fore
212 0 m 1,0,-1
 156 0 l 1,1,-1
 156 129 l 1,2,-1
 38 129 l 1,3,-1
 38 163 l 1,4,-1
 156 163 l 1,5,-1
 156 177 l 1,6,-1
 132 220 l 1,7,-1
 38 220 l 1,8,-1
 38 255 l 1,9,-1
 112 255 l 1,10,-1
 23 420 l 1,11,-1
 76 420 l 1,12,-1
 183 224 l 1,13,-1
 289 420 l 1,14,-1
 343 420 l 1,15,-1
 254 255 l 1,16,-1
 328 255 l 1,17,-1
 328 220 l 1,18,-1
 235 220 l 1,19,-1
 211 177 l 1,20,-1
 211 163 l 1,21,-1
 328 163 l 1,22,-1
 328 129 l 1,23,-1
 212 129 l 1,24,-1
 212 0 l 1,0,-1
EndSplineSet
EndChar
StartChar: mu
Encoding: 181 181 151
Width: 367
Flags: W
Fore
101 315 m 1,0,-1
 101 119 l 2,1,2
 101 37 101 37 177 37 c 0,3,4
 262 37 262 37 262 132 c 2,5,-1
 262 315 l 1,6,-1
 313 315 l 1,7,-1
 313 72 l 2,8,9
 313 56 313 56 317.5 48 c 128,-1,10
 322 40 322 40 334 40 c 0,11,12
 337 40 337 40 353 46 c 1,13,-1
 353 4 l 1,14,15
 331 -8 331 -8 311 -8 c 256,16,17
 291 -8 291 -8 280 2.5 c 128,-1,18
 269 13 269 13 264 36 c 1,19,20
 235 -8 235 -8 181 -8 c 0,21,22
 152 -8 152 -8 132 2.5 c 128,-1,23
 112 13 112 13 101 36 c 1,24,-1
 101 -121 l 1,25,-1
 48 -121 l 1,26,-1
 48 315 l 1,27,-1
 101 315 l 1,0,-1
EndSplineSet
EndChar
StartChar: partialdiff
Encoding: 8706 8706 152
Width: 299
Flags: W
Fore
213 175 m 1,0,1
 217 199 217 199 219 222 c 128,-1,2
 221 245 221 245 221 267 c 0,3,4
 221 340 221 340 180 340 c 0,5,6
 165 340 165 340 145 323 c 0,7,8
 126 307 126 307 114 307 c 0,9,10
 104 307 104 307 97.5 313 c 128,-1,11
 91 319 91 319 91 328 c 0,12,13
 91 345 91 345 111 359 c 128,-1,14
 131 373 131 373 160 373 c 0,15,16
 211 373 211 373 241 329 c 128,-1,17
 271 285 271 285 271 212 c 0,18,19
 271 117 271 117 230 55 c 256,20,21
 189 -7 189 -7 129 -7 c 0,22,23
 108 -7 108 -7 90 1 c 128,-1,24
 72 9 72 9 58.5 23.5 c 128,-1,25
 45 38 45 38 37 57.5 c 128,-1,26
 29 77 29 77 29 100 c 0,27,28
 29 128 29 128 37.5 151.5 c 128,-1,29
 46 175 46 175 60.5 192 c 128,-1,30
 75 209 75 209 95 218.5 c 128,-1,31
 115 228 115 228 137 228 c 0,32,33
 166 228 166 228 184 215 c 128,-1,34
 202 202 202 202 213 175 c 1,0,1
199 139 m 0,35,36
 199 172 199 172 186.5 189.5 c 128,-1,37
 174 207 174 207 152 207 c 0,38,39
 122 207 122 207 102 170.5 c 128,-1,40
 82 134 82 134 82 76 c 0,41,42
 82 8 82 8 129 8 c 0,43,44
 160 8 160 8 179.5 45 c 128,-1,45
 199 82 199 82 199 139 c 0,35,36
EndSplineSet
EndChar
StartChar: summation
Encoding: 8721 8721 153
Width: 388
Flags: W
Fore
370 361 m 1,0,-1
 100 361 l 1,1,-1
 289 159 l 1,2,-1
 94 -57 l 1,3,-1
 377 -57 l 1,4,-1
 377 -110 l 1,5,-1
 7 -110 l 1,6,-1
 7 -69 l 1,7,-1
 211 157 l 1,8,-1
 15 365 l 1,9,-1
 15 415 l 1,10,-1
 370 415 l 1,11,-1
 370 361 l 1,0,-1
EndSplineSet
EndChar
StartChar: product
Encoding: 8719 8719 154
Width: 437
Flags: W
Fore
392 -110 m 1,0,-1
 324 -110 l 1,1,-1
 324 357 l 1,2,-1
 111 357 l 1,3,-1
 111 -110 l 1,4,-1
 43 -110 l 1,5,-1
 43 415 l 1,6,-1
 392 415 l 1,7,-1
 392 -110 l 1,0,-1
EndSplineSet
EndChar
StartChar: pi
Encoding: 960 960 155
Width: 340
Flags: W
Fore
245 121 m 2,0,1
 241 99 241 99 239 86 c 128,-1,2
 237 73 237 73 237 67 c 0,3,4
 237 50 237 50 243.5 43.5 c 128,-1,5
 250 37 250 37 266 37 c 0,6,7
 271 37 271 37 277 37.5 c 128,-1,8
 283 38 283 38 295 40 c 1,9,-1
 285 0 l 1,10,11
 272 -4 272 -4 254 -4 c 0,12,13
 187 -4 187 -4 187 53 c 0,14,15
 187 65 187 65 190.5 85.5 c 128,-1,16
 194 106 194 106 203 151 c 2,17,-1
 225 258 l 1,18,-1
 133 258 l 1,19,-1
 78 0 l 1,20,-1
 28 0 l 1,21,-1
 82 258 l 1,22,-1
 71 258 l 2,23,24
 42 258 42 258 36 219 c 1,25,-1
 -8 219 l 1,26,27
 -1 267 -1 267 19 284.5 c 128,-1,28
 39 302 39 302 85 302 c 2,29,-1
 337 302 l 1,30,-1
 327 258 l 1,31,-1
 275 258 l 1,32,-1
 245 121 l 2,0,1
EndSplineSet
EndChar
StartChar: integral
Encoding: 8747 8747 156
Width: 301
Flags: W
Fore
88 -74 m 0,0,1
 118 -74 118 -74 122 121 c 0,2,3
 122 135 122 135 122 147 c 128,-1,4
 122 159 122 159 123 167 c 0,5,6
 126 311 126 311 152.5 374 c 128,-1,7
 179 437 179 437 236 437 c 0,8,9
 259 437 259 437 272.5 425 c 128,-1,10
 286 413 286 413 286 394 c 0,11,12
 286 362 286 362 253 362 c 0,13,14
 230 362 230 362 222 382 c 0,15,16
 220 386 220 386 218.5 396.5 c 128,-1,17
 217 407 217 407 213 407 c 0,18,19
 184 407 184 407 179 233 c 0,20,21
 178 205 178 205 178 184 c 128,-1,22
 178 163 178 163 177 147 c 0,23,24
 172 12 172 12 145.5 -46.5 c 128,-1,25
 119 -105 119 -105 64 -105 c 0,26,27
 42 -105 42 -105 27.5 -93 c 128,-1,28
 13 -81 13 -81 13 -63 c 0,29,30
 13 -29 13 -29 49 -29 c 0,31,32
 69 -29 69 -29 76 -45 c 0,33,34
 79 -50 79 -50 80.5 -62 c 128,-1,35
 82 -74 82 -74 88 -74 c 0,0,1
EndSplineSet
EndChar
StartChar: ordfeminine
Encoding: 170 170 157
Width: 272
Flags: W
Fore
233 132 m 1,0,-1
 39 132 l 1,1,-1
 39 167 l 1,2,-1
 233 167 l 1,3,-1
 233 132 l 1,0,-1
191 202 m 1,4,-1
 191 234 l 1,5,6
 166 197 166 197 111 197 c 0,7,8
 75 197 75 197 53.5 216 c 128,-1,9
 32 235 32 235 32 267 c 0,10,11
 32 343 32 343 139 343 c 2,12,-1
 191 343 l 1,13,-1
 191 344 l 2,14,15
 191 396 191 396 125 396 c 0,16,17
 107 396 107 396 88 391 c 128,-1,18
 69 386 69 386 49 377 c 1,19,-1
 49 412 l 1,20,21
 88 428 88 428 130 428 c 0,22,23
 233 428 233 428 233 328 c 2,24,-1
 233 202 l 1,25,-1
 191 202 l 1,4,-1
155 311 m 1,26,27
 109 311 109 311 91.5 302 c 128,-1,28
 74 293 74 293 74 270 c 0,29,30
 74 252 74 252 88 241.5 c 128,-1,31
 102 231 102 231 125 231 c 0,32,33
 153 231 153 231 172 251 c 128,-1,34
 191 271 191 271 191 303 c 2,35,-1
 191 311 l 1,36,-1
 155 311 l 1,37,-1
 155 311 l 1,26,27
EndSplineSet
EndChar
StartChar: ordmasculine
Encoding: 186 186 158
Width: 272
Flags: W
Fore
233 132 m 1,0,-1
 39 132 l 1,1,-1
 39 167 l 1,2,-1
 233 167 l 1,3,-1
 233 132 l 1,0,-1
136 428 m 256,4,5
 187 428 187 428 215.5 397 c 128,-1,6
 244 366 244 366 244 312 c 256,7,8
 244 258 244 258 215.5 227.5 c 128,-1,9
 187 197 187 197 136 197 c 256,10,11
 85 197 85 197 56 227.5 c 128,-1,12
 27 258 27 258 27 312 c 256,13,14
 27 366 27 366 56 397 c 128,-1,15
 85 428 85 428 136 428 c 256,4,5
136 396 m 0,16,17
 107 396 107 396 89 373 c 128,-1,18
 71 350 71 350 71 312 c 0,19,20
 71 275 71 275 89 252.5 c 128,-1,21
 107 230 107 230 136 230 c 0,22,23
 166 230 166 230 183.5 252.5 c 128,-1,24
 201 275 201 275 201 312 c 0,25,26
 201 350 201 350 183.5 373 c 128,-1,27
 166 396 166 396 136 396 c 0,16,17
EndSplineSet
EndChar
StartChar: Omega
Encoding: 937 937 159
Width: 441
Flags: W
Fore
250 0 m 1,0,-1
 250 50 l 1,1,2
 301 77 301 77 328 124 c 128,-1,3
 355 171 355 171 355 228 c 0,4,5
 355 297 355 297 318 337 c 128,-1,6
 281 377 281 377 220 377 c 0,7,8
 160 377 160 377 122.5 337 c 128,-1,9
 85 297 85 297 85 228 c 0,10,11
 85 171 85 171 113 124 c 128,-1,12
 141 77 141 77 192 50 c 1,13,-1
 192 0 l 1,14,-1
 22 0 l 1,15,-1
 22 50 l 1,16,-1
 111 50 l 1,17,18
 66 90 66 90 46.5 131.5 c 128,-1,19
 27 173 27 173 27 225 c 0,20,21
 27 314 27 314 80 370 c 0,22,23
 134 425 134 425 220 425 c 256,24,25
 306 425 306 425 360 370 c 256,26,27
 414 315 414 315 414 228 c 0,28,29
 414 173 414 173 394 131.5 c 128,-1,30
 374 90 374 90 329 50 c 1,31,-1
 419 50 l 1,32,-1
 419 0 l 1,33,-1
 250 0 l 1,0,-1
EndSplineSet
EndChar
StartChar: ae
Encoding: 230 230 160
Width: 567
Flags: W
Fore
484 186 m 1,0,1
 484 229 484 229 460.5 254 c 128,-1,2
 437 279 437 279 399 279 c 0,3,4
 354 279 354 279 328.5 255 c 128,-1,5
 303 231 303 231 300 185 c 1,6,-1
 484 186 l 1,7,-1
 484 186 l 1,0,1
280 271 m 1,8,9
 301 297 301 297 331 309.5 c 128,-1,10
 361 322 361 322 398 322 c 0,11,12
 461 322 461 322 499 281.5 c 128,-1,13
 537 241 537 241 537 171 c 2,14,-1
 537 145 l 1,15,-1
 298 145 l 1,16,17
 304 35 304 35 410 35 c 0,18,19
 440 35 440 35 467.5 42.5 c 128,-1,20
 495 50 495 50 524 65 c 1,21,-1
 524 16 l 1,22,23
 466 -8 466 -8 408 -8 c 0,24,25
 311 -8 311 -8 269 60 c 1,26,27
 227 -8 227 -8 147 -8 c 0,28,29
 93 -8 93 -8 64 18 c 128,-1,30
 35 44 35 44 35 92 c 0,31,32
 35 199 35 199 176 199 c 2,33,-1
 249 199 l 1,34,-1
 249 204 l 2,35,36
 249 240 249 240 225.5 259.5 c 128,-1,37
 202 279 202 279 160 279 c 0,38,39
 105 279 105 279 58 253 c 1,40,-1
 58 301 l 1,41,42
 85 312 85 312 112.5 317 c 128,-1,43
 140 322 140 322 165 322 c 0,44,45
 205 322 205 322 235 309.5 c 128,-1,46
 265 297 265 297 280 271 c 1,8,9
198 159 m 1,47,48
 135 159 135 159 111 144.5 c 128,-1,49
 87 130 87 130 87 95 c 0,50,51
 87 67 87 67 105 51 c 128,-1,52
 123 35 123 35 153 35 c 0,53,54
 198 35 198 35 223.5 65.5 c 128,-1,55
 249 96 249 96 249 147 c 2,56,-1
 249 159 l 1,57,-1
 198 159 l 1,58,-1
 198 159 l 1,47,48
EndSplineSet
EndChar
StartChar: oslash
Encoding: 248 248 161
Width: 353
Flags: W
Fore
117 59 m 1,0,1
 140 36 140 36 176 36 c 0,2,3
 218 36 218 36 242.5 68.5 c 128,-1,4
 267 101 267 101 267 158 c 0,5,6
 267 201 267 201 255 226 c 1,7,-1
 117 59 l 1,8,-1
 117 59 l 1,0,1
235 256 m 1,9,10
 212 279 212 279 176 279 c 0,11,12
 134 279 134 279 110.5 246 c 128,-1,13
 87 213 87 213 87 153 c 0,14,15
 87 114 87 114 98 90 c 1,16,-1
 235 256 l 1,17,-1
 235 256 l 1,9,10
63 46 m 1,18,19
 32 89 32 89 32 158 c 0,20,21
 32 236 32 236 69.5 279 c 128,-1,22
 107 322 107 322 176 322 c 0,23,24
 203 322 203 322 225 315.5 c 128,-1,25
 247 309 247 309 267 295 c 1,26,-1
 306 342 l 1,27,-1
 333 319 l 1,28,-1
 291 269 l 1,29,30
 321 226 321 226 321 158 c 0,31,32
 321 80 321 80 283 36 c 128,-1,33
 245 -8 245 -8 176 -8 c 0,34,35
 121 -8 121 -8 87 21 c 1,36,-1
 47 -27 l 1,37,-1
 21 -4 l 1,38,-1
 63 46 l 1,39,-1
 63 46 l 1,18,19
EndSplineSet
EndChar
StartChar: questiondown
Encoding: 191 191 162
Width: 306
Flags: W
Fore
194 264 m 2,0,1
 194 236 194 236 186.5 217.5 c 128,-1,2
 179 199 179 199 153 174 c 2,3,-1
 129 149 l 2,4,5
 111 134 111 134 104.5 120.5 c 128,-1,6
 98 107 98 107 98 94 c 0,7,8
 98 69 98 69 116 53.5 c 128,-1,9
 134 38 134 38 165 38 c 0,10,11
 187 38 187 38 212.5 48 c 128,-1,12
 238 58 238 58 265 76 c 1,13,-1
 265 24 l 1,14,15
 238 7 238 7 211 -0.5 c 128,-1,16
 184 -8 184 -8 156 -8 c 0,17,18
 104 -8 104 -8 72 19 c 128,-1,19
 40 46 40 46 40 91 c 0,20,21
 40 112 40 112 50.5 131.5 c 128,-1,22
 61 151 61 151 85 175 c 2,23,-1
 110 200 l 2,24,25
 125 213 125 213 130 220.5 c 128,-1,26
 135 228 135 228 137 235 c 0,27,28
 139 241 139 241 140 249.5 c 128,-1,29
 141 258 141 258 141 273 c 2,30,-1
 141 308 l 1,31,-1
 194 308 l 1,32,-1
 194 264 l 2,0,1
139 420 m 1,33,-1
 196 420 l 1,34,-1
 196 349 l 1,35,-1
 139 349 l 1,36,-1
 139 420 l 1,33,-1
EndSplineSet
EndChar
StartChar: exclamdown
Encoding: 161 161 163
Width: 232
Flags: W
Fore
87 420 m 1,0,-1
 144 420 l 1,1,-1
 144 349 l 1,2,-1
 87 349 l 1,3,-1
 87 420 l 1,0,-1
87 184 m 1,4,-1
 93 285 l 1,5,-1
 139 285 l 1,6,-1
 144 184 l 1,7,-1
 144 0 l 1,8,-1
 87 0 l 1,9,-1
 87 184 l 1,4,-1
EndSplineSet
EndChar
StartChar: logicalnot
Encoding: 172 172 164
Width: 483
Flags: W
Fore
422 81 m 1,0,-1
 375 81 l 1,1,-1
 375 195 l 1,2,-1
 62 195 l 1,3,-1
 62 243 l 1,4,-1
 422 243 l 1,5,-1
 422 81 l 1,0,-1
EndSplineSet
EndChar
StartChar: radical
Encoding: 8730 8730 165
Width: 368
Flags: W
Fore
368 441 m 1,0,-1
 335 441 l 1,1,-1
 168 -11 l 1,2,-1
 149 -11 l 1,3,-1
 60 237 l 1,4,-1
 24 225 l 1,5,-1
 18 247 l 1,6,-1
 97 275 l 1,7,-1
 169 75 l 1,8,-1
 314 468 l 1,9,-1
 368 468 l 1,10,-1
 368 441 l 1,0,-1
EndSplineSet
EndChar
StartChar: florin
Encoding: 402 402 166
Width: 367
Flags: W
Fore
362 382 m 1,0,1
 340 398 340 398 315 398 c 0,2,3
 263 398 263 398 249 327 c 2,4,-1
 233 239 l 1,5,-1
 313 239 l 1,6,-1
 313 199 l 1,7,-1
 224 199 l 1,8,-1
 188 20 l 2,9,10
 180 -21 180 -21 169.5 -48 c 128,-1,11
 159 -75 159 -75 145 -91.5 c 128,-1,12
 131 -108 131 -108 111.5 -114.5 c 128,-1,13
 92 -121 92 -121 66 -121 c 0,14,15
 50 -121 50 -121 36 -117.5 c 128,-1,16
 22 -114 22 -114 8 -107 c 1,17,-1
 8 -62 l 1,18,19
 23 -70 23 -70 36.5 -74.5 c 128,-1,20
 50 -79 50 -79 64 -79 c 0,21,22
 91 -79 91 -79 106.5 -60 c 128,-1,23
 122 -41 122 -41 132 5 c 2,24,-1
 170 199 l 1,25,-1
 100 199 l 1,26,-1
 100 239 l 1,27,-1
 179 239 l 1,28,-1
 197 332 l 2,29,30
 207 383 207 383 235 410.5 c 128,-1,31
 263 438 263 438 305 438 c 0,32,33
 336 438 336 438 362 428 c 1,34,-1
 362 382 l 1,35,-1
 362 382 l 1,0,1
EndSplineSet
EndChar
StartChar: approxequal
Encoding: 8776 8776 167
Width: 483
Flags: W
Fore
422 126 m 1,0,1
 392 103 392 103 367 93 c 128,-1,2
 342 83 342 83 315 83 c 0,3,4
 286 83 286 83 243 100 c 0,5,6
 237 102 237 102 238 102 c 1,7,8
 237 104 237 104 232 105 c 2,9,10
 186 122 186 122 162 122 c 0,11,12
 137 122 137 122 113 111 c 128,-1,13
 89 100 89 100 62 76 c 1,14,-1
 62 128 l 1,15,16
 91 149 91 149 116 159 c 128,-1,17
 141 169 141 169 169 169 c 0,18,19
 199 169 199 169 241 151 c 1,20,21
 242 150 242 150 245 150 c 1,22,23
 247 149 247 149 251 147 c 0,24,25
 297 130 297 130 321 130 c 256,26,27
 345 130 345 130 369 140.5 c 128,-1,28
 393 151 393 151 422 175 c 1,29,-1
 422 126 l 1,30,-1
 422 126 l 1,0,1
422 235 m 1,31,32
 392 213 392 213 367 203.5 c 128,-1,33
 342 194 342 194 315 194 c 0,34,35
 281 194 281 194 243 210 c 0,36,37
 239 212 239 212 238 212 c 1,38,39
 238 213 238 213 237 213 c 256,40,41
 236 213 236 213 235 213.5 c 128,-1,42
 234 214 234 214 232 214 c 1,43,44
 189 232 189 232 162 232 c 0,45,46
 137 232 137 232 113 221 c 128,-1,47
 89 210 89 210 62 186 c 1,48,-1
 62 236 l 1,49,50
 91 259 91 259 116 268.5 c 128,-1,51
 141 278 141 278 169 278 c 0,52,53
 202 278 202 278 241 262 c 1,54,55
 243 260 243 260 245 260 c 1,56,57
 246 259 246 259 247 259 c 0,58,59
 249 259 249 259 251 258 c 0,60,61
 295 240 295 240 321 240 c 0,62,63
 345 240 345 240 369 250.5 c 128,-1,64
 393 261 393 261 422 285 c 1,65,-1
 422 235 l 1,66,-1
 422 235 l 1,31,32
EndSplineSet
EndChar
StartChar: Delta
Encoding: 8710 8710 168
Width: 386
Flags: W
Fore
310 50 m 1,0,-1
 193 355 l 1,1,-1
 75 50 l 1,2,-1
 310 50 l 1,0,-1
387 0 m 1,3,-1
 -1 0 l 1,4,-1
 162 415 l 1,5,-1
 225 415 l 1,6,-1
 387 0 l 1,3,-1
EndSplineSet
EndChar
StartChar: guillemotleft
Encoding: 171 171 169
Width: 353
Flags: W
Fore
214 169 m 1,0,-1
 299 94 l 1,1,-1
 299 40 l 1,2,-1
 167 158 l 1,3,-1
 167 180 l 1,4,-1
 299 299 l 1,5,-1
 299 244 l 1,6,-1
 214 169 l 1,0,-1
92 169 m 1,7,-1
 176 94 l 1,8,-1
 176 40 l 1,9,-1
 44 158 l 1,10,-1
 44 180 l 1,11,-1
 176 299 l 1,12,-1
 176 244 l 1,13,-1
 92 169 l 1,7,-1
EndSplineSet
EndChar
StartChar: guillemotright
Encoding: 187 187 170
Width: 353
Flags: W
Fore
186 158 m 1,0,-1
 55 40 l 1,1,-1
 55 94 l 1,2,-1
 139 169 l 1,3,-1
 55 244 l 1,4,-1
 55 299 l 1,5,-1
 186 180 l 1,6,-1
 186 158 l 1,0,-1
309 158 m 1,7,-1
 176 40 l 1,8,-1
 176 94 l 1,9,-1
 262 169 l 1,10,-1
 176 244 l 1,11,-1
 176 299 l 1,12,-1
 309 180 l 1,13,-1
 309 158 l 1,7,-1
EndSplineSet
EndChar
StartChar: ellipsis
Encoding: 8230 8230 171
Width: 577
Flags: W
Fore
318 0 m 1,0,-1
 259 0 l 1,1,-1
 259 71 l 1,2,-1
 318 71 l 1,3,-1
 318 0 l 1,0,-1
511 0 m 1,4,-1
 450 0 l 1,5,-1
 450 71 l 1,6,-1
 511 71 l 1,7,-1
 511 0 l 1,4,-1
127 0 m 1,8,-1
 66 0 l 1,9,-1
 66 71 l 1,10,-1
 127 71 l 1,11,-1
 127 0 l 1,8,-1
EndSplineSet
EndChar
StartChar: Agrave
Encoding: 192 192 173
Width: 394
Flags: W
Fore
275 156 m 1,0,-1
 197 365 l 1,1,-1
 121 156 l 1,2,-1
 275 156 l 1,0,-1
389 0 m 1,3,-1
 331 0 l 1,4,-1
 293 107 l 1,5,-1
 103 107 l 1,6,-1
 65 0 l 1,7,-1
 4 0 l 1,8,-1
 165 420 l 1,9,-1
 230 420 l 1,10,-1
 389 0 l 1,3,-1
193 460 m 1,11,-1
 128 535 l 1,12,-1
 182 535 l 1,13,-1
 236 460 l 1,14,-1
 193 460 l 1,11,-1
EndSplineSet
EndChar
StartChar: Atilde
Encoding: 195 195 174
Width: 394
Flags: W
Fore
275 156 m 1,0,-1
 197 365 l 1,1,-1
 121 156 l 1,2,-1
 275 156 l 1,0,-1
389 0 m 1,3,-1
 331 0 l 1,4,-1
 293 107 l 1,5,-1
 103 107 l 1,6,-1
 65 0 l 1,7,-1
 4 0 l 1,8,-1
 165 420 l 1,9,-1
 230 420 l 1,10,-1
 389 0 l 1,3,-1
181 491 m 1,11,12
 168 497 168 497 160 497 c 0,13,14
 140 497 140 497 140 471 c 2,15,-1
 140 470 l 1,16,-1
 105 470 l 1,17,18
 105 497 105 497 119 514 c 128,-1,19
 133 531 133 531 158 531 c 0,20,21
 167 531 167 531 176 528.5 c 128,-1,22
 185 526 185 526 198 519 c 2,23,-1
 215 511 l 1,24,25
 225 504 225 504 234 504 c 0,26,27
 255 504 255 504 255 529 c 2,28,-1
 255 531 l 1,29,-1
 290 531 l 1,30,31
 289 503 289 503 275 486.5 c 128,-1,32
 261 470 261 470 237 470 c 0,33,34
 227 470 227 470 219 472 c 128,-1,35
 211 474 211 474 196 482 c 2,36,-1
 181 491 l 1,37,-1
 181 491 l 1,11,12
EndSplineSet
EndChar
StartChar: Otilde
Encoding: 213 213 175
Width: 454
Flags: W
Fore
228 382 m 0,0,1
 165 382 165 382 129 335.5 c 128,-1,2
 93 289 93 289 93 210 c 0,3,4
 93 129 93 129 129 83.5 c 128,-1,5
 165 38 165 38 228 38 c 0,6,7
 289 38 289 38 325.5 83.5 c 128,-1,8
 362 129 362 129 362 210 c 0,9,10
 362 289 362 289 325.5 335.5 c 128,-1,11
 289 382 289 382 228 382 c 0,0,1
228 428 m 0,12,13
 272 428 272 428 307.5 412.5 c 128,-1,14
 343 397 343 397 368.5 368.5 c 128,-1,15
 394 340 394 340 407.5 300 c 128,-1,16
 421 260 421 260 421 210 c 0,17,18
 421 161 421 161 407.5 120.5 c 128,-1,19
 394 80 394 80 368.5 51.5 c 128,-1,20
 343 23 343 23 307.5 7.5 c 128,-1,21
 272 -8 272 -8 228 -8 c 0,22,23
 139 -8 139 -8 85 51 c 0,24,25
 32 110 32 110 32 210 c 0,26,27
 32 309 32 309 85 368 c 0,28,29
 139 428 139 428 228 428 c 0,12,13
211 491 m 1,30,31
 198 497 198 497 190 497 c 0,32,33
 170 497 170 497 170 471 c 2,34,-1
 170 470 l 1,35,-1
 135 470 l 1,36,37
 135 497 135 497 149 514 c 128,-1,38
 163 531 163 531 188 531 c 0,39,40
 197 531 197 531 206 528.5 c 128,-1,41
 215 526 215 526 228 519 c 2,42,-1
 245 511 l 1,43,44
 255 504 255 504 264 504 c 0,45,46
 285 504 285 504 285 529 c 2,47,-1
 285 531 l 1,48,-1
 320 531 l 1,49,50
 319 503 319 503 305 486.5 c 128,-1,51
 291 470 291 470 267 470 c 0,52,53
 257 470 257 470 249 472 c 128,-1,54
 241 474 241 474 226 482 c 2,55,-1
 211 491 l 1,56,-1
 211 491 l 1,30,31
EndSplineSet
EndChar
StartChar: OE
Encoding: 338 338 176
Width: 617
Flags: W
Fore
366 373 m 1,0,-1
 366 248 l 1,1,-1
 567 248 l 1,2,-1
 567 200 l 1,3,-1
 366 200 l 1,4,-1
 366 47 l 1,5,-1
 580 47 l 1,6,-1
 580 0 l 1,7,-1
 280 0 l 2,8,9
 159 0 159 0 95.5 52.5 c 128,-1,10
 32 105 32 105 32 211 c 0,11,12
 32 314 32 314 95.5 367 c 128,-1,13
 159 420 159 420 280 420 c 2,14,-1
 576 420 l 1,15,-1
 576 373 l 1,16,-1
 366 373 l 1,0,-1
273 373 m 1,17,18
 93 373 93 373 93 211 c 0,19,20
 93 47 93 47 273 47 c 2,21,-1
 309 47 l 1,22,-1
 309 373 l 1,23,-1
 273 373 l 1,24,-1
 273 373 l 1,17,18
EndSplineSet
EndChar
StartChar: oe
Encoding: 339 339 177
Width: 590
Flags: W
Fore
508 186 m 1,0,1
 507 229 507 229 483.5 254 c 128,-1,2
 460 279 460 279 422 279 c 0,3,4
 379 279 379 279 353 255 c 128,-1,5
 327 231 327 231 322 185 c 1,6,-1
 508 186 l 1,7,-1
 508 186 l 1,0,1
321 145 m 1,8,9
 324 91 324 91 353 63.5 c 128,-1,10
 382 36 382 36 434 36 c 0,11,12
 493 36 493 36 548 65 c 1,13,-1
 548 16 l 1,14,15
 490 -8 490 -8 431 -8 c 0,16,17
 342 -8 342 -8 295 54 c 1,18,19
 254 -8 254 -8 176 -8 c 0,20,21
 107 -8 107 -8 69.5 36 c 128,-1,22
 32 80 32 80 32 158 c 256,23,24
 32 236 32 236 69.5 279 c 128,-1,25
 107 322 107 322 176 322 c 0,26,27
 258 322 258 322 295 262 c 1,28,29
 316 291 316 291 348.5 306.5 c 128,-1,30
 381 322 381 322 421 322 c 0,31,32
 485 322 485 322 522 281.5 c 128,-1,33
 559 241 559 241 559 171 c 2,34,-1
 559 145 l 1,35,-1
 321 145 l 1,8,9
176 279 m 256,36,37
 134 279 134 279 110.5 247 c 128,-1,38
 87 215 87 215 87 158 c 256,39,40
 87 101 87 101 110.5 68.5 c 128,-1,41
 134 36 134 36 176 36 c 256,42,43
 218 36 218 36 242.5 68.5 c 128,-1,44
 267 101 267 101 267 158 c 0,45,46
 267 213 267 213 242.5 246 c 128,-1,47
 218 279 218 279 176 279 c 256,36,37
EndSplineSet
EndChar
StartChar: endash
Encoding: 8211 8211 178
Width: 288
Flags: W
Fore
288 138 m 1,0,-1
 0 138 l 1,1,-1
 0 178 l 1,2,-1
 288 178 l 1,3,-1
 288 138 l 1,0,-1
EndSplineSet
EndChar
StartChar: emdash
Encoding: 8212 8212 179
Width: 577
Flags: W
Fore
577 138 m 1,0,-1
 0 138 l 1,1,-1
 0 178 l 1,2,-1
 577 178 l 1,3,-1
 577 138 l 1,0,-1
EndSplineSet
EndChar
StartChar: quotedblleft
Encoding: 8220 8220 180
Width: 299
Flags: W
Fore
48 331 m 1,0,-1
 95 420 l 1,1,-1
 132 420 l 1,2,-1
 108 331 l 1,3,-1
 108 282 l 1,4,-1
 48 282 l 1,5,-1
 48 331 l 1,0,-1
165 331 m 1,6,-1
 211 420 l 1,7,-1
 247 420 l 1,8,-1
 224 331 l 1,9,-1
 224 282 l 1,10,-1
 165 282 l 1,11,-1
 165 331 l 1,6,-1
EndSplineSet
EndChar
StartChar: quotedblright
Encoding: 8221 8221 181
Width: 299
Flags: W
Fore
132 372 m 1,0,-1
 85 282 l 1,1,-1
 48 282 l 1,2,-1
 72 372 l 1,3,-1
 72 420 l 1,4,-1
 132 420 l 1,5,-1
 132 372 l 1,0,-1
247 372 m 1,6,-1
 201 282 l 1,7,-1
 165 282 l 1,8,-1
 187 372 l 1,9,-1
 187 420 l 1,10,-1
 247 420 l 1,11,-1
 247 372 l 1,6,-1
EndSplineSet
EndChar
StartChar: quoteleft
Encoding: 8216 8216 182
Width: 183
Flags: W
Fore
48 331 m 1,0,-1
 95 420 l 1,1,-1
 132 420 l 1,2,-1
 108 331 l 1,3,-1
 108 282 l 1,4,-1
 48 282 l 1,5,-1
 48 331 l 1,0,-1
EndSplineSet
EndChar
StartChar: quoteright
Encoding: 8217 8217 183
Width: 183
Flags: W
Fore
133 378 m 1,0,-1
 87 287 l 1,1,-1
 50 287 l 1,2,-1
 73 378 l 1,3,-1
 73 420 l 1,4,-1
 133 420 l 1,5,-1
 133 378 l 1,0,-1
EndSplineSet
EndChar
StartChar: divide
Encoding: 247 247 184
Width: 483
Flags: W
Fore
276 250 m 1,0,-1
 207 250 l 1,1,-1
 207 320 l 1,2,-1
 276 320 l 1,3,-1
 276 250 l 1,0,-1
276 42 m 1,4,-1
 207 42 l 1,5,-1
 207 111 l 1,6,-1
 276 111 l 1,7,-1
 276 42 l 1,4,-1
422 157 m 1,8,-1
 62 157 l 1,9,-1
 62 205 l 1,10,-1
 422 205 l 1,11,-1
 422 157 l 1,8,-1
EndSplineSet
EndChar
StartChar: lozenge
Encoding: 9674 9674 185
Width: 285
Flags: W
Fore
142 -65 m 1,0,-1
 251 167 l 1,1,-1
 142 397 l 1,2,-1
 34 167 l 1,3,-1
 142 -65 l 1,0,-1
142 -134 m 1,4,-1
 1 167 l 1,5,-1
 142 466 l 1,6,-1
 283 167 l 1,7,-1
 142 -134 l 1,4,-1
EndSplineSet
EndChar
StartChar: ydieresis
Encoding: 255 255 186
Width: 342
Flags: W
Fore
185 -29 m 1,0,1
 175 -57 175 -57 165 -75 c 128,-1,2
 155 -93 155 -93 143.5 -103 c 128,-1,3
 132 -113 132 -113 118 -117 c 128,-1,4
 104 -121 104 -121 87 -121 c 2,5,-1
 45 -121 l 1,6,-1
 45 -76 l 1,7,-1
 76 -76 l 2,8,9
 87 -76 87 -76 95.5 -74.5 c 128,-1,10
 104 -73 104 -73 110.5 -67 c 128,-1,11
 117 -61 117 -61 123 -50 c 128,-1,12
 129 -39 129 -39 135 -19 c 2,13,-1
 145 5 l 1,14,-1
 18 315 l 1,15,-1
 72 315 l 1,16,-1
 171 69 l 1,17,-1
 269 315 l 1,18,-1
 324 315 l 1,19,-1
 185 -29 l 1,20,-1
 185 -29 l 1,0,1
255 380 m 1,21,-1
 198 380 l 1,22,-1
 198 437 l 1,23,-1
 255 437 l 1,24,-1
 255 380 l 1,21,-1
144 380 m 1,25,-1
 88 380 l 1,26,-1
 88 437 l 1,27,-1
 144 437 l 1,28,-1
 144 380 l 1,25,-1
EndSplineSet
EndChar
StartChar: Ydieresis
Encoding: 376 376 187
Width: 352
Flags: W
Fore
176 247 m 1,0,-1
 293 420 l 1,1,-1
 353 420 l 1,2,-1
 205 200 l 1,3,-1
 205 0 l 1,4,-1
 147 0 l 1,5,-1
 147 200 l 1,6,-1
 -1 420 l 1,7,-1
 60 420 l 1,8,-1
 176 247 l 1,0,-1
260 470 m 1,9,-1
 203 470 l 1,10,-1
 203 526 l 1,11,-1
 260 526 l 1,12,-1
 260 470 l 1,9,-1
149 470 m 1,13,-1
 93 470 l 1,14,-1
 93 526 l 1,15,-1
 149 526 l 1,16,-1
 149 470 l 1,13,-1
EndSplineSet
EndChar
StartChar: fraction
Encoding: 8725 8725 188
Width: 364
Flags: W
Fore
326 440 m 1,0,-1
 94 -56 l 1,1,-1
 38 -56 l 1,2,-1
 270 440 l 1,3,-1
 326 440 l 1,0,-1
EndSplineSet
EndChar
StartChar: currency
Encoding: 164 164 189
Width: 364
Flags: W
Fore
256 190 m 256,0,1
 256 216 256 216 238 234 c 0,2,3
 219 253 219 253 193 253 c 256,4,5
 167 253 167 253 148 234 c 0,6,7
 129 216 129 216 129 190 c 0,8,9
 129 162 129 162 148 144 c 0,10,11
 166 126 166 126 193 126 c 256,12,13
 220 126 220 126 238 144 c 0,14,15
 256 164 256 164 256 190 c 256,0,1
298 322 m 1,16,-1
 325 294 l 1,17,-1
 276 245 l 1,18,19
 293 216 293 216 293 189 c 0,20,21
 293 161 293 161 275 134 c 1,22,-1
 325 85 l 1,23,-1
 297 58 l 1,24,-1
 248 107 l 1,25,26
 221 89 221 89 193 89 c 256,27,28
 165 89 165 89 136 106 c 1,29,-1
 88 58 l 1,30,-1
 60 84 l 1,31,-1
 109 133 l 1,32,33
 92 161 92 161 92 189 c 0,34,35
 92 218 92 218 110 245 c 1,36,-1
 60 294 l 1,37,-1
 88 322 l 1,38,-1
 137 272 l 1,39,40
 164 290 164 290 193 290 c 0,41,42
 218 290 218 290 249 273 c 1,43,-1
 298 322 l 1,16,-1
EndSplineSet
EndChar
StartChar: guilsinglleft
Encoding: 8249 8249 190
Width: 231
Flags: W
Fore
92 169 m 1,0,-1
 176 94 l 1,1,-1
 176 40 l 1,2,-1
 44 158 l 1,3,-1
 44 180 l 1,4,-1
 176 299 l 1,5,-1
 176 244 l 1,6,-1
 92 169 l 1,0,-1
EndSplineSet
EndChar
StartChar: guilsinglright
Encoding: 8250 8250 191
Width: 231
Flags: W
Fore
186 158 m 1,0,-1
 55 40 l 1,1,-1
 55 94 l 1,2,-1
 139 169 l 1,3,-1
 55 244 l 1,4,-1
 55 299 l 1,5,-1
 186 180 l 1,6,-1
 186 158 l 1,0,-1
EndSplineSet
EndChar
StartChar: fi
Encoding: 64257 64257 192
Width: 364
Flags: W
Fore
258 0 m 1,0,-1
 258 275 l 1,1,-1
 114 275 l 1,2,-1
 114 0 l 1,3,-1
 63 0 l 1,4,-1
 63 275 l 1,5,-1
 13 275 l 1,6,-1
 13 315 l 1,7,-1
 63 315 l 1,8,-1
 63 338 l 2,9,10
 63 389 63 389 87 413.5 c 128,-1,11
 111 438 111 438 162 438 c 2,12,-1
 214 438 l 1,13,-1
 214 396 l 1,14,-1
 165 396 l 2,15,16
 137 396 137 396 125.5 384.5 c 128,-1,17
 114 373 114 373 114 343 c 2,18,-1
 114 315 l 1,19,-1
 309 315 l 1,20,-1
 309 0 l 1,21,-1
 258 0 l 1,0,-1
309 372 m 1,22,-1
 258 372 l 1,23,-1
 258 438 l 1,24,-1
 309 438 l 1,25,-1
 309 372 l 1,22,-1
EndSplineSet
Ligature: 0 0 'liga' f i
EndChar
StartChar: fl
Encoding: 64258 64258 193
Width: 364
Flags: W
Fore
309 0 m 1,0,-1
 258 0 l 1,1,-1
 258 396 l 1,2,-1
 165 396 l 2,3,4
 137 396 137 396 125.5 384.5 c 128,-1,5
 114 373 114 373 114 343 c 2,6,-1
 114 315 l 1,7,-1
 200 315 l 1,8,-1
 200 275 l 1,9,-1
 114 275 l 1,10,-1
 114 0 l 1,11,-1
 63 0 l 1,12,-1
 63 275 l 1,13,-1
 13 275 l 1,14,-1
 13 315 l 1,15,-1
 63 315 l 1,16,-1
 63 338 l 2,17,18
 63 390 63 390 87 414 c 128,-1,19
 111 438 111 438 165 438 c 2,20,-1
 309 438 l 1,21,-1
 309 0 l 1,0,-1
EndSplineSet
Ligature: 0 0 'liga' f l
EndChar
StartChar: daggerdbl
Encoding: 8225 8225 194
Width: 288
Flags: W
Fore
169 -56 m 1,0,-1
 119 -56 l 1,1,-1
 119 63 l 1,2,-1
 16 63 l 1,3,-1
 16 106 l 1,4,-1
 119 106 l 1,5,-1
 119 259 l 1,6,-1
 16 259 l 1,7,-1
 16 302 l 1,8,-1
 119 302 l 1,9,-1
 119 420 l 1,10,-1
 169 420 l 1,11,-1
 169 302 l 1,12,-1
 273 302 l 1,13,-1
 273 259 l 1,14,-1
 169 259 l 1,15,-1
 169 106 l 1,16,-1
 273 106 l 1,17,-1
 273 63 l 1,18,-1
 169 63 l 1,19,-1
 169 -56 l 1,0,-1
EndSplineSet
EndChar
StartChar: periodcentered
Encoding: 183 183 195
Width: 183
Flags: W
Fore
122 165 m 1,0,-1
 62 165 l 1,1,-1
 62 236 l 1,2,-1
 122 236 l 1,3,-1
 122 165 l 1,0,-1
EndSplineSet
EndChar
StartChar: quotesinglbase
Encoding: 8218 8218 196
Width: 183
Flags: W
Fore
132 23 m 1,0,-1
 85 -67 l 1,1,-1
 48 -67 l 1,2,-1
 72 23 l 1,3,-1
 72 71 l 1,4,-1
 132 71 l 1,5,-1
 132 23 l 1,0,-1
EndSplineSet
EndChar
StartChar: quotedblbase
Encoding: 8222 8222 197
Width: 299
Flags: W
Fore
247 23 m 1,0,-1
 201 -67 l 1,1,-1
 165 -67 l 1,2,-1
 187 23 l 1,3,-1
 187 71 l 1,4,-1
 247 71 l 1,5,-1
 247 23 l 1,0,-1
132 23 m 1,6,-1
 85 -67 l 1,7,-1
 48 -67 l 1,8,-1
 72 23 l 1,9,-1
 72 71 l 1,10,-1
 132 71 l 1,11,-1
 132 23 l 1,6,-1
EndSplineSet
EndChar
StartChar: perthousand
Encoding: 8240 8240 198
Width: 774
Flags: W
Fore
646 185 m 0,0,1
 621 185 621 185 607 164 c 128,-1,2
 593 143 593 143 593 106 c 256,3,4
 593 69 593 69 607 48.5 c 128,-1,5
 621 28 621 28 646 28 c 0,6,7
 670 28 670 28 683.5 48.5 c 128,-1,8
 697 69 697 69 697 106 c 256,9,10
 697 143 697 143 683.5 164 c 128,-1,11
 670 185 670 185 646 185 c 0,0,1
646 220 m 0,12,13
 691 220 691 220 717 190 c 128,-1,14
 743 160 743 160 743 106 c 0,15,16
 743 54 743 54 716 23 c 128,-1,17
 689 -8 689 -8 646 -8 c 0,18,19
 600 -8 600 -8 574 23 c 128,-1,20
 548 54 548 54 548 106 c 0,21,22
 548 160 548 160 574 190 c 128,-1,23
 600 220 600 220 646 220 c 0,12,13
129 428 m 256,24,25
 174 428 174 428 200.5 398 c 128,-1,26
 227 368 227 368 227 314 c 256,27,28
 227 260 227 260 200.5 229.5 c 128,-1,29
 174 199 174 199 129 199 c 256,30,31
 84 199 84 199 58 229.5 c 128,-1,32
 32 260 32 260 32 314 c 0,33,34
 32 366 32 366 58 397 c 128,-1,35
 84 428 84 428 129 428 c 256,24,25
165 -8 m 1,36,-1
 121 -8 l 1,37,-1
 383 428 l 1,38,-1
 428 428 l 1,39,-1
 165 -8 l 1,36,-1
129 392 m 0,40,41
 105 392 105 392 90.5 371 c 128,-1,42
 76 350 76 350 76 314 c 0,43,44
 76 277 76 277 90 256 c 128,-1,45
 104 235 104 235 129 235 c 0,46,47
 153 235 153 235 167 256 c 128,-1,48
 181 277 181 277 181 314 c 0,49,50
 181 350 181 350 166.5 371 c 128,-1,51
 152 392 152 392 129 392 c 0,40,41
419 220 m 256,52,53
 464 220 464 220 490 190 c 128,-1,54
 516 160 516 160 516 106 c 0,55,56
 516 54 516 54 490 23 c 128,-1,57
 464 -8 464 -8 419 -8 c 256,58,59
 374 -8 374 -8 348 23 c 128,-1,60
 322 54 322 54 322 106 c 0,61,62
 322 160 322 160 348 190 c 128,-1,63
 374 220 374 220 419 220 c 256,52,53
419 185 m 0,64,65
 394 185 394 185 380.5 164 c 128,-1,66
 367 143 367 143 367 106 c 256,67,68
 367 69 367 69 380.5 48.5 c 128,-1,69
 394 28 394 28 419 28 c 0,70,71
 443 28 443 28 457.5 48.5 c 128,-1,72
 472 69 472 69 472 106 c 256,73,74
 472 143 472 143 457.5 164 c 128,-1,75
 443 185 443 185 419 185 c 0,64,65
EndSplineSet
EndChar
StartChar: Acircumflex
Encoding: 194 194 199
Width: 394
Flags: W
Fore
275 156 m 1,0,-1
 197 365 l 1,1,-1
 121 156 l 1,2,-1
 275 156 l 1,0,-1
389 0 m 1,3,-1
 331 0 l 1,4,-1
 293 107 l 1,5,-1
 103 107 l 1,6,-1
 65 0 l 1,7,-1
 4 0 l 1,8,-1
 165 420 l 1,9,-1
 230 420 l 1,10,-1
 389 0 l 1,3,-1
284 460 m 1,11,-1
 245 460 l 1,12,-1
 197 511 l 1,13,-1
 151 460 l 1,14,-1
 112 460 l 1,15,-1
 170 536 l 1,16,-1
 224 536 l 1,17,-1
 284 460 l 1,11,-1
EndSplineSet
EndChar
StartChar: Ecircumflex
Encoding: 202 202 200
Width: 365
Flags: W
Fore
322 373 m 1,0,-1
 113 373 l 1,1,-1
 113 248 l 1,2,-1
 314 248 l 1,3,-1
 314 200 l 1,4,-1
 113 200 l 1,5,-1
 113 47 l 1,6,-1
 328 47 l 1,7,-1
 328 0 l 1,8,-1
 57 0 l 1,9,-1
 57 420 l 1,10,-1
 322 420 l 1,11,-1
 322 373 l 1,0,-1
275 460 m 1,12,-1
 236 460 l 1,13,-1
 188 511 l 1,14,-1
 142 460 l 1,15,-1
 103 460 l 1,16,-1
 161 536 l 1,17,-1
 215 536 l 1,18,-1
 275 460 l 1,12,-1
EndSplineSet
EndChar
StartChar: Aacute
Encoding: 193 193 201
Width: 394
Flags: W
Fore
275 156 m 1,0,-1
 197 365 l 1,1,-1
 121 156 l 1,2,-1
 275 156 l 1,0,-1
389 0 m 1,3,-1
 331 0 l 1,4,-1
 293 107 l 1,5,-1
 103 107 l 1,6,-1
 65 0 l 1,7,-1
 4 0 l 1,8,-1
 165 420 l 1,9,-1
 230 420 l 1,10,-1
 389 0 l 1,3,-1
200 460 m 1,11,-1
 158 460 l 1,12,-1
 213 535 l 1,13,-1
 265 535 l 1,14,-1
 200 460 l 1,11,-1
EndSplineSet
EndChar
StartChar: Edieresis
Encoding: 203 203 202
Width: 365
Flags: W
Fore
322 373 m 1,0,-1
 113 373 l 1,1,-1
 113 248 l 1,2,-1
 314 248 l 1,3,-1
 314 200 l 1,4,-1
 113 200 l 1,5,-1
 113 47 l 1,6,-1
 328 47 l 1,7,-1
 328 0 l 1,8,-1
 57 0 l 1,9,-1
 57 420 l 1,10,-1
 322 420 l 1,11,-1
 322 373 l 1,0,-1
272 470 m 1,12,-1
 215 470 l 1,13,-1
 215 526 l 1,14,-1
 272 526 l 1,15,-1
 272 470 l 1,12,-1
161 470 m 1,16,-1
 105 470 l 1,17,-1
 105 526 l 1,18,-1
 161 526 l 1,19,-1
 161 470 l 1,16,-1
EndSplineSet
EndChar
StartChar: Egrave
Encoding: 200 200 203
Width: 365
Flags: W
Fore
322 373 m 1,0,-1
 113 373 l 1,1,-1
 113 248 l 1,2,-1
 314 248 l 1,3,-1
 314 200 l 1,4,-1
 113 200 l 1,5,-1
 113 47 l 1,6,-1
 328 47 l 1,7,-1
 328 0 l 1,8,-1
 57 0 l 1,9,-1
 57 420 l 1,10,-1
 322 420 l 1,11,-1
 322 373 l 1,0,-1
184 460 m 1,12,-1
 119 535 l 1,13,-1
 173 535 l 1,14,-1
 227 460 l 1,15,-1
 184 460 l 1,12,-1
EndSplineSet
EndChar
StartChar: Iacute
Encoding: 205 205 204
Width: 170
Flags: W
Fore
113 0 m 1,0,-1
 57 0 l 1,1,-1
 57 420 l 1,2,-1
 113 420 l 1,3,-1
 113 0 l 1,0,-1
92 460 m 1,4,-1
 50 460 l 1,5,-1
 105 535 l 1,6,-1
 157 535 l 1,7,-1
 92 460 l 1,4,-1
EndSplineSet
EndChar
StartChar: Icircumflex
Encoding: 206 206 205
Width: 170
Flags: W
Fore
113 0 m 1,0,-1
 57 0 l 1,1,-1
 57 420 l 1,2,-1
 113 420 l 1,3,-1
 113 0 l 1,0,-1
176 460 m 1,4,-1
 137 460 l 1,5,-1
 89 511 l 1,6,-1
 43 460 l 1,7,-1
 4 460 l 1,8,-1
 62 536 l 1,9,-1
 116 536 l 1,10,-1
 176 460 l 1,4,-1
EndSplineSet
EndChar
StartChar: Idieresis
Encoding: 207 207 206
Width: 170
Flags: W
Fore
113 0 m 1,0,-1
 57 0 l 1,1,-1
 57 420 l 1,2,-1
 113 420 l 1,3,-1
 113 0 l 1,0,-1
173 470 m 1,4,-1
 116 470 l 1,5,-1
 116 526 l 1,6,-1
 173 526 l 1,7,-1
 173 470 l 1,4,-1
62 470 m 1,8,-1
 6 470 l 1,9,-1
 6 526 l 1,10,-1
 62 526 l 1,11,-1
 62 470 l 1,8,-1
EndSplineSet
EndChar
StartChar: Igrave
Encoding: 204 204 207
Width: 170
Flags: W
Fore
113 0 m 1,0,-1
 57 0 l 1,1,-1
 57 420 l 1,2,-1
 113 420 l 1,3,-1
 113 0 l 1,0,-1
85 460 m 1,4,-1
 20 535 l 1,5,-1
 74 535 l 1,6,-1
 128 460 l 1,7,-1
 85 460 l 1,4,-1
EndSplineSet
EndChar
StartChar: Oacute
Encoding: 211 211 208
Width: 454
Flags: W
Fore
228 382 m 0,0,1
 165 382 165 382 129 335.5 c 128,-1,2
 93 289 93 289 93 210 c 0,3,4
 93 129 93 129 129 83.5 c 128,-1,5
 165 38 165 38 228 38 c 0,6,7
 289 38 289 38 325.5 83.5 c 128,-1,8
 362 129 362 129 362 210 c 0,9,10
 362 289 362 289 325.5 335.5 c 128,-1,11
 289 382 289 382 228 382 c 0,0,1
228 428 m 0,12,13
 272 428 272 428 307.5 412.5 c 128,-1,14
 343 397 343 397 368.5 368.5 c 128,-1,15
 394 340 394 340 407.5 300 c 128,-1,16
 421 260 421 260 421 210 c 0,17,18
 421 161 421 161 407.5 120.5 c 128,-1,19
 394 80 394 80 368.5 51.5 c 128,-1,20
 343 23 343 23 307.5 7.5 c 128,-1,21
 272 -8 272 -8 228 -8 c 0,22,23
 139 -8 139 -8 85 51 c 0,24,25
 32 110 32 110 32 210 c 0,26,27
 32 309 32 309 85 368 c 0,28,29
 139 428 139 428 228 428 c 0,12,13
230 460 m 1,30,-1
 188 460 l 1,31,-1
 243 535 l 1,32,-1
 295 535 l 1,33,-1
 230 460 l 1,30,-1
EndSplineSet
EndChar
StartChar: Ocircumflex
Encoding: 212 212 209
Width: 454
Flags: W
Fore
228 382 m 0,0,1
 165 382 165 382 129 335.5 c 128,-1,2
 93 289 93 289 93 210 c 0,3,4
 93 129 93 129 129 83.5 c 128,-1,5
 165 38 165 38 228 38 c 0,6,7
 289 38 289 38 325.5 83.5 c 128,-1,8
 362 129 362 129 362 210 c 0,9,10
 362 289 362 289 325.5 335.5 c 128,-1,11
 289 382 289 382 228 382 c 0,0,1
228 428 m 0,12,13
 272 428 272 428 307.5 412.5 c 128,-1,14
 343 397 343 397 368.5 368.5 c 128,-1,15
 394 340 394 340 407.5 300 c 128,-1,16
 421 260 421 260 421 210 c 0,17,18
 421 161 421 161 407.5 120.5 c 128,-1,19
 394 80 394 80 368.5 51.5 c 128,-1,20
 343 23 343 23 307.5 7.5 c 128,-1,21
 272 -8 272 -8 228 -8 c 0,22,23
 139 -8 139 -8 85 51 c 0,24,25
 32 110 32 110 32 210 c 0,26,27
 32 309 32 309 85 368 c 0,28,29
 139 428 139 428 228 428 c 0,12,13
314 460 m 1,30,-1
 275 460 l 1,31,-1
 227 511 l 1,32,-1
 181 460 l 1,33,-1
 142 460 l 1,34,-1
 200 536 l 1,35,-1
 254 536 l 1,36,-1
 314 460 l 1,30,-1
EndSplineSet
EndChar
StartChar: dotlessi
Encoding: 305 305 214
Width: 364
Flags: W
Fore
214 330 m 1,0,-1
 214 42 l 1,1,-1
 322 42 l 1,2,-1
 322 0 l 1,3,-1
 53 0 l 1,4,-1
 53 42 l 1,5,-1
 160 42 l 1,6,-1
 160 288 l 1,7,-1
 76 288 l 1,8,-1
 76 330 l 1,9,-1
 214 330 l 1,0,-1
EndSplineSet
EndChar
StartChar: circumflex
Encoding: 710 710 215
Width: 364
Flags: W
Fore
204 483 m 1,0,-1
 276 372 l 1,1,-1
 235 372 l 1,2,-1
 182 445 l 1,3,-1
 129 372 l 1,4,-1
 88 372 l 1,5,-1
 160 483 l 1,6,-1
 204 483 l 1,0,-1
EndSplineSet
EndChar
StartChar: tilde
Encoding: 732 732 216
Width: 364
Flags: W
Fore
164 420 m 2,0,1
 151 432 151 432 144 432 c 0,2,3
 122 432 122 432 121 386 c 1,4,-1
 85 386 l 1,5,6
 85 426 85 426 100 447.5 c 128,-1,7
 115 469 115 469 142 469 c 0,8,9
 164 469 164 469 183 451 c 2,10,-1
 200 435 l 2,11,12
 211 424 211 424 220 424 c 0,13,14
 231 424 231 424 236.5 434.5 c 128,-1,15
 242 445 242 445 242 469 c 1,16,-1
 279 469 l 1,17,18
 279 430 279 430 264 408 c 128,-1,19
 249 386 249 386 222 386 c 0,20,21
 200 386 200 386 181 404 c 2,22,-1
 164 420 l 2,0,1
EndSplineSet
EndChar
StartChar: macron
Encoding: 175 175 217
Width: 364
Flags: W
Fore
270 450 m 1,0,-1
 270 407 l 1,1,-1
 94 407 l 1,2,-1
 94 450 l 1,3,-1
 270 450 l 1,0,-1
EndSplineSet
EndChar
StartChar: breve
Encoding: 728 728 218
Width: 364
Flags: W
Fore
124 474 m 1,0,1
 132 430 132 430 182 430 c 0,2,3
 231 430 231 430 239 474 c 1,4,-1
 274 474 l 1,5,6
 268 390 268 390 182 390 c 0,7,8
 97 390 97 390 89 474 c 1,9,-1
 124 474 l 1,0,1
EndSplineSet
EndChar
StartChar: dotaccent
Encoding: 729 729 219
Width: 364
Flags: W
Fore
212 458 m 1,0,-1
 212 398 l 1,1,-1
 152 398 l 1,2,-1
 152 458 l 1,3,-1
 212 458 l 1,0,-1
EndSplineSet
EndChar
StartChar: ring
Encoding: 730 730 220
Width: 364
Flags: W
Fore
263 450 m 0,0,1
 263 416 263 416 239 392 c 0,2,3
 217 368 217 368 182 368 c 0,4,5
 148 368 148 368 124 392 c 0,6,7
 101 417 101 417 101 450 c 0,8,9
 101 482 101 482 124 507 c 0,10,11
 149 530 149 530 182 530 c 0,12,13
 216 530 216 530 239 507 c 0,14,15
 263 483 263 483 263 450 c 0,0,1
227 450 m 0,16,17
 227 468 227 468 214 481 c 256,18,19
 201 494 201 494 182 494 c 0,20,21
 162 494 162 494 150 481 c 0,22,23
 137 469 137 469 137 450 c 0,24,25
 137 430 137 430 150 417 c 0,26,27
 162 405 162 405 182 405 c 0,28,29
 201 405 201 405 214 418 c 256,30,31
 227 431 227 431 227 450 c 0,16,17
EndSplineSet
EndChar
StartChar: cedilla
Encoding: 184 184 221
Width: 364
Flags: W
Fore
207 0 m 1,0,1
 239 -35 239 -35 239 -63 c 0,2,3
 239 -117 239 -117 168 -117 c 0,4,5
 144 -117 144 -117 117 -109 c 1,6,-1
 117 -71 l 1,7,8
 127 -76 127 -76 138 -78 c 128,-1,9
 149 -80 149 -80 163 -80 c 0,10,11
 198 -80 198 -80 198 -53 c 0,12,13
 198 -37 198 -37 172 0 c 1,14,-1
 207 0 l 1,15,-1
 207 0 l 1,0,1
EndSplineSet
EndChar
StartChar: hungarumlaut
Encoding: 733 733 222
Width: 364
Flags: W
Fore
208 483 m 1,0,-1
 142 372 l 1,1,-1
 101 372 l 1,2,-1
 158 483 l 1,3,-1
 208 483 l 1,0,-1
309 483 m 1,4,-1
 236 372 l 1,5,-1
 196 372 l 1,6,-1
 256 483 l 1,7,-1
 309 483 l 1,4,-1
EndSplineSet
EndChar
StartChar: ogonek
Encoding: 731 731 223
Width: 364
Flags: W
Fore
191 0 m 1,0,1
 165 -35 165 -35 165 -53 c 0,2,3
 165 -80 165 -80 197 -80 c 0,4,5
 216 -80 216 -80 234 -71 c 1,6,-1
 234 -111 l 1,7,8
 223 -113 223 -113 213 -115 c 128,-1,9
 203 -117 203 -117 194 -117 c 0,10,11
 124 -117 124 -117 124 -63 c 0,12,13
 124 -35 124 -35 156 0 c 1,14,-1
 191 0 l 1,0,1
EndSplineSet
EndChar
StartChar: caron
Encoding: 711 711 224
Width: 364
Flags: W
Fore
88 483 m 1,0,-1
 129 483 l 1,1,-1
 182 411 l 1,2,-1
 235 483 l 1,3,-1
 276 483 l 1,4,-1
 204 372 l 1,5,-1
 160 372 l 1,6,-1
 88 483 l 1,0,-1
EndSplineSet
EndChar
StartChar: Lslash
Encoding: 321 321 225
Width: 324
Flags: W
Fore
116 247 m 1,0,-1
 205 309 l 1,1,-1
 228 278 l 1,2,-1
 116 200 l 1,3,-1
 116 47 l 1,4,-1
 321 47 l 1,5,-1
 321 0 l 1,6,-1
 60 0 l 1,7,-1
 60 161 l 1,8,-1
 18 131 l 1,9,-1
 -4 162 l 1,10,-1
 60 206 l 1,11,-1
 60 420 l 1,12,-1
 116 420 l 1,13,-1
 116 247 l 1,0,-1
EndSplineSet
EndChar
StartChar: lslash
Encoding: 322 322 226
Width: 164
Flags: W
Fore
107 269 m 1,0,-1
 143 295 l 1,1,-1
 165 264 l 1,2,-1
 107 225 l 1,3,-1
 107 0 l 1,4,-1
 56 0 l 1,5,-1
 56 187 l 1,6,-1
 22 163 l 1,7,-1
 0 193 l 1,8,-1
 56 233 l 1,9,-1
 56 438 l 1,10,-1
 107 438 l 1,11,-1
 107 269 l 1,0,-1
EndSplineSet
EndChar
StartChar: Scaron
Encoding: 352 352 227
Width: 366
Flags: W
Fore
309 351 m 1,0,1
 246 382 246 382 193 382 c 0,2,3
 145 382 145 382 120 364 c 128,-1,4
 95 346 95 346 95 313 c 0,5,6
 95 284 95 284 112 270 c 128,-1,7
 129 256 129 256 175 247 c 2,8,-1
 210 240 l 2,9,10
 274 229 274 229 304 198.5 c 128,-1,11
 334 168 334 168 334 116 c 0,12,13
 334 55 334 55 293 23.5 c 128,-1,14
 252 -8 252 -8 173 -8 c 0,15,16
 143 -8 143 -8 109.5 -1.5 c 128,-1,17
 76 5 76 5 40 19 c 1,18,-1
 40 77 l 1,19,20
 74 58 74 58 107.5 48 c 128,-1,21
 141 38 141 38 173 38 c 0,22,23
 221 38 221 38 248 57 c 128,-1,24
 275 76 275 76 275 111 c 0,25,26
 275 143 275 143 255.5 160 c 128,-1,27
 236 177 236 177 194 186 c 2,28,-1
 159 194 l 2,29,30
 95 206 95 206 66.5 233 c 128,-1,31
 38 260 38 260 38 308 c 0,32,33
 38 365 38 365 77 396.5 c 128,-1,34
 116 428 116 428 185 428 c 0,35,36
 215 428 215 428 246 422.5 c 128,-1,37
 277 417 277 417 309 407 c 1,38,-1
 309 351 l 1,39,-1
 309 351 l 1,0,1
137 536 m 1,40,-1
 183 485 l 1,41,-1
 231 536 l 1,42,-1
 270 536 l 1,43,-1
 210 460 l 1,44,-1
 156 460 l 1,45,-1
 98 536 l 1,46,-1
 137 536 l 1,40,-1
EndSplineSet
EndChar
StartChar: scaron
Encoding: 353 353 228
Width: 301
Flags: W
Fore
255 258 m 1,0,1
 234 269 234 269 210 274 c 128,-1,2
 186 279 186 279 161 279 c 0,3,4
 83 279 83 279 83 233 c 0,5,6
 83 214 83 214 97 204 c 128,-1,7
 111 194 111 194 152 184 c 2,8,-1
 171 180 l 2,9,10
 226 169 226 169 249.5 147.5 c 128,-1,11
 273 126 273 126 273 87 c 0,12,13
 273 42 273 42 238 17 c 128,-1,14
 203 -8 203 -8 142 -8 c 0,15,16
 89 -8 89 -8 31 11 c 1,17,-1
 31 65 l 1,18,19
 90 35 90 35 143 35 c 0,20,21
 179 35 179 35 199 48 c 128,-1,22
 219 61 219 61 219 83 c 0,23,24
 219 94 219 94 216 101.5 c 128,-1,25
 213 109 213 109 205 115 c 128,-1,26
 197 121 197 121 181.5 126.5 c 128,-1,27
 166 132 166 132 142 137 c 2,28,-1
 125 141 l 2,29,30
 76 151 76 151 55 172.5 c 128,-1,31
 34 194 34 194 34 231 c 0,32,33
 34 276 34 276 65.5 299 c 128,-1,34
 97 322 97 322 155 322 c 0,35,36
 183 322 183 322 208.5 318.5 c 128,-1,37
 234 315 234 315 255 306 c 1,38,-1
 255 258 l 1,39,-1
 255 258 l 1,0,1
100 461 m 1,40,-1
 150 392 l 1,41,-1
 201 461 l 1,42,-1
 240 461 l 1,43,-1
 171 355 l 1,44,-1
 130 355 l 1,45,-1
 61 461 l 1,46,-1
 100 461 l 1,40,-1
EndSplineSet
EndChar
StartChar: Zcaron
Encoding: 381 381 229
Width: 396
Flags: W
Fore
363 377 m 1,0,-1
 97 47 l 1,1,-1
 369 47 l 1,2,-1
 369 0 l 1,3,-1
 26 0 l 1,4,-1
 26 43 l 1,5,-1
 291 373 l 1,6,-1
 32 373 l 1,7,-1
 32 420 l 1,8,-1
 363 420 l 1,9,-1
 363 377 l 1,0,-1
152 536 m 1,10,-1
 198 485 l 1,11,-1
 246 536 l 1,12,-1
 285 536 l 1,13,-1
 225 460 l 1,14,-1
 171 460 l 1,15,-1
 113 536 l 1,16,-1
 152 536 l 1,10,-1
EndSplineSet
EndChar
StartChar: zcaron
Encoding: 382 382 230
Width: 303
Flags: W
Fore
278 268 m 1,0,-1
 83 41 l 1,1,-1
 278 41 l 1,2,-1
 278 0 l 1,3,-1
 25 0 l 1,4,-1
 25 47 l 1,5,-1
 219 274 l 1,6,-1
 32 274 l 1,7,-1
 32 315 l 1,8,-1
 278 315 l 1,9,-1
 278 268 l 1,0,-1
101 461 m 1,10,-1
 151 392 l 1,11,-1
 202 461 l 1,12,-1
 241 461 l 1,13,-1
 172 355 l 1,14,-1
 131 355 l 1,15,-1
 62 461 l 1,16,-1
 101 461 l 1,10,-1
EndSplineSet
EndChar
StartChar: brokenbar
Encoding: 166 166 231
Width: 194
Flags: W
Fore
73 -99 m 1,0,-1
 73 114 l 1,1,-1
 122 114 l 1,2,-1
 122 -99 l 1,3,-1
 73 -99 l 1,0,-1
73 190 m 1,4,-1
 73 404 l 1,5,-1
 122 404 l 1,6,-1
 122 190 l 1,7,-1
 73 190 l 1,4,-1
EndSplineSet
EndChar
StartChar: Eth
Encoding: 208 208 232
Width: 447
Flags: W
Fore
176 420 m 1,0,1
 300 420 300 420 356.5 370 c 128,-1,2
 413 320 413 320 413 211 c 256,3,4
 413 102 413 102 356.5 51 c 128,-1,5
 300 0 300 0 176 0 c 2,6,-1
 60 0 l 1,7,-1
 60 197 l 1,8,-1
 3 197 l 1,9,-1
 3 238 l 1,10,-1
 60 238 l 1,11,-1
 60 420 l 1,12,-1
 176 420 l 1,13,-1
 176 420 l 1,0,1
211 238 m 1,14,-1
 211 197 l 1,15,-1
 116 197 l 1,16,-1
 116 46 l 1,17,-1
 185 46 l 2,18,19
 273 46 273 46 313 86 c 128,-1,20
 353 126 353 126 353 211 c 256,21,22
 353 296 353 296 313 335 c 128,-1,23
 273 374 273 374 185 374 c 2,24,-1
 116 374 l 1,25,-1
 116 238 l 1,26,-1
 211 238 l 1,14,-1
EndSplineSet
EndChar
StartChar: eth
Encoding: 240 240 233
Width: 353
Flags: W
Fore
236 258 m 1,0,1
 221 263 221 263 209 265 c 128,-1,2
 197 267 197 267 185 267 c 0,3,4
 139 267 139 267 113 236.5 c 128,-1,5
 87 206 87 206 87 151 c 0,6,7
 87 97 87 97 110.5 66.5 c 128,-1,8
 134 36 134 36 176 36 c 256,9,10
 218 36 218 36 242.5 66.5 c 128,-1,11
 267 97 267 97 267 151 c 0,12,13
 267 217 267 217 236 258 c 1,0,1
254 321 m 1,14,15
 289 281 289 281 305 240.5 c 128,-1,16
 321 200 321 200 321 151 c 0,17,18
 321 115 321 115 310.5 85.5 c 128,-1,19
 300 56 300 56 281 35.5 c 128,-1,20
 262 15 262 15 235.5 3.5 c 128,-1,21
 209 -8 209 -8 176 -8 c 0,22,23
 110 -8 110 -8 71 35.5 c 128,-1,24
 32 79 32 79 32 151 c 0,25,26
 32 186 32 186 42 215 c 128,-1,27
 52 244 52 244 70.5 265 c 128,-1,28
 89 286 89 286 115 297.5 c 128,-1,29
 141 309 141 309 172 309 c 0,30,31
 177 309 177 309 184.5 308.5 c 128,-1,32
 192 308 192 308 203 306 c 1,33,-1
 159 357 l 1,34,-1
 69 327 l 1,35,-1
 60 355 l 1,36,-1
 139 381 l 1,37,-1
 88 438 l 1,38,-1
 151 438 l 1,39,-1
 187 398 l 1,40,-1
 281 428 l 1,41,-1
 290 402 l 1,42,-1
 208 374 l 1,43,-1
 254 321 l 1,44,-1
 254 321 l 1,14,15
EndSplineSet
EndChar
StartChar: Yacute
Encoding: 221 221 234
Width: 352
Flags: W
Fore
176 247 m 1,0,-1
 293 420 l 1,1,-1
 353 420 l 1,2,-1
 205 200 l 1,3,-1
 205 0 l 1,4,-1
 147 0 l 1,5,-1
 147 200 l 1,6,-1
 -1 420 l 1,7,-1
 60 420 l 1,8,-1
 176 247 l 1,0,-1
179 460 m 1,9,-1
 137 460 l 1,10,-1
 192 535 l 1,11,-1
 244 535 l 1,12,-1
 179 460 l 1,9,-1
EndSplineSet
EndChar
StartChar: yacute
Encoding: 253 253 235
Width: 342
Flags: W
Fore
185 -29 m 1,0,1
 175 -57 175 -57 165 -75 c 128,-1,2
 155 -93 155 -93 143.5 -103 c 128,-1,3
 132 -113 132 -113 118 -117 c 128,-1,4
 104 -121 104 -121 87 -121 c 2,5,-1
 45 -121 l 1,6,-1
 45 -76 l 1,7,-1
 76 -76 l 2,8,9
 87 -76 87 -76 95.5 -74.5 c 128,-1,10
 104 -73 104 -73 110.5 -67 c 128,-1,11
 117 -61 117 -61 123 -50 c 128,-1,12
 129 -39 129 -39 135 -19 c 2,13,-1
 145 5 l 1,14,-1
 18 315 l 1,15,-1
 72 315 l 1,16,-1
 171 69 l 1,17,-1
 269 315 l 1,18,-1
 324 315 l 1,19,-1
 185 -29 l 1,20,-1
 185 -29 l 1,0,1
174 355 m 1,21,-1
 132 355 l 1,22,-1
 210 461 l 1,23,-1
 266 461 l 1,24,-1
 174 355 l 1,21,-1
EndSplineSet
EndChar
StartChar: Thorn
Encoding: 222 222 236
Width: 349
Flags: W
Fore
113 346 m 1,0,-1
 185 346 l 2,1,2
 255 346 255 346 291.5 314.5 c 128,-1,3
 328 283 328 283 328 220 c 0,4,5
 328 159 328 159 291.5 127 c 128,-1,6
 255 95 255 95 185 95 c 2,7,-1
 113 95 l 1,8,-1
 113 0 l 1,9,-1
 57 0 l 1,10,-1
 57 420 l 1,11,-1
 113 420 l 1,12,-1
 113 346 l 1,0,-1
185 142 m 2,13,14
 225 142 225 142 246.5 162.5 c 128,-1,15
 268 183 268 183 268 220 c 0,16,17
 268 259 268 259 246.5 279.5 c 128,-1,18
 225 300 225 300 185 300 c 2,19,-1
 113 300 l 1,20,-1
 113 142 l 1,21,-1
 185 142 l 2,13,14
EndSplineSet
EndChar
StartChar: thorn
Encoding: 254 254 237
Width: 366
Flags: W
Fore
53 -121 m 1,0,-1
 53 438 l 1,1,-1
 105 438 l 1,2,-1
 105 268 l 1,3,4
 137 322 137 322 205 322 c 0,5,6
 263 322 263 322 299 277.5 c 128,-1,7
 335 233 335 233 335 158 c 256,8,9
 335 83 335 83 299 37.5 c 128,-1,10
 263 -8 263 -8 205 -8 c 0,11,12
 136 -8 136 -8 105 47 c 1,13,-1
 105 -121 l 1,14,-1
 53 -121 l 1,0,-1
280 158 m 0,15,16
 280 215 280 215 257.5 247 c 128,-1,17
 235 279 235 279 193 279 c 256,18,19
 151 279 151 279 128 247 c 128,-1,20
 105 215 105 215 105 158 c 0,21,22
 105 100 105 100 128 67.5 c 128,-1,23
 151 35 151 35 193 35 c 256,24,25
 235 35 235 35 257.5 67.5 c 128,-1,26
 280 100 280 100 280 158 c 0,15,16
EndSplineSet
EndChar
StartChar: minus
Encoding: 8722 8722 238
Width: 483
Flags: W
Fore
422 157 m 1,0,-1
 62 157 l 1,1,-1
 62 205 l 1,2,-1
 422 205 l 1,3,-1
 422 157 l 1,0,-1
EndSplineSet
EndChar
StartChar: multiply
Encoding: 215 215 239
Width: 483
Flags: W
Fore
405 52 m 1,0,-1
 371 18 l 1,1,-1
 241 147 l 1,2,-1
 112 18 l 1,3,-1
 79 52 l 1,4,-1
 208 180 l 1,5,-1
 79 310 l 1,6,-1
 112 344 l 1,7,-1
 241 214 l 1,8,-1
 371 344 l 1,9,-1
 405 310 l 1,10,-1
 276 180 l 1,11,-1
 405 52 l 1,0,-1
EndSplineSet
EndChar
StartChar: onesuperior
Encoding: 185 185 240
Width: 232
Flags: W
Fore
102 391 m 1,0,-1
 39 380 l 1,1,-1
 39 412 l 1,2,-1
 104 423 l 1,3,-1
 142 423 l 1,4,-1
 142 219 l 1,5,-1
 200 219 l 1,6,-1
 200 188 l 1,7,-1
 43 188 l 1,8,-1
 43 219 l 1,9,-1
 102 219 l 1,10,-1
 102 391 l 1,0,-1
EndSplineSet
EndChar
StartChar: twosuperior
Encoding: 178 178 241
Width: 232
Flags: W
Fore
195 188 m 1,0,-1
 27 188 l 1,1,-1
 27 219 l 1,2,3
 36 228 36 228 54 243 c 0,4,5
 150 330 150 330 150 356 c 0,6,7
 150 375 150 375 136 386.5 c 128,-1,8
 122 398 122 398 98 398 c 0,9,10
 83 398 83 398 65.5 392.5 c 128,-1,11
 48 387 48 387 28 378 c 1,12,-1
 28 412 l 1,13,14
 49 420 49 420 68.5 424 c 128,-1,15
 88 428 88 428 104 428 c 0,16,17
 144 428 144 428 169 409 c 128,-1,18
 194 390 194 390 194 361 c 0,19,20
 194 320 194 320 100 241 c 0,21,22
 92 234 92 234 86 229 c 128,-1,23
 80 224 80 224 75 220 c 1,24,-1
 195 220 l 1,25,-1
 195 188 l 1,0,-1
EndSplineSet
EndChar
StartChar: threesuperior
Encoding: 179 179 242
Width: 232
Flags: W
Fore
147 315 m 1,0,1
 202 305 202 305 202 256 c 0,2,3
 202 221 202 221 175 202.5 c 128,-1,4
 148 184 148 184 99 184 c 0,5,6
 66 184 66 184 28 196 c 1,7,-1
 28 230 l 1,8,9
 42 221 42 221 59 217.5 c 128,-1,10
 76 214 76 214 95 214 c 0,11,12
 126 214 126 214 142.5 225.5 c 128,-1,13
 159 237 159 237 159 256 c 0,14,15
 159 299 159 299 98 299 c 2,16,-1
 73 299 l 1,17,-1
 73 330 l 1,18,-1
 100 330 l 2,19,20
 153 330 153 330 153 365 c 0,21,22
 153 380 153 380 139.5 389 c 128,-1,23
 126 398 126 398 99 398 c 0,24,25
 88 398 88 398 73.5 395 c 128,-1,26
 59 392 59 392 36 386 c 1,27,-1
 36 418 l 1,28,29
 75 428 75 428 107 428 c 0,30,31
 149 428 149 428 172.5 411 c 128,-1,32
 196 394 196 394 196 367 c 0,33,34
 196 325 196 325 147 315 c 1,0,1
EndSplineSet
EndChar
StartChar: onequarter
Encoding: 188 188 243
Width: 559
Flags: W
Fore
102 391 m 1,0,-1
 39 380 l 1,1,-1
 39 412 l 1,2,-1
 104 423 l 1,3,-1
 142 423 l 1,4,-1
 142 219 l 1,5,-1
 200 219 l 1,6,-1
 200 188 l 1,7,-1
 43 188 l 1,8,-1
 43 219 l 1,9,-1
 102 219 l 1,10,-1
 102 391 l 1,0,-1
173 -8 m 1,11,-1
 129 -8 l 1,12,-1
 384 416 l 1,13,-1
 428 416 l 1,14,-1
 173 -8 l 1,11,-1
462 87 m 1,15,-1
 462 205 l 1,16,-1
 375 87 l 1,17,-1
 462 87 l 1,15,-1
503 87 m 1,18,-1
 541 87 l 1,19,-1
 541 56 l 1,20,-1
 503 56 l 1,21,-1
 503 4 l 1,22,-1
 462 4 l 1,23,-1
 462 56 l 1,24,-1
 346 56 l 1,25,-1
 346 91 l 1,26,-1
 457 239 l 1,27,-1
 503 239 l 1,28,-1
 503 87 l 1,18,-1
EndSplineSet
Ligature: 0 0 'frac' one fraction four
Ligature: 0 0 'frac' one slash four
EndChar
StartChar: onehalf
Encoding: 189 189 244
Width: 559
Flags: W
Fore
102 391 m 1,0,-1
 39 380 l 1,1,-1
 39 412 l 1,2,-1
 104 423 l 1,3,-1
 142 423 l 1,4,-1
 142 219 l 1,5,-1
 200 219 l 1,6,-1
 200 188 l 1,7,-1
 43 188 l 1,8,-1
 43 219 l 1,9,-1
 102 219 l 1,10,-1
 102 391 l 1,0,-1
173 -8 m 1,11,-1
 129 -8 l 1,12,-1
 384 416 l 1,13,-1
 428 416 l 1,14,-1
 173 -8 l 1,11,-1
523 4 m 1,15,-1
 355 4 l 1,16,-1
 355 35 l 1,17,18
 364 44 364 44 382 59 c 0,19,20
 478 146 478 146 478 172 c 0,21,22
 478 191 478 191 464 202.5 c 128,-1,23
 450 214 450 214 426 214 c 0,24,25
 411 214 411 214 393.5 208.5 c 128,-1,26
 376 203 376 203 356 194 c 1,27,-1
 356 228 l 1,28,29
 377 236 377 236 396.5 240 c 128,-1,30
 416 244 416 244 432 244 c 0,31,32
 472 244 472 244 497 225 c 128,-1,33
 522 206 522 206 522 177 c 0,34,35
 522 136 522 136 428 57 c 0,36,37
 420 50 420 50 414 45 c 128,-1,38
 408 40 408 40 403 36 c 1,39,-1
 523 36 l 1,40,-1
 523 4 l 1,15,-1
EndSplineSet
Ligature: 0 0 'frac' one fraction two
Ligature: 0 0 'frac' one slash two
EndChar
StartChar: threequarters
Encoding: 190 190 245
Width: 559
Flags: W
Fore
147 315 m 1,0,1
 202 305 202 305 202 256 c 0,2,3
 202 221 202 221 175 202.5 c 128,-1,4
 148 184 148 184 99 184 c 0,5,6
 66 184 66 184 28 196 c 1,7,-1
 28 230 l 1,8,9
 42 221 42 221 59 217.5 c 128,-1,10
 76 214 76 214 95 214 c 0,11,12
 126 214 126 214 142.5 225.5 c 128,-1,13
 159 237 159 237 159 256 c 0,14,15
 159 299 159 299 98 299 c 2,16,-1
 73 299 l 1,17,-1
 73 330 l 1,18,-1
 100 330 l 2,19,20
 153 330 153 330 153 365 c 0,21,22
 153 380 153 380 139.5 389 c 128,-1,23
 126 398 126 398 99 398 c 0,24,25
 88 398 88 398 73.5 395 c 128,-1,26
 59 392 59 392 36 386 c 1,27,-1
 36 418 l 1,28,29
 75 428 75 428 107 428 c 0,30,31
 149 428 149 428 172.5 411 c 128,-1,32
 196 394 196 394 196 367 c 0,33,34
 196 325 196 325 147 315 c 1,0,1
173 -8 m 1,35,-1
 129 -8 l 1,36,-1
 384 416 l 1,37,-1
 428 416 l 1,38,-1
 173 -8 l 1,35,-1
462 87 m 1,39,-1
 462 205 l 1,40,-1
 375 87 l 1,41,-1
 462 87 l 1,39,-1
503 87 m 1,42,-1
 541 87 l 1,43,-1
 541 56 l 1,44,-1
 503 56 l 1,45,-1
 503 4 l 1,46,-1
 462 4 l 1,47,-1
 462 56 l 1,48,-1
 346 56 l 1,49,-1
 346 91 l 1,50,-1
 457 239 l 1,51,-1
 503 239 l 1,52,-1
 503 87 l 1,42,-1
EndSplineSet
Ligature: 0 0 'frac' three fraction four
Ligature: 0 0 'frac' three slash four
EndChar
StartChar: dcroat
Encoding: 273 273 255
Width: 364
Flags: W
Fore
253 379 m 1,0,-1
 163 379 l 1,1,-1
 163 415 l 1,2,-1
 253 415 l 1,3,-1
 253 459 l 1,4,-1
 307 459 l 1,5,-1
 307 415 l 1,6,-1
 364 415 l 1,7,-1
 364 379 l 1,8,-1
 307 379 l 1,9,-1
 307 0 l 1,10,-1
 253 0 l 1,11,-1
 253 42 l 1,12,13
 225 -9 225 -9 165 -9 c 0,14,15
 106 -9 106 -9 71 38 c 256,16,17
 36 85 36 85 36 166 c 0,18,19
 36 246 36 246 71 292 c 0,20,21
 105 338 105 338 165 338 c 0,22,23
 227 338 227 338 253 288 c 1,24,-1
 253 379 l 1,0,-1
94 165 m 0,25,26
 94 37 94 37 173 37 c 0,27,28
 253 37 253 37 253 165 c 0,29,30
 253 292 253 292 173 292 c 0,31,32
 94 292 94 292 94 165 c 0,25,26
EndSplineSet
EndChar
StartChar: sfthyphen
Encoding: 173 173 256
Width: 364
Flags: W
Fore
259 190 m 1,0,-1
 259 141 l 1,1,-1
 105 141 l 1,2,-1
 105 190 l 1,3,-1
 259 190 l 1,0,-1
EndSplineSet
EndChar
StartChar: periodcentered
Encoding: 8729 8729 257
Width: 364
Flags: W
Fore
219 255 m 1,0,-1
 219 165 l 1,1,-1
 145 165 l 1,2,-1
 145 255 l 1,3,-1
 219 255 l 1,0,-1
EndSplineSet
EndChar
StartChar: Euro
Encoding: 8364 8364 258
Width: 367
Flags: W
Fore
329 328 m 1,0,1
 303 357 303 357 279 370 c 128,-1,2
 255 383 255 383 227 383 c 0,3,4
 135 383 135 383 116 274 c 1,5,-1
 279 274 l 1,6,-1
 264 239 l 1,7,-1
 112 239 l 1,8,9
 111 233 111 233 111 226 c 128,-1,10
 111 219 111 219 111 210 c 256,11,12
 111 201 111 201 111 194.5 c 128,-1,13
 111 188 111 188 112 181 c 1,14,-1
 238 181 l 1,15,-1
 221 146 l 1,16,-1
 116 146 l 1,17,18
 126 94 126 94 154 65.5 c 128,-1,19
 182 37 182 37 227 37 c 0,20,21
 255 37 255 37 279 50 c 128,-1,22
 303 63 303 63 329 92 c 1,23,-1
 329 32 l 1,24,25
 280 -8 280 -8 225 -8 c 0,26,27
 158 -8 158 -8 114.5 32.5 c 128,-1,28
 71 73 71 73 60 146 c 1,29,-1
 0 146 l 1,30,-1
 15 181 l 1,31,-1
 55 181 l 1,32,-1
 55 210 l 1,33,-1
 55 239 l 1,34,-1
 0 239 l 1,35,-1
 15 274 l 1,36,-1
 60 274 l 1,37,38
 71 346 71 346 114.5 387 c 128,-1,39
 158 428 158 428 225 428 c 0,40,41
 280 428 280 428 329 388 c 1,42,-1
 329 328 l 1,43,-1
 329 328 l 1,0,1
EndSplineSet
EndChar
StartChar: c6459
Encoding: 65539 -1 259
Width: 364
Flags: W
Fore
154 442 m 1,0,-1
 154 382 l 1,1,-1
 94 382 l 1,2,-1
 94 442 l 1,3,-1
 154 442 l 1,0,-1
269 442 m 1,4,-1
 269 382 l 1,5,-1
 210 382 l 1,6,-1
 210 442 l 1,7,-1
 269 442 l 1,4,-1
EndSplineSet
EndChar
StartChar: c6460
Encoding: 65540 -1 260
Width: 364
Flags: W
Fore
253 450 m 1,0,-1
 186 372 l 1,1,-1
 140 372 l 1,2,-1
 198 450 l 1,3,-1
 253 450 l 1,0,-1
EndSplineSet
EndChar
StartChar: c6461
Encoding: 65541 -1 261
Width: 364
Flags: W
Fore
164 404 m 2,0,1
 151 412 151 412 144 412 c 0,2,3
 122 412 122 412 122 384 c 2,4,-1
 122 382 l 1,5,-1
 85 382 l 1,6,7
 85 412 85 412 100 429 c 128,-1,8
 115 446 115 446 140 446 c 0,9,10
 145 446 145 446 150 445.5 c 128,-1,11
 155 445 155 445 160 444 c 256,12,13
 165 443 165 443 170 440.5 c 128,-1,14
 175 438 175 438 183 434 c 2,15,-1
 200 425 l 2,16,17
 214 417 214 417 221 417 c 0,18,19
 230 417 230 417 236 424.5 c 128,-1,20
 242 432 242 432 242 445 c 2,21,-1
 242 446 l 1,22,-1
 279 446 l 1,23,24
 278 417 278 417 263.5 399.5 c 128,-1,25
 249 382 249 382 224 382 c 0,26,27
 219 382 219 382 214.5 382.5 c 128,-1,28
 210 383 210 383 205 384 c 1,29,30
 200 386 200 386 194.5 388 c 128,-1,31
 189 390 189 390 181 394 c 2,32,-1
 164 404 l 2,0,1
EndSplineSet
EndChar
StartChar: c6468
Encoding: 65542 -1 262
Width: 364
Flags: W
Fore
224 372 m 1,0,-1
 178 372 l 1,1,-1
 111 450 l 1,2,-1
 165 450 l 1,3,-1
 224 372 l 1,0,-1
EndSplineSet
EndChar
StartChar: c6470
Encoding: 65543 -1 263
Width: 364
Flags: W
Fore
210 451 m 1,0,-1
 272 372 l 1,1,-1
 231 372 l 1,2,-1
 182 425 l 1,3,-1
 133 372 l 1,4,-1
 92 372 l 1,5,-1
 154 451 l 1,6,-1
 210 451 l 1,0,-1
EndSplineSet
EndChar
StartChar: c6472
Encoding: 65544 -1 264
Width: 364
Flags: W
Fore
92 451 m 1,0,-1
 133 451 l 1,1,-1
 182 398 l 1,2,-1
 231 451 l 1,3,-1
 272 451 l 1,4,-1
 210 372 l 1,5,-1
 154 372 l 1,6,-1
 92 451 l 1,0,-1
EndSplineSet
EndChar
StartChar: c6477
Encoding: 65545 -1 265
Width: 364
Flags: W
Fore
8 181 m 1,0,-1
 321 258 l 1,1,-1
 329 226 l 1,2,-1
 15 149 l 1,3,-1
 8 181 l 1,0,-1
EndSplineSet
EndChar
StartChar: c6478
Encoding: 65546 -1 266
Width: 364
Flags: W
Fore
234 443 m 1,0,-1
 234 285 l 1,1,-1
 268 285 l 1,2,-1
 268 252 l 1,3,-1
 234 252 l 1,4,-1
 234 197 l 1,5,-1
 193 197 l 1,6,-1
 193 252 l 1,7,-1
 79 252 l 1,8,-1
 79 288 l 1,9,-1
 186 443 l 1,10,-1
 234 443 l 1,0,-1
112 285 m 1,11,-1
 193 285 l 1,12,-1
 193 407 l 1,13,-1
 112 285 l 1,11,-1
EndSplineSet
EndChar
StartChar: c6475
Encoding: 65547 -1 267
Width: 364
Flags: W
Fore
124 451 m 1,0,1
 132 418 132 418 182 418 c 0,2,3
 230 418 230 418 239 451 c 1,4,-1
 274 451 l 1,5,6
 268 379 268 379 182 379 c 0,7,8
 97 379 97 379 89 451 c 1,9,-1
 124 451 l 1,0,1
EndSplineSet
EndChar
StartChar: c6476
Encoding: 65548 -1 268
Width: 364
Flags: W
Fore
212 442 m 1,0,-1
 212 382 l 1,1,-1
 152 382 l 1,2,-1
 152 442 l 1,3,-1
 212 442 l 1,0,-1
EndSplineSet
EndChar
StartChar: uni0E01
Encoding: 3585 3585 270
Width: 413
Flags: W
Fore
139 293 m 1,0,-1
 139 256 l 1,1,2
 120 250 120 250 110.5 233.5 c 128,-1,3
 101 217 101 217 101 198 c 2,4,-1
 101 0 l 1,5,-1
 54 0 l 1,6,-1
 54 204 l 2,7,8
 54 224 54 224 61 233 c 128,-1,9
 68 242 68 242 82 255 c 2,10,-1
 84 257 l 1,11,-1
 18 257 l 1,12,-1
 18 317 l 1,13,14
 23 323 23 323 32.5 330.5 c 128,-1,15
 42 338 42 338 48 343 c 0,16,17
 81 366 81 366 112.5 377 c 128,-1,18
 144 388 144 388 184 388 c 0,19,20
 213 388 213 388 243.5 382 c 128,-1,21
 274 376 274 376 299 362 c 128,-1,22
 324 348 324 348 340 325.5 c 128,-1,23
 356 303 356 303 356 270 c 2,24,-1
 356 0 l 1,25,-1
 308 0 l 1,26,-1
 308 258 l 2,27,28
 308 276 308 276 302.5 292.5 c 128,-1,29
 297 309 297 309 283 322.5 c 128,-1,30
 269 336 269 336 245.5 344 c 128,-1,31
 222 352 222 352 187 352 c 0,32,33
 158 352 158 352 136.5 345 c 128,-1,34
 115 338 115 338 100 329 c 0,35,36
 83 319 83 319 70 306 c 2,37,-1
 58 293 l 1,38,-1
 139 293 l 1,0,-1
EndSplineSet
EndChar
StartChar: uni0E02
Encoding: 3586 3586 271
Width: 377
Flags: W
Fore
137 283 m 0,0,1
 137 254 137 254 118 237.5 c 128,-1,2
 99 221 99 221 72 221 c 0,3,4
 40 221 40 221 25 239.5 c 128,-1,5
 10 258 10 258 10 288 c 0,6,7
 10 309 10 309 18 327.5 c 128,-1,8
 26 346 26 346 39.5 359.5 c 128,-1,9
 53 373 53 373 71 381 c 128,-1,10
 89 389 89 389 110 389 c 0,11,12
 162 389 162 389 190.5 362.5 c 128,-1,13
 219 336 219 336 219 284 c 0,14,15
 219 268 219 268 208 249 c 128,-1,16
 197 230 197 230 184.5 211.5 c 128,-1,17
 172 193 172 193 161 175 c 128,-1,18
 150 157 150 157 150 142 c 2,19,-1
 150 36 l 1,20,-1
 273 36 l 1,21,-1
 273 383 l 1,22,-1
 320 383 l 1,23,-1
 320 0 l 1,24,-1
 103 0 l 1,25,-1
 103 136 l 2,26,27
 103 161 103 161 114.5 180.5 c 128,-1,28
 126 200 126 200 139.5 218 c 128,-1,29
 153 236 153 236 164.5 254.5 c 128,-1,30
 176 273 176 273 176 296 c 0,31,32
 176 323 176 323 156.5 338.5 c 128,-1,33
 137 354 137 354 111 354 c 0,34,35
 97 354 97 354 88 349.5 c 128,-1,36
 79 345 79 345 71 333 c 1,37,38
 76 334 76 334 79.5 335 c 128,-1,39
 83 336 83 336 88 336 c 0,40,41
 95 336 95 336 98 335 c 0,42,43
 121 330 121 330 129 316 c 128,-1,44
 137 302 137 302 137 283 c 0,0,1
50 279 m 0,45,46
 50 267 50 267 58 260.5 c 128,-1,47
 66 254 66 254 78 254 c 0,48,49
 89 254 89 254 95 261.5 c 128,-1,50
 101 269 101 269 101 280 c 0,51,52
 101 304 101 304 76 304 c 0,53,54
 50 304 50 304 50 279 c 0,45,46
EndSplineSet
EndChar
StartChar: uni0E03
Encoding: 3587 3587 272
Width: 380
Flags: W
Fore
108 137 m 1,0,1
 108 160 108 160 121.5 182 c 128,-1,2
 135 204 135 204 150.5 227 c 128,-1,3
 166 250 166 250 179.5 273.5 c 128,-1,4
 193 297 193 297 193 322 c 0,5,6
 193 331 193 331 189 338.5 c 128,-1,7
 185 346 185 346 174 346 c 0,8,9
 167 346 167 346 160.5 342.5 c 128,-1,10
 154 339 154 339 147 335 c 128,-1,11
 140 331 140 331 133 327.5 c 128,-1,12
 126 324 126 324 118 324 c 0,13,14
 109 324 109 324 102.5 327.5 c 128,-1,15
 96 331 96 331 90.5 335 c 128,-1,16
 85 339 85 339 81 342.5 c 128,-1,17
 77 346 77 346 72 346 c 256,18,19
 67 346 67 346 63.5 341 c 128,-1,20
 60 336 60 336 57.5 329.5 c 128,-1,21
 55 323 55 323 54 316.5 c 128,-1,22
 53 310 53 310 53 306 c 1,23,24
 60 309 60 309 67.5 311.5 c 128,-1,25
 75 314 75 314 83 314 c 0,26,27
 106 314 106 314 120 299.5 c 128,-1,28
 134 285 134 285 134 262 c 0,29,30
 134 236 134 236 117 221.5 c 128,-1,31
 100 207 100 207 76 207 c 0,32,33
 57 207 57 207 45 216 c 128,-1,34
 33 225 33 225 25.5 239 c 128,-1,35
 18 253 18 253 15 269.5 c 128,-1,36
 12 286 12 286 12 301 c 0,37,38
 12 313 12 313 14.5 328.5 c 128,-1,39
 17 344 17 344 23.5 357.5 c 128,-1,40
 30 371 30 371 40.5 380 c 128,-1,41
 51 389 51 389 67 389 c 0,42,43
 78 389 78 389 86.5 385 c 128,-1,44
 95 381 95 381 101.5 376 c 128,-1,45
 108 371 108 371 113 367 c 128,-1,46
 118 363 118 363 122 363 c 0,47,48
 128 363 128 363 134 367 c 128,-1,49
 140 371 140 371 147 376 c 128,-1,50
 154 381 154 381 161.5 385 c 128,-1,51
 169 389 169 389 178 389 c 0,52,53
 208 389 208 389 222.5 368.5 c 128,-1,54
 237 348 237 348 237 320 c 256,55,56
 237 292 237 292 224.5 266.5 c 128,-1,57
 212 241 212 241 196.5 217.5 c 128,-1,58
 181 194 181 194 168.5 173 c 128,-1,59
 156 152 156 152 156 133 c 2,60,-1
 156 42 l 1,61,-1
 275 42 l 1,62,-1
 275 383 l 1,63,-1
 323 383 l 1,64,-1
 323 0 l 1,65,-1
 108 0 l 1,66,-1
 108 137 l 1,67,-1
 108 137 l 1,0,1
77 282 m 0,68,69
 69 282 69 282 62.5 275.5 c 128,-1,70
 56 269 56 269 56 261 c 0,71,72
 56 252 56 252 62 245 c 128,-1,73
 68 238 68 238 78 238 c 0,74,75
 89 238 89 238 94.5 244.5 c 128,-1,76
 100 251 100 251 100 261 c 0,77,78
 100 272 100 272 93.5 277 c 128,-1,79
 87 282 87 282 77 282 c 0,68,69
EndSplineSet
EndChar
StartChar: uni0E04
Encoding: 3588 3588 273
Width: 416
Flags: W
Fore
200 351 m 0,0,1
 175 351 175 351 152 344 c 128,-1,2
 129 337 129 337 112 323 c 128,-1,3
 95 309 95 309 84.5 288.5 c 128,-1,4
 74 268 74 268 74 240 c 0,5,6
 74 203 74 203 83.5 166 c 128,-1,7
 93 129 93 129 103 94 c 1,8,9
 108 112 108 112 112 133 c 128,-1,10
 116 154 116 154 120.5 175.5 c 128,-1,11
 125 197 125 197 130.5 217 c 128,-1,12
 136 237 136 237 144 253 c 0,13,14
 153 270 153 270 168 277.5 c 128,-1,15
 183 285 183 285 201 285 c 0,16,17
 231 285 231 285 251 269 c 128,-1,18
 271 253 271 253 271 221 c 0,19,20
 271 193 271 193 252.5 173.5 c 128,-1,21
 234 154 234 154 206 154 c 0,22,23
 192 154 192 154 183.5 157.5 c 128,-1,24
 175 161 175 161 164 169 c 1,25,26
 156 144 156 144 150.5 119 c 128,-1,27
 145 94 145 94 138 69 c 0,28,29
 137 67 137 67 135 59.5 c 128,-1,30
 133 52 133 52 131 43.5 c 128,-1,31
 129 35 129 35 127 28 c 128,-1,32
 125 21 125 21 125 19 c 2,33,-1
 126 0 l 1,34,-1
 70 0 l 1,35,36
 66 26 66 26 62 52.5 c 128,-1,37
 58 79 58 79 51 105 c 0,38,39
 43 135 43 135 34 165 c 128,-1,40
 25 195 25 195 25 227 c 0,41,42
 25 244 25 244 26.5 261 c 128,-1,43
 28 278 28 278 34 295 c 0,44,45
 43 319 43 319 61 336.5 c 128,-1,46
 79 354 79 354 102 365.5 c 128,-1,47
 125 377 125 377 150.5 383 c 128,-1,48
 176 389 176 389 199 389 c 0,49,50
 226 389 226 389 254.5 382.5 c 128,-1,51
 283 376 283 376 306.5 361.5 c 128,-1,52
 330 347 330 347 344.5 324 c 128,-1,53
 359 301 359 301 359 268 c 2,54,-1
 359 0 l 1,55,-1
 312 0 l 1,56,-1
 312 260 l 2,57,58
 312 283 312 283 302 300 c 128,-1,59
 292 317 292 317 276 328.5 c 128,-1,60
 260 340 260 340 240 345.5 c 128,-1,61
 220 351 220 351 200 351 c 0,0,1
204 249 m 0,62,63
 192 249 192 249 184 239 c 128,-1,64
 176 229 176 229 176 218 c 0,65,66
 176 189 176 189 207 189 c 0,67,68
 218 189 218 189 225.5 198 c 128,-1,69
 233 207 233 207 233 218 c 0,70,71
 233 249 233 249 204 249 c 0,62,63
EndSplineSet
EndChar
StartChar: uni0E05
Encoding: 3589 3589 274
Width: 427
Flags: W
Fore
78 44 m 2,0,1
 74 58 74 58 70.5 72.5 c 128,-1,2
 67 87 67 87 62 101 c 0,3,4
 49 136 49 136 36.5 173.5 c 128,-1,5
 24 211 24 211 24 249 c 0,6,7
 24 274 24 274 31.5 299 c 128,-1,8
 39 324 39 324 53 344 c 128,-1,9
 67 364 67 364 88.5 376.5 c 128,-1,10
 110 389 110 389 138 389 c 0,11,12
 147 389 147 389 155 384 c 128,-1,13
 163 379 163 379 171 373.5 c 128,-1,14
 179 368 179 368 188 363 c 128,-1,15
 197 358 197 358 209 358 c 0,16,17
 233 358 233 358 248.5 368 c 128,-1,18
 264 378 264 378 284 389 c 1,19,-1
 286 389 l 2,20,21
 292 389 292 389 300 385 c 128,-1,22
 308 381 308 381 313 377 c 0,23,24
 345 356 345 356 357.5 329 c 128,-1,25
 370 302 370 302 370 264 c 2,26,-1
 370 0 l 1,27,-1
 323 0 l 1,28,-1
 323 262 l 2,29,30
 323 280 323 280 320 295 c 128,-1,31
 317 310 317 310 305 324 c 0,32,33
 300 330 300 330 293.5 334.5 c 128,-1,34
 287 339 287 339 279 339 c 0,35,36
 270 339 270 339 262.5 335.5 c 128,-1,37
 255 332 255 332 247 327.5 c 128,-1,38
 239 323 239 323 230.5 319.5 c 128,-1,39
 222 316 222 316 211 316 c 0,40,41
 199 316 199 316 189 321 c 128,-1,42
 179 326 179 326 170 331.5 c 128,-1,43
 161 337 161 337 152.5 342 c 128,-1,44
 144 347 144 347 134 347 c 0,45,46
 118 347 118 347 106.5 336.5 c 128,-1,47
 95 326 95 326 87.5 311 c 128,-1,48
 80 296 80 296 77 279.5 c 128,-1,49
 74 263 74 263 74 251 c 0,50,51
 74 209 74 209 85 174 c 128,-1,52
 96 139 96 139 113 103 c 1,53,-1
 133 196 l 2,54,55
 136 213 136 213 140.5 228.5 c 128,-1,56
 145 244 145 244 153 257 c 128,-1,57
 161 270 161 270 174 277.5 c 128,-1,58
 187 285 187 285 207 285 c 0,59,60
 235 285 235 285 256.5 271 c 128,-1,61
 278 257 278 257 278 226 c 0,62,63
 278 197 278 197 258.5 176.5 c 128,-1,64
 239 156 239 156 209 156 c 0,65,66
 185 156 185 156 175 172 c 1,67,-1
 133 0 l 1,68,-1
 81 0 l 1,69,-1
 79 38 l 1,70,-1
 78 44 l 2,0,1
212 248 m 0,71,72
 199 248 199 248 191.5 240 c 128,-1,73
 184 232 184 232 184 219 c 256,74,75
 184 206 184 206 192 200 c 128,-1,76
 200 194 200 194 212 194 c 256,77,78
 224 194 224 194 231.5 201.5 c 128,-1,79
 239 209 239 209 239 221 c 256,80,81
 239 233 239 233 231.5 240.5 c 128,-1,82
 224 248 224 248 212 248 c 0,71,72
EndSplineSet
EndChar
StartChar: uni0E06
Encoding: 3590 3590 275
Width: 426
Flags: W
Fore
113 -4 m 0,0,1
 91 -4 91 -4 75.5 3.5 c 128,-1,2
 60 11 60 11 50 22.5 c 128,-1,3
 40 34 40 34 35.5 49 c 128,-1,4
 31 64 31 64 31 79 c 0,5,6
 31 105 31 105 47.5 126.5 c 128,-1,7
 64 148 64 148 87 158 c 0,8,9
 95 161 95 161 103 162 c 128,-1,10
 111 163 111 163 119 165 c 1,11,12
 119 173 119 173 119.5 180 c 128,-1,13
 120 187 120 187 122 195 c 0,14,15
 126 206 126 206 134.5 215 c 128,-1,16
 143 224 143 224 153.5 234.5 c 128,-1,17
 164 245 164 245 174 260 c 128,-1,18
 184 275 184 275 191 297 c 1,19,-1
 191 296 l 1,20,21
 196 308 196 308 196 321 c 0,22,23
 196 331 196 331 192 338.5 c 128,-1,24
 188 346 188 346 178 346 c 0,25,26
 163 346 163 346 148.5 335 c 128,-1,27
 134 324 134 324 120 324 c 0,28,29
 112 324 112 324 106 328 c 128,-1,30
 100 332 100 332 95 336.5 c 128,-1,31
 90 341 90 341 85 344.5 c 128,-1,32
 80 348 80 348 74 348 c 0,33,34
 67 348 67 348 63 344 c 128,-1,35
 59 340 59 340 57 334 c 128,-1,36
 55 328 55 328 54.5 321.5 c 128,-1,37
 54 315 54 315 54 309 c 1,38,39
 61 313 61 313 68.5 315.5 c 128,-1,40
 76 318 76 318 84 318 c 0,41,42
 106 318 106 318 119 303 c 128,-1,43
 132 288 132 288 132 267 c 0,44,45
 132 237 132 237 114.5 224 c 128,-1,46
 97 211 97 211 74 211 c 0,47,48
 63 211 63 211 51.5 214.5 c 128,-1,49
 40 218 40 218 30 227 c 128,-1,50
 20 236 20 236 14 250.5 c 128,-1,51
 8 265 8 265 8 287 c 0,52,53
 8 332 8 332 21.5 361 c 128,-1,54
 35 390 35 390 56 390 c 0,55,56
 70 390 70 390 79 385 c 128,-1,57
 88 380 88 380 95.5 374.5 c 128,-1,58
 103 369 103 369 109.5 364 c 128,-1,59
 116 359 116 359 124 359 c 256,60,61
 132 359 132 359 139.5 363.5 c 128,-1,62
 147 368 147 368 154.5 374 c 128,-1,63
 162 380 162 380 170 384.5 c 128,-1,64
 178 389 178 389 187 389 c 0,65,66
 202 389 202 389 211.5 382 c 128,-1,67
 221 375 221 375 227 363.5 c 128,-1,68
 233 352 233 352 235.5 338.5 c 128,-1,69
 238 325 238 325 238 313 c 0,70,71
 238 289 238 289 227 269 c 128,-1,72
 216 249 216 249 202.5 232 c 128,-1,73
 189 215 189 215 177.5 201 c 128,-1,74
 166 187 166 187 166 175 c 2,75,-1
 166 163 l 1,76,-1
 241 115 l 2,77,78
 249 110 249 110 256 105 c 128,-1,79
 263 100 263 100 271 95 c 0,80,81
 284 87 284 87 297.5 78 c 128,-1,82
 311 69 311 69 321 61 c 1,83,-1
 321 383 l 1,84,-1
 369 383 l 1,85,-1
 369 0 l 1,86,-1
 322 0 l 1,87,-1
 277 35 l 2,88,89
 257 52 257 52 239 65 c 128,-1,90
 221 78 221 78 195 95 c 0,91,92
 187 100 187 100 180 104.5 c 128,-1,93
 173 109 173 109 166 114 c 1,94,-1
 166 31 l 1,95,96
 158 8 158 8 143 2 c 128,-1,97
 128 -4 128 -4 113 -4 c 0,0,1
76 286 m 256,98,99
 66 286 66 286 59.5 280.5 c 128,-1,100
 53 275 53 275 53 264 c 0,101,102
 53 256 53 256 60 249 c 128,-1,103
 67 242 67 242 75 242 c 0,104,105
 85 242 85 242 91.5 248.5 c 128,-1,106
 98 255 98 255 98 265 c 0,107,108
 98 273 98 273 92 279.5 c 128,-1,109
 86 286 86 286 76 286 c 256,98,99
118 123 m 1,110,111
 101 119 101 119 90 107.5 c 128,-1,112
 79 96 79 96 79 78 c 0,113,114
 79 66 79 66 84 52 c 128,-1,115
 89 38 89 38 104 38 c 0,116,117
 115 38 115 38 116.5 47.5 c 128,-1,118
 118 57 118 57 118 68 c 2,119,-1
 118 123 l 1,120,-1
 118 123 l 1,110,111
EndSplineSet
EndChar
StartChar: uni0E07
Encoding: 3591 3591 276
Width: 299
Flags: W
Fore
172 355 m 0,0,1
 143 355 143 355 143 325 c 0,2,3
 143 311 143 311 152 302.5 c 128,-1,4
 161 294 161 294 173 294 c 0,5,6
 187 294 187 294 193.5 303 c 128,-1,7
 200 312 200 312 200 326 c 0,8,9
 200 339 200 339 193 347 c 128,-1,10
 186 355 186 355 172 355 c 0,0,1
195 263 m 1,11,12
 182 258 182 258 172 258 c 0,13,14
 144 258 144 258 122 275.5 c 128,-1,15
 100 293 100 293 100 322 c 0,16,17
 100 352 100 352 121.5 370.5 c 128,-1,18
 143 389 143 389 172 389 c 256,19,20
 201 389 201 389 221.5 370.5 c 128,-1,21
 242 352 242 352 242 323 c 2,22,-1
 242 0 l 1,23,-1
 164 0 l 1,24,-1
 17 179 l 1,25,-1
 72 179 l 1,26,-1
 195 32 l 1,27,-1
 195 263 l 1,28,-1
 195 263 l 1,11,12
EndSplineSet
EndChar
StartChar: uni0E08
Encoding: 3592 3592 277
Width: 343
Flags: W
Fore
142 141 m 1,0,1
 132 133 132 133 123.5 130.5 c 128,-1,2
 115 128 115 128 103 128 c 0,3,4
 73 128 73 128 51.5 150 c 128,-1,5
 30 172 30 172 30 202 c 0,6,7
 30 218 30 218 37 229.5 c 128,-1,8
 44 241 44 241 55 248.5 c 128,-1,9
 66 256 66 256 80 259.5 c 128,-1,10
 94 263 94 263 107 263 c 0,11,12
 127 263 127 263 139.5 256 c 128,-1,13
 152 249 152 249 159.5 237 c 128,-1,14
 167 225 167 225 171 210 c 128,-1,15
 179 180 l 2,16,-1
 212 38 l 1,17,-1
 244 38 l 1,18,19
 246 90 246 90 247.5 141.5 c 128,-1,20
 249 193 249 193 249 245 c 0,21,22
 249 296 249 296 228 322.5 c 128,-1,23
 207 349 207 349 155 349 c 0,24,25
 110 349 110 349 74.5 330.5 c 128,-1,26
 39 312 39 312 9 279 c 1,27,-1
 9 332 l 1,28,29
 21 348 21 348 38.5 359 c 128,-1,30
 56 370 56 370 75.5 376.5 c 128,-1,31
 95 383 95 383 116 386 c 128,-1,32
 137 389 137 389 156 389 c 0,33,34
 220 389 220 389 258.5 357 c 128,-1,35
 297 325 297 325 297 258 c 2,36,-1
 297 246 l 1,37,-1
 283 0 l 1,38,-1
 173 0 l 1,39,-1
 142 141 l 1,40,-1
 142 141 l 1,0,1
102 228 m 0,41,42
 73 228 73 228 73 198 c 0,43,44
 73 184 73 184 82 175.5 c 128,-1,45
 91 167 91 167 103 167 c 0,46,47
 117 167 117 167 123.5 176 c 128,-1,48
 130 185 130 185 130 199 c 0,49,50
 130 212 130 212 123 220 c 128,-1,51
 116 228 116 228 102 228 c 0,41,42
EndSplineSet
EndChar
StartChar: uni0E09
Encoding: 3593 3593 278
Width: 402
Flags: W
Fore
343 154 m 1,0,1
 343 131 343 131 326 117 c 1,2,3
 348 112 348 112 363 96 c 128,-1,4
 378 80 378 80 378 57 c 0,5,6
 378 28 378 28 358 11.5 c 128,-1,7
 338 -5 338 -5 311 -5 c 0,8,9
 285 -5 285 -5 266.5 9.5 c 128,-1,10
 248 24 248 24 248 51 c 0,11,12
 248 67 248 67 254 80 c 1,13,14
 242 74 242 74 228.5 65.5 c 128,-1,15
 215 57 215 57 202 46 c 128,-1,16
 189 35 189 35 178 23.5 c 128,-1,17
 167 12 167 12 161 0 c 1,18,-1
 113 0 l 1,19,-1
 113 122 l 1,20,21
 100 116 100 116 84 116 c 0,22,23
 58 116 58 116 38.5 130 c 128,-1,24
 19 144 19 144 19 172 c 0,25,26
 19 204 19 204 39.5 222.5 c 128,-1,27
 60 241 60 241 92 241 c 0,28,29
 130 241 130 241 146 219 c 128,-1,30
 162 197 162 197 162 162 c 2,31,-1
 162 65 l 1,32,33
 176 76 176 76 189 86 c 128,-1,34
 202 96 202 96 219 104 c 0,35,36
 228 108 228 108 241 111.5 c 128,-1,37
 254 115 254 115 266 120 c 128,-1,38
 278 125 278 125 286.5 132.5 c 128,-1,39
 295 140 295 140 295 152 c 2,40,-1
 295 253 l 2,41,42
 295 304 295 304 268.5 327.5 c 128,-1,43
 242 351 242 351 191 351 c 0,44,45
 167 351 167 351 144 344 c 128,-1,46
 121 337 121 337 99.5 326 c 128,-1,47
 78 315 78 315 57.5 301.5 c 128,-1,48
 37 288 37 288 18 274 c 1,49,-1
 18 332 l 1,50,51
 33 344 33 344 54 355 c 128,-1,52
 75 366 75 366 98 373.5 c 128,-1,53
 121 381 121 381 144.5 385.5 c 128,-1,54
 168 390 168 390 187 390 c 0,55,56
 207 390 207 390 227 388 c 128,-1,57
 247 386 247 386 265.5 380 c 128,-1,58
 284 374 284 374 299.5 362.5 c 128,-1,59
 315 351 315 351 326 332 c 0,60,61
 343 303 343 303 343 270 c 2,62,-1
 343 154 l 1,63,-1
 343 154 l 1,0,1
287 55 m 0,64,65
 287 44 287 44 293.5 36 c 128,-1,66
 300 28 300 28 311 28 c 0,67,68
 323 28 323 28 330 37 c 128,-1,69
 337 46 337 46 337 57 c 0,70,71
 337 82 337 82 314 82 c 0,72,73
 287 82 287 82 287 55 c 0,64,65
89 205 m 0,74,75
 78 205 78 205 70 196.5 c 128,-1,76
 62 188 62 188 62 177 c 256,77,78
 62 166 62 166 69.5 158.5 c 128,-1,79
 77 151 77 151 88 151 c 256,80,81
 99 151 99 151 108.5 157.5 c 128,-1,82
 118 164 118 164 118 176 c 0,83,84
 118 189 118 189 110 197 c 128,-1,85
 102 205 102 205 89 205 c 0,74,75
EndSplineSet
EndChar
StartChar: uni0E0A
Encoding: 3594 3594 279
Width: 386
Flags: W
Fore
381 401 m 1,0,1
 341 342 341 342 282 295 c 1,2,3
 306 284 306 284 319 262.5 c 128,-1,4
 332 241 332 241 332 215 c 2,5,-1
 332 0 l 1,6,-1
 113 0 l 1,7,-1
 113 134 l 2,8,9
 113 158 113 158 124.5 178 c 128,-1,10
 136 198 136 198 150.5 217.5 c 128,-1,11
 165 237 165 237 176.5 256.5 c 128,-1,12
 188 276 188 276 188 298 c 0,13,14
 188 323 188 323 169 338 c 128,-1,15
 150 353 150 353 124 353 c 0,16,17
 104 353 104 353 91 345 c 128,-1,18
 78 337 78 337 66 322 c 1,19,20
 80 325 80 325 93 325 c 0,21,22
 114 325 114 325 126.5 309 c 128,-1,23
 139 293 139 293 139 273 c 0,24,25
 139 247 139 247 123 232.5 c 128,-1,26
 107 218 107 218 81 218 c 0,27,28
 49 218 49 218 32 237.5 c 128,-1,29
 15 257 15 257 15 288 c 0,30,31
 15 336 15 336 46 362.5 c 128,-1,32
 77 389 77 389 122 389 c 0,33,34
 170 389 170 389 200.5 367 c 128,-1,35
 231 345 231 345 231 293 c 0,36,37
 231 270 231 270 220 249 c 128,-1,38
 209 228 209 228 195.5 208 c 128,-1,39
 182 188 182 188 171 169 c 128,-1,40
 160 150 160 150 160 130 c 2,41,-1
 160 35 l 1,42,-1
 284 35 l 1,43,-1
 284 209 l 2,44,45
 284 235 284 235 273.5 248.5 c 128,-1,46
 263 262 263 262 240 272 c 1,47,-1
 240 311 l 1,48,49
 266 331 266 331 285 352.5 c 128,-1,50
 304 374 304 374 322 401 c 1,51,-1
 381 401 l 1,52,-1
 381 401 l 1,0,1
82 296 m 256,53,54
 58 296 58 296 58 272 c 0,55,56
 58 247 58 247 82 247 c 0,57,58
 90 247 90 247 98 254.5 c 128,-1,59
 106 262 106 262 106 271 c 0,60,61
 106 296 106 296 82 296 c 256,53,54
EndSplineSet
EndChar
StartChar: uni0E0B
Encoding: 3595 3595 280
Width: 406
Flags: W
Fore
399 400 m 1,0,1
 376 372 376 372 351 345.5 c 128,-1,2
 326 319 326 319 297 299 c 1,3,4
 320 288 320 288 334.5 265.5 c 128,-1,5
 349 243 349 243 349 217 c 2,6,-1
 349 0 l 1,7,-1
 126 0 l 1,8,-1
 126 137 l 2,9,10
 126 160 126 160 137.5 180 c 128,-1,11
 149 200 149 200 163 219.5 c 128,-1,12
 177 239 177 239 188.5 259.5 c 128,-1,13
 200 280 200 280 200 303 c 0,14,15
 200 309 200 309 199.5 316 c 128,-1,16
 199 323 199 323 197 330 c 128,-1,17
 195 337 195 337 191 341.5 c 128,-1,18
 187 346 187 346 179 346 c 0,19,20
 173 346 173 346 167 342.5 c 128,-1,21
 161 339 161 339 155 334.5 c 128,-1,22
 149 330 149 330 143 326.5 c 128,-1,23
 137 323 137 323 130 323 c 0,24,25
 121 323 121 323 114.5 327 c 128,-1,26
 108 331 108 331 102 335.5 c 128,-1,27
 96 340 96 340 91 344 c 128,-1,28
 86 348 86 348 80 348 c 0,29,30
 63 348 63 348 59.5 335 c 128,-1,31
 56 322 56 322 56 308 c 1,32,33
 71 317 71 317 90 317 c 0,34,35
 111 317 111 317 124 302.5 c 128,-1,36
 137 288 137 288 137 268 c 0,37,38
 137 243 137 243 121 228.5 c 128,-1,39
 105 214 105 214 81 214 c 0,40,41
 62 214 62 214 49.5 221.5 c 128,-1,42
 37 229 37 229 29.5 241 c 128,-1,43
 22 253 22 253 18.5 268.5 c 128,-1,44
 15 284 15 284 15 300 c 0,45,46
 15 313 15 313 18 328.5 c 128,-1,47
 21 344 21 344 28 357.5 c 128,-1,48
 35 371 35 371 46 380 c 128,-1,49
 57 389 57 389 73 389 c 0,50,51
 82 389 82 389 89.5 384.5 c 128,-1,52
 97 380 97 380 103 375 c 128,-1,53
 109 370 109 370 115 365.5 c 128,-1,54
 121 361 121 361 128 361 c 0,55,56
 134 361 134 361 141 365.5 c 128,-1,57
 148 370 148 370 155.5 375 c 128,-1,58
 163 380 163 380 171.5 384.5 c 128,-1,59
 180 389 180 389 189 389 c 0,60,61
 207 389 207 389 218 380 c 128,-1,62
 229 371 229 371 235 357 c 128,-1,63
 241 343 241 343 243 326.5 c 128,-1,64
 245 310 245 310 245 296 c 0,65,66
 245 272 245 272 234 251.5 c 128,-1,67
 223 231 223 231 210 212 c 128,-1,68
 197 193 197 193 186 173.5 c 128,-1,69
 175 154 175 154 175 131 c 2,70,-1
 175 36 l 1,71,-1
 302 36 l 1,72,-1
 302 218 l 2,73,74
 302 262 302 262 256 275 c 1,75,-1
 256 316 l 1,76,77
 280 330 280 330 298 351 c 128,-1,78
 316 372 316 372 333 395 c 2,79,-1
 337 400 l 1,80,-1
 399 400 l 1,81,-1
 399 400 l 1,0,1
60 263 m 0,82,83
 60 252 60 252 66.5 247 c 128,-1,84
 73 242 73 242 83 242 c 0,85,86
 94 242 94 242 99 249.5 c 128,-1,87
 104 257 104 257 104 267 c 0,88,89
 104 275 104 275 97.5 281 c 128,-1,90
 91 287 91 287 83 287 c 0,91,92
 60 287 60 287 60 263 c 0,82,83
EndSplineSet
EndChar
StartChar: uni0E0C
Encoding: 3596 3596 281
Width: 564
Flags: W
Fore
190 390 m 0,0,1
 220 390 220 390 248 384 c 128,-1,2
 276 378 276 378 297.5 365.5 c 128,-1,3
 319 353 319 353 332 333 c 128,-1,4
 345 313 345 313 345 285 c 2,5,-1
 345 141 l 1,6,7
 375 124 375 124 404 106.5 c 128,-1,8
 433 89 433 89 462 70 c 1,9,-1
 462 382 l 1,10,-1
 507 382 l 1,11,-1
 507 0 l 1,12,-1
 471 0 l 1,13,14
 464 13 464 13 448.5 27.5 c 128,-1,15
 433 42 433 42 414.5 55 c 128,-1,16
 396 68 396 68 377.5 79 c 128,-1,17
 359 90 359 90 345 97 c 1,18,-1
 345 65 l 2,19,20
 345 49 345 49 343 36.5 c 128,-1,21
 341 24 341 24 334.5 15 c 128,-1,22
 328 6 328 6 315.5 1.5 c 128,-1,23
 303 -3 303 -3 281 -3 c 0,24,25
 218 -3 218 -3 218 62 c 0,26,27
 218 79 218 79 225.5 92.5 c 128,-1,28
 233 106 233 106 244.5 116 c 128,-1,29
 256 126 256 126 270.5 132.5 c 128,-1,30
 285 139 285 139 300 143 c 1,31,-1
 300 262 l 2,32,33
 300 275 300 275 299 288 c 128,-1,34
 298 301 298 301 291 312 c 0,35,36
 264 355 264 355 190 355 c 0,37,38
 173 355 173 355 153 350.5 c 128,-1,39
 133 346 133 346 115.5 338 c 128,-1,40
 98 330 98 330 84.5 320.5 c 128,-1,41
 71 311 71 311 66 300 c 1,42,-1
 142 300 l 1,43,-1
 142 268 l 1,44,45
 128 265 128 265 117 251.5 c 128,-1,46
 106 238 106 238 106 223 c 2,47,-1
 106 120 l 1,48,49
 120 128 120 128 138 128 c 0,50,51
 168 128 168 128 184.5 108.5 c 128,-1,52
 201 89 201 89 201 60 c 0,53,54
 201 29 201 29 180 13 c 128,-1,55
 159 -3 159 -3 130 -3 c 0,56,57
 116 -3 116 -3 104 3 c 0,58,59
 79 17 79 17 70 33.5 c 128,-1,60
 61 50 61 50 61 79 c 2,61,-1
 61 220 l 2,62,63
 61 231 61 231 62.5 237.5 c 128,-1,64
 64 244 64 244 67 248.5 c 128,-1,65
 70 253 70 253 75.5 258 c 128,-1,66
 81 263 81 263 88 270 c 1,67,-1
 19 270 l 1,68,-1
 19 311 l 1,69,-1
 31 327 l 2,70,71
 49 346 49 346 70 359 c 0,72,73
 90 371 90 371 119 380.5 c 128,-1,74
 148 390 148 390 190 390 c 0,0,1
286 25 m 0,75,76
 292 25 292 25 298 29 c 128,-1,77
 304 33 304 33 304 40 c 2,78,-1
 304 110 l 1,79,80
 285 108 285 108 270.5 95 c 128,-1,81
 256 82 256 82 256 62 c 0,82,83
 256 47 256 47 262.5 36 c 128,-1,84
 269 25 269 25 286 25 c 0,75,76
134 91 m 0,85,86
 121 91 121 91 112.5 82 c 128,-1,87
 104 73 104 73 104 60 c 0,88,89
 104 48 104 48 113 39.5 c 128,-1,90
 122 31 122 31 134 31 c 0,91,92
 163 31 163 31 163 62 c 0,93,94
 163 91 163 91 134 91 c 0,85,86
EndSplineSet
EndChar
StartChar: uni0E0D
Encoding: 3597 3597 282
Width: 560
Flags: W
Fore
75 315 m 1,0,1
 73 314 73 314 69 310 c 0,2,3
 67 308 67 308 64.5 305.5 c 128,-1,4
 62 303 62 303 61 301 c 1,5,-1
 142 301 l 1,6,-1
 142 265 l 1,7,8
 125 258 125 258 112.5 242.5 c 128,-1,9
 100 227 100 227 100 208 c 2,10,-1
 100 117 l 1,11,12
 111 122 111 122 119.5 125.5 c 128,-1,13
 128 129 128 129 140 129 c 0,14,15
 164 129 164 129 181 111 c 128,-1,16
 198 93 198 93 198 70 c 0,17,18
 198 -2 198 -2 125 -2 c 0,19,20
 94 -2 94 -2 72.5 20 c 128,-1,21
 51 42 51 42 51 72 c 2,22,-1
 51 204 l 2,23,24
 51 215 51 215 58.5 233.5 c 128,-1,25
 66 252 66 252 87 267 c 1,26,-1
 19 267 l 1,27,-1
 19 325 l 1,28,29
 54 352 54 352 93.5 370.5 c 128,-1,30
 133 389 133 389 184 389 c 0,31,32
 250 389 250 389 288 358.5 c 128,-1,33
 326 328 326 328 326 259 c 2,34,-1
 326 37 l 1,35,-1
 455 37 l 1,36,-1
 455 381 l 1,37,-1
 503 381 l 1,38,-1
 503 0 l 1,39,-1
 278 0 l 1,40,-1
 278 253 l 2,41,42
 278 301 278 301 255.5 325 c 128,-1,43
 233 349 233 349 179 349 c 0,44,45
 152 349 152 349 132.5 344 c 128,-1,46
 113 339 113 339 100 332 c 0,47,48
 92 328 92 328 86 324 c 128,-1,49
 80 320 80 320 75 315 c 1,0,1
352 -162 m 0,50,51
 337 -162 337 -162 321.5 -157.5 c 128,-1,52
 306 -153 306 -153 293.5 -144.5 c 128,-1,53
 281 -136 281 -136 272.5 -123.5 c 128,-1,54
 264 -111 264 -111 264 -94 c 0,55,56
 264 -67 264 -67 282.5 -48.5 c 128,-1,57
 301 -30 301 -30 328 -30 c 0,58,59
 352 -30 352 -30 370.5 -43.5 c 128,-1,60
 389 -57 389 -57 389 -83 c 0,61,62
 389 -105 389 -105 374 -123 c 1,63,-1
 377 -123 l 2,64,65
 400 -123 400 -123 422.5 -113.5 c 128,-1,66
 445 -104 445 -104 451 -79 c 0,67,68
 452 -74 452 -74 452 -61 c 2,69,-1
 452 -43 l 1,70,-1
 501 -43 l 1,71,-1
 501 -59 l 2,72,73
 501 -90 501 -90 487 -110 c 128,-1,74
 473 -130 473 -130 451.5 -141.5 c 128,-1,75
 430 -153 430 -153 403.5 -157.5 c 128,-1,76
 377 -162 377 -162 352 -162 c 0,50,51
304 -92 m 256,77,78
 304 -103 304 -103 311 -110.5 c 128,-1,79
 318 -118 318 -118 329 -118 c 256,80,81
 340 -118 340 -118 346 -109.5 c 128,-1,82
 352 -101 352 -101 352 -90 c 0,83,84
 352 -65 352 -65 330 -65 c 0,85,86
 317 -65 317 -65 310.5 -73 c 128,-1,87
 304 -81 304 -81 304 -92 c 256,77,78
128 91 m 0,88,89
 115 91 115 91 106.5 82 c 128,-1,90
 98 73 98 73 98 60 c 0,91,92
 98 48 98 48 107 39.5 c 128,-1,93
 116 31 116 31 128 31 c 0,94,95
 157 31 157 31 157 62 c 0,96,97
 157 91 157 91 128 91 c 0,88,89
EndSplineSet
Substitution: 0 65534 'L019' uni0E0D.alt1
Substitution: 0 65534 'L019' uni0E0D.alt1
EndChar
StartChar: uni0E0E
Encoding: 3598 3598 283
Width: 445
Flags: W
Fore
8 64 m 0,0,1
 8 75 8 75 11 86 c 128,-1,2
 14 97 14 97 22 106 c 128,-1,3
 30 115 30 115 43 121 c 128,-1,4
 56 127 56 127 75 127 c 0,5,6
 86 127 86 127 91.5 124 c 128,-1,7
 97 121 97 121 103 118 c 1,8,-1
 103 212 l 2,9,10
 103 224 103 224 105 231.5 c 128,-1,11
 107 239 107 239 111 245 c 128,-1,12
 115 251 115 251 120.5 256.5 c 128,-1,13
 126 262 126 262 133 270 c 1,14,-1
 65 270 l 1,15,-1
 65 317 l 1,16,17
 82 334 82 334 98 347.5 c 128,-1,18
 114 361 114 361 132.5 370 c 128,-1,19
 151 379 151 379 173.5 384 c 128,-1,20
 196 389 196 389 226 389 c 0,21,22
 281 389 281 389 313.5 376 c 128,-1,23
 346 363 346 363 362.5 343 c 128,-1,24
 379 323 379 323 384 299 c 128,-1,25
 389 275 389 275 389 252 c 2,26,-1
 389 -165 l 1,27,-1
 341 -165 l 1,28,29
 318 -151 318 -151 293.5 -138.5 c 128,-1,30
 269 -126 269 -126 246 -112 c 1,31,32
 237 -144 237 -144 217 -157 c 128,-1,33
 197 -170 197 -170 165 -170 c 0,34,35
 152 -170 152 -170 138 -167 c 128,-1,36
 124 -164 124 -164 113 -157 c 128,-1,37
 102 -150 102 -150 95 -139 c 128,-1,38
 88 -128 88 -128 88 -112 c 0,39,40
 88 -80 88 -80 112 -63 c 128,-1,41
 136 -46 136 -46 165 -46 c 0,42,43
 179 -46 179 -46 187.5 -48 c 128,-1,44
 196 -50 196 -50 208 -55 c 1,45,-1
 208 -14 l 1,46,-1
 252 -14 l 1,47,-1
 252 -70 l 1,48,-1
 286 -88 l 2,49,50
 300 -96 300 -96 313.5 -103.5 c 128,-1,51
 327 -111 327 -111 341 -118 c 1,52,-1
 341 242 l 2,53,54
 341 304 341 304 311.5 328 c 128,-1,55
 282 352 282 352 227 352 c 0,56,57
 193 352 193 352 172 345.5 c 128,-1,58
 151 339 151 339 139 331 c 0,59,60
 135 329 135 329 134 328.5 c 128,-1,61
 133 328 133 328 127 323 c 2,62,63
 115 316 115 316 106 305 c 1,64,-1
 187 305 l 1,65,-1
 187 269 l 1,66,67
 181 265 181 265 174.5 260.5 c 128,-1,68
 168 256 168 256 163 251 c 0,69,70
 155 243 155 243 153 225.5 c 128,-1,71
 151 208 151 208 151 197 c 2,72,-1
 151 72 l 2,73,74
 150 52 150 52 142 35 c 0,75,76
 135 21 135 21 122 9.5 c 128,-1,77
 109 -2 109 -2 83 -2 c 2,78,-1
 80 -2 l 2,79,80
 50 -2 50 -2 29 15 c 128,-1,81
 8 32 8 32 8 64 c 0,0,1
159 -83 m 0,82,83
 148 -83 148 -83 140 -91 c 128,-1,84
 132 -99 132 -99 132 -110 c 256,85,86
 132 -121 132 -121 145 -127.5 c 128,-1,87
 158 -134 158 -134 167 -134 c 0,88,89
 181 -134 181 -134 194 -125.5 c 128,-1,90
 207 -117 207 -117 207 -102 c 2,91,-1
 207 -96 l 1,92,93
 198 -91 198 -91 183.5 -87 c 128,-1,94
 169 -83 169 -83 159 -83 c 0,82,83
77 92 m 0,95,96
 64 92 64 92 55.5 83 c 128,-1,97
 47 74 47 74 47 61 c 0,98,99
 47 49 47 49 56 40.5 c 128,-1,100
 65 32 65 32 77 32 c 0,101,102
 106 32 106 32 106 63 c 0,103,104
 106 92 106 92 77 92 c 0,95,96
EndSplineSet
Substitution: 0 65534 'L019' uni0E0E.alt1
Substitution: 0 65534 'L019' uni0E0E.alt1
EndChar
StartChar: uni0E0F
Encoding: 3599 3599 284
Width: 444
Flags: W
Fore
93 -52 m 0,0,1
 129 -52 129 -52 144.5 -58.5 c 128,-1,2
 160 -65 160 -65 170 -71 c 1,3,-1
 170 -22 l 1,4,-1
 217 -22 l 1,5,6
 216 -39 216 -39 215.5 -60 c 128,-1,7
 215 -81 215 -81 208 -96 c 1,8,9
 213 -101 213 -101 217.5 -106.5 c 128,-1,10
 222 -112 222 -112 227 -117 c 1,11,-1
 284 -66 l 1,12,-1
 338 -117 l 1,13,-1
 338 257 l 2,14,15
 338 284 338 284 328.5 302.5 c 128,-1,16
 319 321 319 321 303.5 332.5 c 128,-1,17
 288 344 288 344 266.5 348.5 c 128,-1,18
 245 353 245 353 221 353 c 0,19,20
 186 353 186 353 156.5 342.5 c 128,-1,21
 127 332 127 332 104 305 c 1,22,-1
 185 305 l 1,23,-1
 185 271 l 1,24,25
 176 264 176 264 167 254 c 1,26,-1
 166 252 l 1,27,-1
 165 251 l 2,28,29
 149 234 149 234 149 211 c 2,30,-1
 149 85 l 2,31,32
 149 70 149 70 146.5 54.5 c 128,-1,33
 144 39 144 39 137 26.5 c 128,-1,34
 130 14 130 14 117 6 c 128,-1,35
 104 -2 104 -2 82 -2 c 0,36,37
 59 -2 59 -2 44.5 5 c 128,-1,38
 30 12 30 12 22 22.5 c 128,-1,39
 14 33 14 33 11 44.5 c 128,-1,40
 8 56 8 56 8 66 c 0,41,42
 8 89 8 89 22 109.5 c 128,-1,43
 36 130 36 130 63 130 c 0,44,45
 74 130 74 130 81 128 c 128,-1,46
 88 126 88 126 93 124 c 1,47,48
 99 120 99 120 101 117 c 1,49,-1
 101 202 l 2,50,51
 101 214 101 214 103 227 c 128,-1,52
 105 240 105 240 113 251 c 0,53,54
 114 253 114 253 121.5 260.5 c 128,-1,55
 129 268 129 268 130 269 c 1,56,-1
 64 269 l 1,57,-1
 64 323 l 1,58,59
 77 340 77 340 95.5 352.5 c 128,-1,60
 114 365 114 365 135.5 373.5 c 128,-1,61
 157 382 157 382 179.5 386 c 128,-1,62
 202 390 202 390 223 390 c 0,63,64
 251 390 251 390 279 384.5 c 128,-1,65
 307 379 307 379 330.5 365.5 c 128,-1,66
 354 352 354 352 370 331 c 128,-1,67
 386 310 386 310 389 278 c 0,68,69
 391 263 391 263 391 248 c 128,-1,70
 391 233 391 233 391 219 c 2,71,-1
 391 -164 l 1,72,-1
 332 -164 l 1,73,-1
 283 -119 l 1,74,-1
 236 -164 l 1,75,-1
 213 -164 l 1,76,-1
 187 -133 l 1,77,78
 176 -144 176 -144 167.5 -151 c 128,-1,79
 159 -158 159 -158 150.5 -162 c 128,-1,80
 142 -166 142 -166 131.5 -167.5 c 128,-1,81
 121 -169 121 -169 105 -169 c 0,82,83
 92 -169 92 -169 79 -165 c 128,-1,84
 66 -161 66 -161 55.5 -153 c 128,-1,85
 45 -145 45 -145 38 -134 c 128,-1,86
 31 -123 31 -123 31 -109 c 0,87,88
 31 -101 31 -101 35 -91 c 128,-1,89
 39 -81 39 -81 47 -72.5 c 128,-1,90
 55 -64 55 -64 66.5 -58 c 128,-1,91
 78 -52 78 -52 93 -52 c 0,0,1
159 -108 m 1,92,93
 149 -100 149 -100 132.5 -94 c 128,-1,94
 116 -88 116 -88 103 -88 c 0,95,96
 93 -88 93 -88 85 -95 c 128,-1,97
 77 -102 77 -102 77 -112 c 0,98,99
 77 -123 77 -123 90.5 -128 c 128,-1,100
 104 -133 104 -133 112 -133 c 0,101,102
 128 -133 128 -133 138 -126 c 128,-1,103
 148 -119 148 -119 159 -108 c 1,92,93
77 92 m 0,104,105
 64 92 64 92 55.5 83 c 128,-1,106
 47 74 47 74 47 61 c 0,107,108
 47 49 47 49 56 40.5 c 128,-1,109
 65 32 65 32 77 32 c 0,110,111
 106 32 106 32 106 63 c 0,112,113
 106 92 106 92 77 92 c 0,104,105
EndSplineSet
Substitution: 0 65534 'L019' uni0E0F.alt1
Substitution: 0 65534 'L019' uni0E0F.alt1
EndChar
StartChar: uni0E10
Encoding: 3600 3600 285
Width: 374
Flags: W
Fore
322 167 m 0,0,1
 321 163 321 163 316.5 137 c 128,-1,2
 312 111 312 111 307 80 c 0,3,4
 304 62 304 62 300.5 42 c 128,-1,5
 297 22 297 22 293 0 c 1,6,-1
 216 0 l 1,7,-1
 161 131 l 1,8,9
 144 111 144 111 118 111 c 0,10,11
 91 111 91 111 70.5 127.5 c 128,-1,12
 50 144 50 144 50 173 c 0,13,14
 50 205 50 205 72.5 220 c 128,-1,15
 95 235 95 235 124 235 c 0,16,17
 138 235 138 235 148 229 c 128,-1,18
 158 223 158 223 166.5 213.5 c 128,-1,19
 175 204 175 204 181 192.5 c 128,-1,20
 187 181 187 181 192 170 c 2,21,-1
 248 41 l 1,22,-1
 256 41 l 1,23,24
 259 66 259 66 262 82 c 0,25,26
 264 98 264 98 267 113 c 128,-1,27
 270 128 270 128 271 134 c 0,28,29
 274 150 274 150 276 164 c 128,-1,30
 278 178 278 178 278 191 c 0,31,32
 278 208 278 208 273.5 221.5 c 128,-1,33
 269 235 269 235 258 243 c 0,34,35
 248 251 248 251 231.5 255 c 128,-1,36
 215 259 215 259 196.5 261 c 128,-1,37
 178 263 178 263 160 263 c 128,-1,38
 142 263 142 263 129 263 c 0,39,40
 117 263 117 263 105.5 262 c 128,-1,41
 94 261 94 261 82 259 c 1,42,43
 80 258 80 258 73 258 c 2,44,-1
 20 258 l 1,45,46
 25 277 25 277 34.5 298.5 c 128,-1,47
 44 320 44 320 58 339 c 128,-1,48
 72 358 72 358 90 371.5 c 128,-1,49
 108 385 108 385 129 388 c 0,50,51
 134 389 134 389 140 389 c 128,-1,52
 146 389 146 389 151 389 c 0,53,54
 168 389 168 389 184 384 c 128,-1,55
 200 379 200 379 215 373 c 128,-1,56
 230 367 230 367 245.5 362 c 128,-1,57
 261 357 261 357 278 357 c 0,58,59
 297 357 297 357 311 361.5 c 128,-1,60
 325 366 325 366 342 374 c 1,61,-1
 342 319 l 1,62,63
 336 315 336 315 323.5 314.5 c 128,-1,64
 311 314 311 314 303 314 c 0,65,66
 281 314 281 314 261.5 319 c 128,-1,67
 242 324 242 324 223.5 330.5 c 128,-1,68
 205 337 205 337 186.5 342 c 128,-1,69
 168 347 168 347 148 347 c 0,70,71
 123 347 123 347 108 334 c 128,-1,72
 93 321 93 321 82 301 c 1,73,-1
 133 301 l 2,74,75
 152 301 152 301 179 300 c 128,-1,76
 206 299 206 299 233 293.5 c 128,-1,77
 260 288 260 288 282.5 277.5 c 128,-1,78
 305 267 305 267 314 248 c 0,79,80
 319 240 319 240 322 228.5 c 128,-1,81
 325 217 325 217 325 200 c 0,82,83
 325 187 325 187 322 167 c 0,0,1
171 -139 m 1,84,-1
 140 -171 l 1,85,-1
 115 -139 l 1,86,87
 104 -149 104 -149 92.5 -159.5 c 128,-1,88
 81 -170 81 -170 65 -170 c 0,89,90
 32 -170 32 -170 14 -156 c 128,-1,91
 -4 -142 -4 -142 -4 -107 c 0,92,93
 -4 -84 -4 -84 15.5 -69.5 c 128,-1,94
 35 -55 35 -55 56 -55 c 0,95,96
 69 -55 69 -55 80.5 -61 c 128,-1,97
 92 -67 92 -67 102 -75 c 1,98,-1
 100 -27 l 1,99,-1
 149 -27 l 1,100,-1
 150 -45 l 2,101,102
 150 -55 150 -55 146.5 -72 c 128,-1,103
 143 -89 143 -89 139 -98 c 1,104,-1
 152 -112 l 1,105,-1
 175 -85 l 1,106,-1
 220 -129 l 2,107,108
 228 -137 228 -137 236 -137 c 256,109,110
 244 -137 244 -137 253 -134.5 c 128,-1,111
 262 -132 262 -132 264 -122 c 1,112,-1
 263 -116 l 1,113,114
 240 -116 240 -116 223.5 -105 c 128,-1,115
 207 -94 207 -94 207 -69 c 0,116,117
 207 -47 207 -47 221.5 -36.5 c 128,-1,118
 236 -26 236 -26 256 -26 c 256,119,120
 276 -26 276 -26 290.5 -38 c 128,-1,121
 305 -50 305 -50 305 -72 c 2,122,-1
 305 -127 l 2,123,124
 305 -150 305 -150 291 -159 c 128,-1,125
 277 -168 277 -168 256 -168 c 2,126,-1
 199 -168 l 1,127,-1
 171 -139 l 1,84,-1
259 -88 m 0,128,129
 266 -88 266 -88 269 -83 c 128,-1,130
 272 -78 272 -78 272 -71 c 256,131,132
 272 -64 272 -64 267.5 -59.5 c 128,-1,133
 263 -55 263 -55 257 -55 c 0,134,135
 243 -55 243 -55 243 -72 c 0,136,137
 243 -88 243 -88 259 -88 c 0,128,129
61 -134 m 0,138,139
 73 -134 73 -134 80 -128 c 128,-1,140
 87 -122 87 -122 88 -115 c 1,141,142
 82 -106 82 -106 77 -99.5 c 128,-1,143
 72 -93 72 -93 59 -93 c 0,144,145
 49 -93 49 -93 41 -98.5 c 128,-1,146
 33 -104 33 -104 33 -113 c 256,147,148
 33 -122 33 -122 40 -128 c 128,-1,149
 47 -134 47 -134 61 -134 c 0,138,139
116 202 m 0,150,151
 87 202 87 202 87 172 c 0,152,153
 87 158 87 158 96 149.5 c 128,-1,154
 105 141 105 141 117 141 c 0,155,156
 131 141 131 141 137.5 150 c 128,-1,157
 144 159 144 159 144 173 c 0,158,159
 144 186 144 186 137 194 c 128,-1,160
 130 202 130 202 116 202 c 0,150,151
EndSplineSet
Substitution: 0 65534 'L019' uni0E10.alt1
Substitution: 0 65534 'L019' uni0E10.alt1
EndChar
StartChar: uni0E11
Encoding: 3601 3601 286
Width: 494
Flags: W
Fore
258 267 m 1,0,1
 266 288 266 288 274 309.5 c 128,-1,2
 282 331 282 331 292.5 348 c 128,-1,3
 303 365 303 365 317.5 375.5 c 128,-1,4
 332 386 332 386 354 386 c 0,5,6
 388 386 388 386 412.5 371 c 128,-1,7
 437 356 437 356 437 317 c 2,8,-1
 437 0 l 1,9,-1
 390 0 l 1,10,-1
 390 308 l 2,11,12
 390 325 390 325 384 339 c 128,-1,13
 378 353 378 353 356 353 c 0,14,15
 346 353 346 353 337.5 345 c 128,-1,16
 329 337 329 337 322 325 c 128,-1,17
 315 313 315 313 310 300 c 128,-1,18
 305 287 305 287 302 277 c 0,19,20
 300 273 300 273 299 270 c 2,21,-1
 203 17 l 2,22,23
 201 13 201 13 200.5 10 c 128,-1,24
 200 7 200 7 199 0 c 1,25,-1
 142 0 l 1,26,-1
 142 157 l 2,27,28
 142 173 142 173 152 194.5 c 128,-1,29
 162 216 162 216 173.5 238.5 c 128,-1,30
 185 261 185 261 195 284 c 128,-1,31
 205 307 205 307 205 326 c 0,32,33
 205 340 205 340 200.5 345.5 c 128,-1,34
 196 351 196 351 184 351 c 0,35,36
 176 351 176 351 168.5 347 c 128,-1,37
 161 343 161 343 153.5 338 c 128,-1,38
 146 333 146 333 138.5 329 c 128,-1,39
 131 325 131 325 122 325 c 0,40,41
 115 325 115 325 108.5 329 c 128,-1,42
 102 333 102 333 96 337.5 c 128,-1,43
 90 342 90 342 84 346 c 128,-1,44
 78 350 78 350 72 350 c 0,45,46
 64 350 64 350 62 339 c 128,-1,47
 60 328 60 328 60 318 c 2,48,-1
 61 298 l 1,49,50
 73 310 73 310 94 310 c 256,51,52
 115 310 115 310 128 295.5 c 128,-1,53
 141 281 141 281 141 261 c 0,54,55
 141 238 141 238 126.5 221.5 c 128,-1,56
 112 205 112 205 88 205 c 0,57,58
 66 205 66 205 51.5 216.5 c 128,-1,59
 37 228 37 228 29 246 c 128,-1,60
 21 264 21 264 18 284.5 c 128,-1,61
 15 305 15 305 15 323 c 0,62,63
 15 348 15 348 26.5 368.5 c 128,-1,64
 38 389 38 389 66 389 c 0,65,66
 72 389 72 389 79 385 c 128,-1,67
 86 381 86 381 93.5 375.5 c 128,-1,68
 101 370 101 370 108.5 366 c 128,-1,69
 116 362 116 362 123 362 c 256,70,71
 130 362 130 362 137 366 c 128,-1,72
 144 370 144 370 151.5 375.5 c 128,-1,73
 159 381 159 381 167 385 c 128,-1,74
 175 389 175 389 184 389 c 0,75,76
 209 389 209 389 229 375.5 c 128,-1,77
 249 362 249 362 249 335 c 0,78,79
 249 322 249 322 242 300.5 c 128,-1,80
 235 279 235 279 226 257.5 c 128,-1,81
 217 236 217 236 209 219.5 c 128,-1,82
 201 203 201 203 199 200 c 0,83,84
 194 192 194 192 192.5 184 c 128,-1,85
 191 176 191 176 189 168 c 0,86,87
 188 163 188 163 187.5 159 c 128,-1,88
 187 155 187 155 187 151 c 2,89,-1
 187 76 l 1,90,-1
 258 267 l 1,91,-1
 258 267 l 1,0,1
90 280 m 0,92,93
 70 280 70 280 70 259 c 0,94,95
 70 250 70 250 75 242 c 128,-1,96
 80 234 80 234 91 234 c 0,97,98
 99 234 99 234 103.5 242 c 128,-1,99
 108 250 108 250 108 258 c 0,100,101
 108 280 108 280 90 280 c 0,92,93
EndSplineSet
EndChar
StartChar: uni0E12
Encoding: 3602 3602 287
Width: 562
Flags: W
Fore
316 265 m 1,0,1
 316 276 316 276 314.5 289.5 c 128,-1,2
 313 303 313 303 308.5 315.5 c 128,-1,3
 304 328 304 328 295.5 336.5 c 128,-1,4
 287 345 287 345 273 345 c 0,5,6
 266 345 266 345 258 340.5 c 128,-1,7
 250 336 250 336 242 330 c 128,-1,8
 234 324 234 324 225 319.5 c 128,-1,9
 216 315 216 315 206 315 c 0,10,11
 195 315 195 315 184 320 c 128,-1,12
 173 325 173 325 162.5 331 c 128,-1,13
 152 337 152 337 143.5 342 c 128,-1,14
 135 347 135 347 129 347 c 0,15,16
 113 347 113 347 101.5 335 c 128,-1,17
 90 323 90 323 82.5 306 c 128,-1,18
 75 289 75 289 71.5 270.5 c 128,-1,19
 68 252 68 252 68 240 c 0,20,21
 68 217 68 217 75 194.5 c 128,-1,22
 82 172 82 172 89 150 c 0,23,24
 97 124 97 124 103.5 98.5 c 128,-1,25
 110 73 110 73 117 47 c 1,26,-1
 192 155 l 1,27,28
 165 155 165 155 146.5 172.5 c 128,-1,29
 128 190 128 190 128 217 c 0,30,31
 128 246 128 246 151 263 c 128,-1,32
 174 280 174 280 201 280 c 0,33,34
 227 280 227 280 248.5 267.5 c 128,-1,35
 270 255 270 255 270 226 c 0,36,37
 270 201 270 201 255 177.5 c 128,-1,38
 240 154 240 154 227 134 c 2,39,-1
 141 0 l 1,40,-1
 78 0 l 1,41,42
 73 27 73 27 67.5 54.5 c 128,-1,43
 62 82 62 82 53 108 c 2,44,-1
 48 123 l 2,45,46
 37 153 37 153 28.5 185.5 c 128,-1,47
 20 218 20 218 20 248 c 0,48,49
 20 265 20 265 28 289 c 128,-1,50
 36 313 36 313 50 335.5 c 128,-1,51
 64 358 64 358 82.5 373.5 c 128,-1,52
 101 389 101 389 122 389 c 0,53,54
 131 389 131 389 143 383.5 c 128,-1,55
 155 378 155 378 166.5 371 c 128,-1,56
 178 364 178 364 188 358.5 c 128,-1,57
 198 353 198 353 205 353 c 256,58,59
 212 353 212 353 221.5 359 c 128,-1,60
 231 365 231 365 241 372 c 0,61,62
 246 376 246 376 252 380.5 c 128,-1,63
 258 385 258 385 264 390 c 1,64,65
 268 389 268 389 271 388.5 c 128,-1,66
 274 388 274 388 278 387 c 0,67,68
 284 385 284 385 290.5 383.5 c 128,-1,69
 297 382 297 382 301 380 c 0,70,71
 340 361 340 361 352 333.5 c 128,-1,72
 364 306 364 306 364 264 c 2,73,-1
 364 129 l 1,74,75
 388 112 388 112 411 94 c 128,-1,76
 434 76 434 76 457 57 c 1,77,-1
 457 382 l 1,78,-1
 505 382 l 1,79,-1
 505 0 l 1,80,-1
 459 0 l 1,81,-1
 363 80 l 1,82,-1
 363 63 l 2,83,84
 363 48 363 48 361.5 35.5 c 128,-1,85
 360 23 360 23 355 13.5 c 128,-1,86
 350 4 350 4 339.5 -1.5 c 128,-1,87
 329 -7 329 -7 311 -7 c 2,88,-1
 309 -7 l 2,89,90
 274 -7 274 -7 255.5 12 c 128,-1,91
 237 31 237 31 237 58 c 0,92,93
 237 67 237 67 240.5 79 c 128,-1,94
 244 91 244 91 253 102.5 c 128,-1,95
 262 114 262 114 277 123 c 128,-1,96
 292 132 292 132 316 136 c 1,97,-1
 316 265 l 1,98,-1
 316 265 l 1,0,1
316 95 m 1,99,100
 280 90 280 90 280 56 c 0,101,102
 280 47 280 47 287.5 36.5 c 128,-1,103
 295 26 295 26 305 26 c 0,104,105
 316 26 316 26 316 36 c 2,106,-1
 316 95 l 1,107,-1
 316 95 l 1,99,100
171 217 m 256,108,109
 171 205 171 205 179.5 196.5 c 128,-1,110
 188 188 188 188 200 188 c 256,111,112
 212 188 212 188 220.5 196.5 c 128,-1,113
 229 205 229 205 229 217 c 256,114,115
 229 229 229 229 220.5 237.5 c 128,-1,116
 212 246 212 246 200 246 c 256,117,118
 188 246 188 246 179.5 237.5 c 128,-1,119
 171 229 171 229 171 217 c 256,108,109
EndSplineSet
EndChar
StartChar: uni0E13
Encoding: 3603 3603 288
Width: 549
Flags: W
Fore
132 270 m 1,0,1
 116 261 116 261 104.5 244.5 c 128,-1,2
 93 228 93 228 93 209 c 2,3,-1
 93 112 l 1,4,5
 98 118 98 118 109 121.5 c 128,-1,6
 120 125 120 125 128 125 c 0,7,8
 158 125 158 125 175.5 108 c 128,-1,9
 193 91 193 91 193 61 c 0,10,11
 193 26 193 26 172.5 11.5 c 128,-1,12
 152 -3 152 -3 120 -3 c 0,13,14
 107 -3 107 -3 94 1.5 c 128,-1,15
 81 6 81 6 70 14 c 128,-1,16
 59 22 59 22 52 33.5 c 128,-1,17
 45 45 45 45 45 59 c 2,18,-1
 45 206 l 2,19,20
 45 232 45 232 53 245 c 128,-1,21
 61 258 61 258 83 270 c 1,22,-1
 13 270 l 1,23,-1
 13 325 l 1,24,25
 21 333 21 333 29.5 338.5 c 128,-1,26
 38 344 38 344 47 349 c 0,27,28
 79 369 79 369 109 379.5 c 128,-1,29
 139 390 139 390 177 390 c 0,30,31
 208 390 208 390 234.5 384 c 128,-1,32
 261 378 261 378 281 364.5 c 128,-1,33
 301 351 301 351 312.5 328.5 c 128,-1,34
 324 306 324 306 324 274 c 2,35,-1
 324 73 l 1,36,37
 348 87 348 87 374 96 c 128,-1,38
 400 105 400 105 424 119 c 0,39,40
 437 127 437 127 440.5 136 c 128,-1,41
 444 145 444 145 444 159 c 2,42,-1
 444 382 l 1,43,-1
 492 382 l 1,44,-1
 492 140 l 2,45,46
 492 132 492 132 486.5 126 c 128,-1,47
 481 120 481 120 476 115 c 1,48,49
 496 108 496 108 510 94 c 128,-1,50
 524 80 524 80 524 57 c 0,51,52
 524 29 524 29 506.5 12.5 c 128,-1,53
 489 -4 489 -4 463 -4 c 256,54,55
 437 -4 437 -4 418.5 12 c 128,-1,56
 400 28 400 28 400 54 c 0,57,58
 400 58 400 58 400.5 61 c 128,-1,59
 401 64 401 64 402 68 c 1,60,61
 388 59 388 59 376 54.5 c 128,-1,62
 364 50 364 50 354 44.5 c 128,-1,63
 344 39 344 39 335 29.5 c 128,-1,64
 326 20 326 20 318 0 c 1,65,-1
 276 0 l 1,66,-1
 276 255 l 2,67,68
 276 307 276 307 252.5 329.5 c 128,-1,69
 229 352 229 352 178 352 c 0,70,71
 143 352 143 352 109.5 341 c 128,-1,72
 76 330 76 330 53 303 c 1,73,-1
 132 303 l 1,74,-1
 132 270 l 1,75,-1
 132 270 l 1,0,1
439 53 m 0,76,77
 439 43 439 43 445.5 35.5 c 128,-1,78
 452 28 452 28 464 28 c 0,79,80
 475 28 475 28 480 35.5 c 128,-1,81
 485 43 485 43 485 54 c 0,82,83
 485 64 485 64 478.5 72 c 128,-1,84
 472 80 472 80 461 80 c 0,85,86
 448 80 448 80 443.5 72.5 c 128,-1,87
 439 65 439 65 439 53 c 0,76,77
124 88 m 0,88,89
 111 88 111 88 102.5 78.5 c 128,-1,90
 94 69 94 69 94 57 c 256,91,92
 94 45 94 45 103 36.5 c 128,-1,93
 112 28 112 28 124 28 c 0,94,95
 138 28 138 28 145.5 37 c 128,-1,96
 153 46 153 46 153 59 c 0,97,98
 153 88 153 88 124 88 c 0,88,89
EndSplineSet
EndChar
StartChar: uni0E14
Encoding: 3604 3604 289
Width: 427
Flags: W
Fore
198 349 m 0,0,1
 173 349 173 349 150.5 342.5 c 128,-1,2
 128 336 128 336 111.5 322.5 c 128,-1,3
 95 309 95 309 85 288.5 c 128,-1,4
 75 268 75 268 75 241 c 0,5,6
 75 213 75 213 85.5 174 c 128,-1,7
 96 135 96 135 107 102 c 2,8,-1
 109 95 l 2,9,10
 111 87 111 87 112 84 c 2,11,-1
 114 77 l 2,12,13
 120 62 120 62 123 47 c 1,14,-1
 201 154 l 1,15,16
 169 154 169 154 150 169 c 128,-1,17
 131 184 131 184 131 218 c 0,18,19
 131 232 131 232 137 243.5 c 128,-1,20
 143 255 143 255 153 263 c 128,-1,21
 163 271 163 271 176 275.5 c 128,-1,22
 189 280 189 280 202 280 c 0,23,24
 232 280 232 280 253 263.5 c 128,-1,25
 274 247 274 247 274 215 c 0,26,27
 274 193 274 193 261.5 171.5 c 128,-1,28
 249 150 249 150 237 133 c 2,29,-1
 147 0 l 1,30,-1
 81 0 l 1,31,32
 77 20 77 20 73.5 41 c 128,-1,33
 70 62 70 62 64 82 c 0,34,35
 60 96 60 96 53.5 116.5 c 128,-1,36
 47 137 47 137 40.5 159.5 c 128,-1,37
 34 182 34 182 29.5 203 c 128,-1,38
 25 224 25 224 25 240 c 0,39,40
 25 261 25 261 29 274 c 0,41,42
 45 337 45 337 91.5 362.5 c 128,-1,43
 138 388 138 388 198 388 c 0,44,45
 230 388 230 388 261 382 c 128,-1,46
 292 376 292 376 316 361.5 c 128,-1,47
 340 347 340 347 355 322.5 c 128,-1,48
 370 298 370 298 370 260 c 2,49,-1
 370 0 l 1,50,-1
 322 0 l 1,51,-1
 322 261 l 2,52,53
 322 288 322 288 311 305 c 128,-1,54
 300 322 300 322 282 331.5 c 128,-1,55
 264 341 264 341 242 345 c 128,-1,56
 220 349 220 349 198 349 c 0,0,1
175 215 m 256,57,58
 175 203 175 203 183.5 194.5 c 128,-1,59
 192 186 192 186 204 186 c 256,60,61
 216 186 216 186 224.5 194.5 c 128,-1,62
 233 203 233 203 233 215 c 256,63,64
 233 227 233 227 224.5 235.5 c 128,-1,65
 216 244 216 244 204 244 c 256,66,67
 192 244 192 244 183.5 235.5 c 128,-1,68
 175 227 175 227 175 215 c 256,57,58
EndSplineSet
EndChar
StartChar: uni0E15
Encoding: 3605 3605 290
Width: 427
Flags: W
Fore
323 0 m 1,0,-1
 323 259 l 2,1,2
 323 273 323 273 320 287.5 c 128,-1,3
 317 302 317 302 311.5 314.5 c 128,-1,4
 306 327 306 327 298 335 c 128,-1,5
 290 343 290 343 279 343 c 0,6,7
 273 343 273 343 266 339 c 128,-1,8
 259 335 259 335 250.5 330 c 128,-1,9
 242 325 242 325 232.5 321 c 128,-1,10
 223 317 223 317 213 317 c 0,11,12
 201 317 201 317 191 321.5 c 128,-1,13
 181 326 181 326 172 332 c 128,-1,14
 163 338 163 338 154 342.5 c 128,-1,15
 145 347 145 347 134 347 c 0,16,17
 118 347 118 347 106.5 336.5 c 128,-1,18
 95 326 95 326 87 310.5 c 128,-1,19
 79 295 79 295 75 277.5 c 128,-1,20
 71 260 71 260 71 246 c 0,21,22
 71 229 71 229 79 196.5 c 128,-1,23
 87 164 87 164 98 132 c 0,24,25
 110 95 110 95 125 51 c 1,26,27
 127 55 127 55 138 71 c 128,-1,28
 149 87 149 87 163 106 c 0,29,30
 171 117 171 117 179.5 129 c 128,-1,31
 188 141 188 141 198 154 c 1,32,33
 172 157 172 157 155 173 c 128,-1,34
 138 189 138 189 138 216 c 0,35,36
 138 245 138 245 157.5 263 c 128,-1,37
 177 281 177 281 206 281 c 256,38,39
 235 281 235 281 256 266.5 c 128,-1,40
 277 252 277 252 277 220 c 0,41,42
 277 199 277 199 263 175.5 c 128,-1,43
 249 152 249 152 237 135 c 2,44,-1
 145 0 l 1,45,-1
 80 0 l 1,46,47
 78 11 78 11 77.5 18 c 128,-1,48
 77 25 77 25 74 46 c 0,49,50
 72 63 72 63 64 88 c 128,-1,51
 56 113 56 113 47 141 c 128,-1,52
 38 169 38 169 30.5 196 c 128,-1,53
 23 223 23 223 23 244 c 0,54,55
 23 264 23 264 29 285.5 c 128,-1,56
 35 307 35 307 45 326 c 128,-1,57
 55 345 55 345 69 360 c 128,-1,58
 83 375 83 375 99 382 c 0,59,60
 120 390 120 390 132 390 c 0,61,62
 141 390 141 390 153 385 c 0,63,64
 166 378 166 378 179.5 367 c 128,-1,65
 193 356 193 356 209 356 c 0,66,67
 229 356 229 356 241.5 363.5 c 128,-1,68
 254 371 254 371 271 385 c 2,69,-1
 278 390 l 1,70,71
 302 386 302 386 319.5 373 c 128,-1,72
 337 360 337 360 348.5 343 c 128,-1,73
 360 326 360 326 365 305.5 c 128,-1,74
 370 285 370 285 370 266 c 2,75,-1
 370 0 l 1,76,-1
 323 0 l 1,0,-1
179 218 m 256,77,78
 179 206 179 206 187.5 197.5 c 128,-1,79
 196 189 196 189 208 189 c 256,80,81
 220 189 220 189 228.5 197.5 c 128,-1,82
 237 206 237 206 237 218 c 256,83,84
 237 230 237 230 228.5 238.5 c 128,-1,85
 220 247 220 247 208 247 c 256,86,87
 196 247 196 247 187.5 238.5 c 128,-1,88
 179 230 179 230 179 218 c 256,77,78
EndSplineSet
EndChar
StartChar: uni0E16
Encoding: 3606 3606 291
Width: 418
Flags: W
Fore
55 211 m 1,0,1
 55 228 55 228 64.5 243 c 128,-1,2
 74 258 74 258 89 266 c 1,3,-1
 20 266 l 1,4,-1
 20 323 l 1,5,6
 28 331 28 331 37.5 337 c 128,-1,7
 47 343 47 343 57 348 c 0,8,9
 92 368 92 368 123.5 378.5 c 128,-1,10
 155 389 155 389 196 389 c 0,11,12
 220 389 220 389 249 384.5 c 128,-1,13
 278 380 278 380 303 368 c 128,-1,14
 328 356 328 356 344.5 336 c 128,-1,15
 361 316 361 316 361 285 c 2,16,-1
 361 0 l 1,17,-1
 313 0 l 1,18,-1
 313 264 l 2,19,20
 313 312 313 312 279 331.5 c 128,-1,21
 245 351 245 351 197 351 c 0,22,23
 162 351 162 351 131 343 c 128,-1,24
 100 335 100 335 69 309 c 1,25,-1
 61 300 l 1,26,-1
 142 300 l 1,27,-1
 142 267 l 1,28,29
 127 261 127 261 114.5 243.5 c 128,-1,30
 102 226 102 226 102 209 c 2,31,-1
 102 121 l 1,32,33
 111 126 111 126 121 129.5 c 128,-1,34
 131 133 131 133 142 133 c 0,35,36
 168 133 168 133 185.5 113.5 c 128,-1,37
 203 94 203 94 203 68 c 0,38,39
 203 56 203 56 199 43.5 c 128,-1,40
 195 31 195 31 186.5 20.5 c 128,-1,41
 178 10 178 10 166 3.5 c 128,-1,42
 154 -3 154 -3 138 -3 c 0,43,44
 106 -3 106 -3 80.5 15.5 c 128,-1,45
 55 34 55 34 55 69 c 2,46,-1
 55 211 l 1,47,-1
 55 211 l 1,0,1
132 91 m 0,48,49
 118 91 118 91 109 83 c 128,-1,50
 100 75 100 75 100 61 c 256,51,52
 100 47 100 47 109.5 38.5 c 128,-1,53
 119 30 119 30 133 30 c 0,54,55
 162 30 162 30 162 61 c 0,56,57
 162 73 162 73 153.5 82 c 128,-1,58
 145 91 145 91 132 91 c 0,48,49
EndSplineSet
EndChar
StartChar: uni0E17
Encoding: 3607 3607 292
Width: 457
Flags: W
Fore
317 353 m 0,0,1
 301 353 301 353 294 341.5 c 128,-1,2
 287 330 287 330 282 319 c 0,3,4
 271 293 271 293 262.5 269 c 128,-1,5
 254 245 254 245 245 220 c 0,6,7
 225 165 225 165 206 110 c 128,-1,8
 187 55 187 55 166 0 c 1,9,-1
 109 0 l 1,10,-1
 109 259 l 1,11,12
 99 252 99 252 89 252 c 0,13,14
 56 252 56 252 35.5 267.5 c 128,-1,15
 15 283 15 283 15 318 c 0,16,17
 15 356 15 356 34 372.5 c 128,-1,18
 53 389 53 389 89 389 c 0,19,20
 111 389 111 389 124.5 381.5 c 128,-1,21
 138 374 138 374 145 362 c 128,-1,22
 152 350 152 350 154.5 333.5 c 128,-1,23
 157 317 157 317 157 299 c 2,24,-1
 157 76 l 1,25,-1
 220 261 l 2,26,27
 224 272 224 272 227 281 c 128,-1,28
 230 290 230 290 233 298.5 c 128,-1,29
 236 307 236 307 239.5 316 c 128,-1,30
 243 325 243 325 248 337 c 0,31,32
 260 367 260 367 275 376.5 c 128,-1,33
 290 386 290 386 318 386 c 0,34,35
 353 386 353 386 376.5 367.5 c 128,-1,36
 400 349 400 349 400 311 c 2,37,-1
 400 0 l 1,38,-1
 353 0 l 1,39,-1
 353 312 l 2,40,41
 353 333 353 333 345.5 343 c 128,-1,42
 338 353 338 353 317 353 c 0,0,1
85 350 m 0,43,44
 56 350 56 350 56 320 c 0,45,46
 56 306 56 306 65 297.5 c 128,-1,47
 74 289 74 289 86 289 c 0,48,49
 100 289 100 289 106.5 298 c 128,-1,50
 113 307 113 307 113 321 c 0,51,52
 113 334 113 334 106 342 c 128,-1,53
 99 350 99 350 85 350 c 0,43,44
EndSplineSet
EndChar
StartChar: uni0E18
Encoding: 3608 3608 293
Width: 370
Flags: W
Fore
146 349 m 0,0,1
 119 349 119 349 97.5 333.5 c 128,-1,2
 76 318 76 318 68 291 c 1,3,-1
 133 291 l 2,4,5
 147 291 147 291 169 288.5 c 128,-1,6
 191 286 191 286 213.5 281.5 c 128,-1,7
 236 277 236 277 256.5 270.5 c 128,-1,8
 277 264 277 264 289 256 c 0,9,10
 306 244 306 244 311 226 c 128,-1,11
 316 208 316 208 316 189 c 2,12,-1
 316 0 l 1,13,-1
 49 0 l 1,14,-1
 49 219 l 1,15,-1
 97 219 l 1,16,-1
 97 35 l 1,17,-1
 268 35 l 1,18,-1
 268 179 l 2,19,20
 268 193 268 193 263.5 206.5 c 128,-1,21
 259 220 259 220 245 228 c 0,22,23
 229 237 229 237 203 242 c 128,-1,24
 177 247 177 247 147.5 249.5 c 128,-1,25
 118 252 118 252 89 252.5 c 128,-1,26
 60 253 60 253 37 253 c 2,27,-1
 14 253 l 1,28,29
 15 262 15 262 15 271 c 128,-1,30
 15 280 15 280 17 288 c 0,31,32
 27 333 27 333 63 361 c 128,-1,33
 99 389 99 389 144 389 c 0,34,35
 163 389 163 389 181.5 384.5 c 128,-1,36
 200 380 200 380 218 374 c 128,-1,37
 236 368 236 368 253.5 363.5 c 128,-1,38
 271 359 271 359 289 359 c 0,39,40
 316 359 316 359 339 375 c 1,41,-1
 339 312 l 1,42,43
 334 311 334 311 330 310.5 c 128,-1,44
 326 310 326 310 321 310 c 0,45,46
 292 310 292 310 265 317.5 c 128,-1,47
 238 325 238 325 211 334 c 0,48,49
 194 340 194 340 179.5 344.5 c 128,-1,50
 165 349 165 349 146 349 c 0,0,1
EndSplineSet
EndChar
StartChar: uni0E19
Encoding: 3609 3609 294
Width: 460
Flags: W
Fore
82 253 m 0,0,1
 51 253 51 253 32.5 271.5 c 128,-1,2
 14 290 14 290 14 321 c 0,3,4
 14 351 14 351 34.5 370 c 128,-1,5
 55 389 55 389 84 389 c 0,6,7
 119 389 119 389 142 370.5 c 128,-1,8
 165 352 165 352 165 314 c 2,9,-1
 165 64 l 1,10,-1
 253 109 l 2,11,12
 270 117 270 117 285.5 125.5 c 128,-1,13
 301 134 301 134 318 143 c 2,14,-1
 321 145 l 2,15,16
 340 156 340 156 345 177 c 128,-1,17
 350 198 350 198 350 218 c 2,18,-1
 350 383 l 1,19,-1
 398 383 l 1,20,-1
 398 191 l 2,21,22
 398 178 398 178 390.5 162.5 c 128,-1,23
 383 147 383 147 374 138 c 1,24,25
 399 129 399 129 415 110 c 128,-1,26
 431 91 431 91 431 64 c 0,27,28
 431 32 431 32 411.5 12 c 128,-1,29
 392 -8 392 -8 360 -8 c 0,30,31
 332 -8 332 -8 308.5 8 c 128,-1,32
 285 24 285 24 285 54 c 0,33,34
 285 71 285 71 292 86 c 1,35,-1
 263 70 l 2,36,37
 254 66 254 66 239 57.5 c 128,-1,38
 224 49 224 49 209 39 c 128,-1,39
 194 29 194 29 182 18.5 c 128,-1,40
 170 8 170 8 166 0 c 1,41,-1
 117 0 l 1,42,-1
 117 265 l 1,43,44
 110 257 110 257 98.5 255 c 128,-1,45
 87 253 87 253 82 253 c 0,0,1
359 99 m 256,46,47
 345 99 345 99 337 87.5 c 128,-1,48
 329 76 329 76 329 62 c 256,49,50
 329 48 329 48 337 38.5 c 128,-1,51
 345 29 345 29 359 29 c 256,52,53
 373 29 373 29 381 38.5 c 128,-1,54
 389 48 389 48 389 62 c 0,55,56
 389 74 389 74 381 86.5 c 128,-1,57
 373 99 373 99 359 99 c 256,46,47
88 352 m 0,58,59
 59 352 59 352 59 322 c 0,60,61
 59 308 59 308 68 299.5 c 128,-1,62
 77 291 77 291 89 291 c 0,63,64
 103 291 103 291 109.5 300 c 128,-1,65
 116 309 116 309 116 323 c 0,66,67
 116 336 116 336 109 344 c 128,-1,68
 102 352 102 352 88 352 c 0,58,59
EndSplineSet
EndChar
StartChar: uni0E1A
Encoding: 3610 3610 295
Width: 459
Flags: W
Fore
116 264 m 1,0,1
 109 259 109 259 101.5 258 c 128,-1,2
 94 257 94 257 86 257 c 0,3,4
 55 257 55 257 35 274.5 c 128,-1,5
 15 292 15 292 15 324 c 0,6,7
 15 355 15 355 38 372 c 128,-1,8
 61 389 61 389 89 389 c 0,9,10
 124 389 124 389 144.5 369.5 c 128,-1,11
 165 350 165 350 165 315 c 2,12,-1
 165 36 l 1,13,-1
 354 36 l 1,14,-1
 354 382 l 1,15,-1
 402 382 l 1,16,-1
 402 0 l 1,17,-1
 116 0 l 1,18,-1
 116 264 l 1,19,-1
 116 264 l 1,0,1
88 353 m 0,20,21
 59 353 59 353 59 323 c 0,22,23
 59 309 59 309 68 300.5 c 128,-1,24
 77 292 77 292 89 292 c 0,25,26
 103 292 103 292 109.5 301 c 128,-1,27
 116 310 116 310 116 324 c 0,28,29
 116 337 116 337 109 345 c 128,-1,30
 102 353 102 353 88 353 c 0,20,21
EndSplineSet
EndChar
StartChar: uni0E1B
Encoding: 3611 3611 296
Width: 460
Flags: W
Fore
116 264 m 1,0,1
 109 259 109 259 101.5 258 c 128,-1,2
 94 257 94 257 86 257 c 0,3,4
 54 257 54 257 34.5 273.5 c 128,-1,5
 15 290 15 290 15 323 c 0,6,7
 15 355 15 355 37.5 372 c 128,-1,8
 60 389 60 389 89 389 c 0,9,10
 123 389 123 389 143.5 369 c 128,-1,11
 164 349 164 349 164 315 c 2,12,-1
 164 36 l 1,13,-1
 354 36 l 1,14,-1
 354 522 l 1,15,-1
 403 522 l 1,16,-1
 403 0 l 1,17,-1
 116 0 l 1,18,-1
 116 264 l 1,19,-1
 116 264 l 1,0,1
88 353 m 0,20,21
 59 353 59 353 59 323 c 0,22,23
 59 309 59 309 68 300.5 c 128,-1,24
 77 292 77 292 89 292 c 0,25,26
 103 292 103 292 109.5 301 c 128,-1,27
 116 310 116 310 116 324 c 0,28,29
 116 337 116 337 109 345 c 128,-1,30
 102 353 102 353 88 353 c 0,20,21
EndSplineSet
EndChar
